<?xml version="1.0" encoding="UTF-8"?>
<svg width="1000px" height="608px" viewBox="0 0 1000 608" version="1.1" xmlns="http://www.w3.org/2000/svg" xmlns:xlink="http://www.w3.org/1999/xlink">
    <!-- Generator: Sketch 54.1 (76490) - https://sketchapp.com -->
    <title>Customer INteraction</title>
    <desc>Created with Sketch.</desc>
    <defs>
        <polygon id="path-1" points="0 765 1082 765 1082 1 0 1"></polygon>
        <polyline id="path-3" points="16.3124454 1.66833333 16.3124454 61.6091667 0.297689076 61.6091667 0.297689076 131.692 108.454084 131.692 108.454084 61.6091667 77.7206639 61.6091667 69.1536303 0.0678333333"></polyline>
        <polyline id="path-5" points="16.3124454 1.66833333 16.3124454 61.6091667 0.297689076 61.6091667 0.297689076 131.692 108.454084 131.692 108.454084 61.6091667 77.7206639 61.6091667 69.1536303 0.0678333333"></polyline>
        <polyline id="path-7" points="16.3124454 1.66833333 16.3124454 61.6091667 0.297689076 61.6091667 0.297689076 131.692 108.454084 131.692 108.454084 61.6091667 77.7206639 61.6091667 69.1536303 0.0678333333"></polyline>
        <polyline id="path-9" points="16.3124454 1.66833333 16.3124454 61.6091667 0.297689076 61.6091667 0.297689076 131.692 108.454084 131.692 108.454084 61.6091667 77.7206639 61.6091667 69.1536303 0.0678333333"></polyline>
        <polyline id="path-11" points="16.3124454 1.66833333 16.3124454 61.6091667 0.297689076 61.6091667 0.297689076 131.692 108.454084 131.692 108.454084 61.6091667 77.7206639 61.6091667 69.1536303 0.0678333333"></polyline>
        <polyline id="path-13" points="16.3124454 1.66833333 16.3124454 61.6091667 0.297689076 61.6091667 0.297689076 131.692 108.454084 131.692 108.454084 61.6091667 77.7206639 61.6091667 69.1536303 0.0678333333"></polyline>
        <polyline id="path-15" points="16.3124454 1.66833333 16.3124454 61.6091667 0.297689076 61.6091667 0.297689076 131.692 108.454084 131.692 108.454084 61.6091667 77.7206639 61.6091667 69.1536303 0.0678333333"></polyline>
        <polyline id="path-17" points="16.3124454 1.66833333 16.3124454 61.6091667 0.297689076 61.6091667 0.297689076 131.692 108.454084 131.692 108.454084 61.6091667 77.7206639 61.6091667 69.1536303 0.0678333333"></polyline>
        <polyline id="path-19" points="16.3124454 1.66833333 16.3124454 61.6091667 0.297689076 61.6091667 0.297689076 131.692 108.454084 131.692 108.454084 61.6091667 77.7206639 61.6091667 69.1536303 0.0678333333"></polyline>
        <polyline id="path-21" points="16.3124454 1.66833333 16.3124454 61.6091667 0.297689076 61.6091667 0.297689076 131.692 108.454084 131.692 108.454084 61.6091667 77.7206639 61.6091667 69.1536303 0.0678333333"></polyline>
        <polyline id="path-23" points="16.3124454 1.66833333 16.3124454 61.6091667 0.297689076 61.6091667 0.297689076 131.692 108.454084 131.692 108.454084 61.6091667 77.7206639 61.6091667 69.1536303 0.0678333333"></polyline>
        <polyline id="path-25" points="16.3124454 1.66833333 16.3124454 61.6091667 0.297689076 61.6091667 0.297689076 131.692 108.454084 131.692 108.454084 61.6091667 77.7206639 61.6091667 69.1536303 0.0678333333"></polyline>
        <polyline id="path-27" points="16.3124454 1.66833333 16.3124454 61.6091667 0.297689076 61.6091667 0.297689076 131.692 108.454084 131.692 108.454084 61.6091667 77.7206639 61.6091667 69.1536303 0.0678333333"></polyline>
        <polyline id="path-29" points="16.3124454 1.66833333 16.3124454 61.6091667 0.297689076 61.6091667 0.297689076 131.692 108.454084 131.692 108.454084 61.6091667 77.7206639 61.6091667 69.1536303 0.0678333333"></polyline>
        <polyline id="path-31" points="16.3124454 1.66833333 16.3124454 61.6091667 0.297689076 61.6091667 0.297689076 131.692 108.454084 131.692 108.454084 61.6091667 77.7206639 61.6091667 69.1536303 0.0678333333"></polyline>
        <polyline id="path-33" points="16.3124454 1.66833333 16.3124454 61.6091667 0.297689076 61.6091667 0.297689076 131.692 108.454084 131.692 108.454084 61.6091667 77.7206639 61.6091667 69.1536303 0.0678333333"></polyline>
        <polyline id="path-35" points="16.3124454 1.66833333 16.3124454 61.6091667 0.297689076 61.6091667 0.297689076 131.692 108.454084 131.692 108.454084 61.6091667 77.7206639 61.6091667 69.1536303 0.0678333333"></polyline>
        <polyline id="path-37" points="16.3124454 1.66833333 16.3124454 61.6091667 0.297689076 61.6091667 0.297689076 131.692 108.454084 131.692 108.454084 61.6091667 77.7206639 61.6091667 69.1536303 0.0678333333"></polyline>
        <polyline id="path-39" points="16.3124454 1.66833333 16.3124454 61.6091667 0.297689076 61.6091667 0.297689076 131.692 108.454084 131.692 108.454084 61.6091667 77.7206639 61.6091667 69.1536303 0.0678333333"></polyline>
        <polyline id="path-41" points="16.3124454 1.66833333 16.3124454 61.6091667 0.297689076 61.6091667 0.297689076 131.692 108.454084 131.692 108.454084 61.6091667 77.7206639 61.6091667 69.1536303 0.0678333333"></polyline>
        <polyline id="path-43" points="16.3124454 1.66833333 16.3124454 61.6091667 0.297689076 61.6091667 0.297689076 131.692 108.454084 131.692 108.454084 61.6091667 77.7206639 61.6091667 69.1536303 0.0678333333"></polyline>
        <polyline id="path-45" points="16.3124454 1.66833333 16.3124454 61.6091667 0.297689076 61.6091667 0.297689076 131.692 108.454084 131.692 108.454084 61.6091667 77.7206639 61.6091667 69.1536303 0.0678333333"></polyline>
        <polyline id="path-47" points="16.3124454 1.66833333 16.3124454 61.6091667 0.297689076 61.6091667 0.297689076 131.692 108.454084 131.692 108.454084 61.6091667 77.7206639 61.6091667 69.1536303 0.0678333333"></polyline>
        <polyline id="path-49" points="16.3124454 1.66833333 16.3124454 61.6091667 0.297689076 61.6091667 0.297689076 131.692 108.454084 131.692 108.454084 61.6091667 77.7206639 61.6091667 69.1536303 0.0678333333"></polyline>
        <polyline id="path-51" points="16.3124454 1.66833333 16.3124454 61.6091667 0.297689076 61.6091667 0.297689076 131.692 108.454084 131.692 108.454084 61.6091667 77.7206639 61.6091667 69.1536303 0.0678333333"></polyline>
        <polyline id="path-53" points="16.3124454 1.66833333 16.3124454 61.6091667 0.297689076 61.6091667 0.297689076 131.692 108.454084 131.692 108.454084 61.6091667 77.7206639 61.6091667 69.1536303 0.0678333333"></polyline>
        <polyline id="path-55" points="16.3124454 1.66833333 16.3124454 61.6091667 0.297689076 61.6091667 0.297689076 131.692 108.454084 131.692 108.454084 61.6091667 77.7206639 61.6091667 69.1536303 0.0678333333"></polyline>
        <polyline id="path-57" points="16.3124454 1.66833333 16.3124454 61.6091667 0.297689076 61.6091667 0.297689076 131.692 108.454084 131.692 108.454084 61.6091667 77.7206639 61.6091667 69.1536303 0.0678333333"></polyline>
        <polyline id="path-59" points="16.3124454 1.66833333 16.3124454 61.6091667 0.297689076 61.6091667 0.297689076 131.692 108.454084 131.692 108.454084 61.6091667 77.7206639 61.6091667 69.1536303 0.0678333333"></polyline>
        <polyline id="path-61" points="16.3124454 1.66833333 16.3124454 61.6091667 0.297689076 61.6091667 0.297689076 131.692 108.454084 131.692 108.454084 61.6091667 77.7206639 61.6091667 69.1536303 0.0678333333"></polyline>
        <polyline id="path-63" points="16.3124454 1.66833333 16.3124454 61.6091667 0.297689076 61.6091667 0.297689076 131.692 108.454084 131.692 108.454084 61.6091667 77.7206639 61.6091667 69.1536303 0.0678333333"></polyline>
        <polyline id="path-65" points="16.3124454 1.66833333 16.3124454 61.6091667 0.297689076 61.6091667 0.297689076 131.692 108.454084 131.692 108.454084 61.6091667 77.7206639 61.6091667 69.1536303 0.0678333333"></polyline>
        <polyline id="path-67" points="16.3124454 1.66833333 16.3124454 61.6091667 0.297689076 61.6091667 0.297689076 131.692 108.454084 131.692 108.454084 61.6091667 77.7206639 61.6091667 69.1536303 0.0678333333"></polyline>
        <polyline id="path-69" points="16.3124454 1.66833333 16.3124454 61.6091667 0.297689076 61.6091667 0.297689076 131.692 108.454084 131.692 108.454084 61.6091667 77.7206639 61.6091667 69.1536303 0.0678333333"></polyline>
        <polyline id="path-71" points="16.3124454 1.66833333 16.3124454 61.6091667 0.297689076 61.6091667 0.297689076 131.692 108.454084 131.692 108.454084 61.6091667 77.7206639 61.6091667 69.1536303 0.0678333333"></polyline>
        <polyline id="path-73" points="16.3124454 1.66833333 16.3124454 61.6091667 0.297689076 61.6091667 0.297689076 131.692 108.454084 131.692 108.454084 61.6091667 77.7206639 61.6091667 69.1536303 0.0678333333"></polyline>
        <polyline id="path-75" points="16.3124454 1.66833333 16.3124454 61.6091667 0.297689076 61.6091667 0.297689076 131.692 108.454084 131.692 108.454084 61.6091667 77.7206639 61.6091667 69.1536303 0.0678333333"></polyline>
        <polyline id="path-77" points="16.3124454 1.66833333 16.3124454 61.6091667 0.297689076 61.6091667 0.297689076 131.692 108.454084 131.692 108.454084 61.6091667 77.7206639 61.6091667 69.1536303 0.0678333333"></polyline>
        <polyline id="path-79" points="16.3124454 1.66833333 16.3124454 61.6091667 0.297689076 61.6091667 0.297689076 131.692 108.454084 131.692 108.454084 61.6091667 77.7206639 61.6091667 69.1536303 0.0678333333"></polyline>
        <polyline id="path-81" points="16.3124454 1.66833333 16.3124454 61.6091667 0.297689076 61.6091667 0.297689076 131.692 108.454084 131.692 108.454084 61.6091667 77.7206639 61.6091667 69.1536303 0.0678333333"></polyline>
        <polyline id="path-83" points="16.3124454 1.66833333 16.3124454 61.6091667 0.297689076 61.6091667 0.297689076 131.692 108.454084 131.692 108.454084 61.6091667 77.7206639 61.6091667 69.1536303 0.0678333333"></polyline>
        <polyline id="path-85" points="16.3124454 1.66833333 16.3124454 61.6091667 0.297689076 61.6091667 0.297689076 131.692 108.454084 131.692 108.454084 61.6091667 77.7206639 61.6091667 69.1536303 0.0678333333"></polyline>
        <polyline id="path-87" points="16.3124454 1.66833333 16.3124454 61.6091667 0.297689076 61.6091667 0.297689076 131.692 108.454084 131.692 108.454084 61.6091667 77.7206639 61.6091667 69.1536303 0.0678333333"></polyline>
        <polyline id="path-89" points="16.3124454 1.66833333 16.3124454 61.6091667 0.297689076 61.6091667 0.297689076 131.692 108.454084 131.692 108.454084 61.6091667 77.7206639 61.6091667 69.1536303 0.0678333333"></polyline>
        <polyline id="path-91" points="16.3124454 1.66833333 16.3124454 61.6091667 0.297689076 61.6091667 0.297689076 131.692 108.454084 131.692 108.454084 61.6091667 77.7206639 61.6091667 69.1536303 0.0678333333"></polyline>
        <polygon id="path-93" points="16.3124454 1.66833333 16.3124454 61.6091667 0.297689076 61.6091667 0.297689076 131.692 108.454084 131.692 108.454084 61.6091667 77.7206639 61.6091667 69.1536303 0.0678333333"></polygon>
        <polyline id="path-95" points="16.3124454 1.66833333 16.3124454 61.6091667 0.297689076 61.6091667 0.297689076 131.692 108.454084 131.692 108.454084 61.6091667 77.7206639 61.6091667 69.1536303 0.0678333333"></polyline>
        <polygon id="path-97" points="16.3124454 1.66833333 16.3124454 61.6091667 0.297689076 61.6091667 0.297689076 131.692 108.454084 131.692 108.454084 61.6091667 77.7206639 61.6091667 69.1536303 0.0678333333"></polygon>
        <polygon id="path-99" points="16.3124454 1.66833333 16.3124454 61.6091667 0.297689076 61.6091667 0.297689076 131.692 108.454084 131.692 108.454084 61.6091667 77.7206639 61.6091667 69.1536303 0.0678333333"></polygon>
        <polygon id="path-101" points="16.3124454 1.66833333 16.3124454 61.6091667 0.297689076 61.6091667 0.297689076 131.692 108.454084 131.692 108.454084 61.6091667 77.7206639 61.6091667 69.1536303 0.0678333333"></polygon>
        <polygon id="path-103" points="16.3124454 1.66833333 16.3124454 61.6091667 0.297689076 61.6091667 0.297689076 131.692 108.454084 131.692 108.454084 61.6091667 77.7206639 61.6091667 69.1536303 0.0678333333"></polygon>
        <polygon id="path-105" points="16.3124454 1.66833333 16.3124454 61.6091667 0.297689076 61.6091667 0.297689076 131.692 108.454084 131.692 108.454084 61.6091667 77.7206639 61.6091667 69.1536303 0.0678333333"></polygon>
        <polyline id="path-107" points="16.3124454 1.66833333 16.3124454 61.6091667 0.297689076 61.6091667 0.297689076 131.692 108.454084 131.692 108.454084 61.6091667 77.7206639 61.6091667 69.1536303 0.0678333333"></polyline>
        <polyline id="path-109" points="16.3124454 1.66833333 16.3124454 61.6091667 0.297689076 61.6091667 0.297689076 131.692 108.454084 131.692 108.454084 61.6091667 77.7206639 61.6091667 69.1536303 0.0678333333"></polyline>
        <polygon id="path-111" points="16.3124454 1.66833333 16.3124454 61.6091667 0.297689076 61.6091667 0.297689076 131.692 108.454084 131.692 108.454084 61.6091667 77.7206639 61.6091667 69.1536303 0.0678333333"></polygon>
        <polygon id="path-113" points="0 765 1082 765 1082 1 0 1"></polygon>
    </defs>
    <g id="Customer-INteraction" stroke="none" stroke-width="1" fill="none" fill-rule="evenodd">
        <g id="Group-90" transform="translate(-41.000000, -51.000000)">
            <path d="M739.915274,459.729192 C746.628218,360.672279 352.460837,108.783498 260.245953,189.808008 C168.030153,270.833433 217.478966,456.069979 375.141159,525.121713 C532.802437,594.173447 733.202331,558.786104 739.915274,459.729192" id="Fill-1" fill="#E7E8ED"></path>
            <path d="M402.16666,467.977583 C409.296166,392.451808 791.824486,246.678371 862.839452,318.216055 C933.854417,389.75191 915.879166,540.221578 767.058402,574.60113 C618.236722,608.980682 395.037154,543.504273 402.16666,467.977583" id="Fill-3" fill="#CFD1DB"></path>
            <path d="M589.5,160 C608.001786,160 623,174.998923 623,193.500457 C623,212.001077 608.001786,227 589.5,227 C570.999127,227 556,212.001077 556,193.500457 C556,174.998923 570.999127,160 589.5,160" id="Fill-5" fill="#F2F2F2"></path>
            <path d="M589.999518,164 C591.10383,164 592,164.89617 592,166.000482 C592,167.104794 591.10383,168 589.999518,168 C588.895206,168 588,167.104794 588,166.000482 C588,164.89617 588.895206,164 589.999518,164" id="Fill-7" fill="#000000"></path>
            <path d="M562.999518,191 C564.10383,191 565,191.89617 565,193.000482 C565,194.104794 564.10383,195 562.999518,195 C561.895206,195 561,194.104794 561,193.000482 C561,191.89617 561.895206,191 562.999518,191" id="Fill-9" fill="#000000"></path>
            <path d="M615.999518,191 C617.10383,191 618,191.89617 618,193.000482 C618,194.104794 617.10383,195 615.999518,195 C614.895206,195 614,194.104794 614,193.000482 C614,191.89617 614.895206,191 615.999518,191" id="Fill-11" fill="#000000"></path>
            <path d="M589.999518,218 C591.10383,218 592,218.89617 592,219.999518 C592,221.104794 591.10383,222 589.999518,222 C588.895206,222 588,221.104794 588,219.999518 C588,218.89617 588.895206,218 589.999518,218" id="Fill-13" fill="#000000"></path>
            <polygon id="Fill-15" fill="#AFB9C5" points="589.5 170 591 192 588 192"></polygon>
            <polygon id="Fill-17" fill="#AFB9C5" points="601 204 589 193.846226 590.846226 192"></polygon>
            <path d="M589.5,191 C590.880058,191 592,192.11854 592,193.500904 C592,194.88146 590.880058,196 589.5,196 C588.119942,196 587,194.88146 587,193.500904 C587,192.11854 588.119942,191 589.5,191" id="Fill-19" fill="#C5CFD6"></path>
            <path d="M807,209.850883 L826.452303,190.448096 C829.723556,187.18534 835.031315,187.183511 838.304402,190.445352 L838.307154,190.448096 L890.093121,242.097112 C893.235028,245.230015 895,249.479462 895,253.909969 L895,596" id="Stroke-21" stroke="#CBCBCB" stroke-width="8"></path>
            <path d="M866.152542,596 L921.847458,596 C923.589362,596 925,597.343257 925,599.000876 L925,600 C925,601.657618 923.589362,603 921.847458,603 L866.152542,603 C864.410638,603 863,601.657618 863,600 L863,599.000876 C863,597.343257 864.410638,596 866.152542,596" id="Fill-23" fill="#AFB9C5"></path>
            <path d="M818.843293,198.156824 L818.843293,198.156824 C832.385569,211.698336 832.385569,233.654412 818.843293,247.195924 L798.039456,268 L749,218.9609 L769.803837,198.156824 C783.346113,184.614392 805.301016,184.614392 818.843293,198.156824" id="Fill-25" fill="#C5CFD6"></path>
            <path d="M778.830201,238.169253 C792.375195,251.714077 801.192601,264.856734 798.523727,267.523733 C795.856694,270.192574 782.713872,261.375278 769.169799,247.830454 C755.624805,234.286551 746.807399,221.143894 749.476273,218.475974 C752.143306,215.808054 765.286128,224.62535 778.830201,238.169253" id="Fill-27" fill="#F2F2F2"></path>
            <path d="M771.352607,345.190171 C779.505962,364.411654 793.36565,377.767512 800.706715,397.753678 C805.059848,409.606728 806.873654,422.493702 806.98442,435.692045 C807.043496,442.860836 806.91796,450.035123 806.883807,457.203914 C806.8515,464.195043 806.659504,471.141298 806.062287,478.088469 C805.460455,485.071355 804.787547,491.971821 804.490323,498.99775 C804.259559,504.473249 804.15433,510.840725 802.284218,515.83452 C800.795329,519.806294 797.015414,520.388735 796.012975,515.571688 C795.454526,512.893923 795.524678,509.903874 795.586523,507.15193 C795.665906,503.621565 795.871747,500.09578 795.977899,496.566331 C796.402505,482.400916 795.852363,468.232754 796.140357,454.06276 C796.420043,440.217871 798.214464,426.386719 796.229893,412.634324 C794.590546,401.276716 790.426639,391.524486 785.641516,382.175202 C781.037312,373.179412 776.026964,364.402496 772.915341,354.171308 C772.022746,351.232543 771.3323,348.186631 771,345.027161 C771.14492,344.961224 771.262148,345.015256 771.352607,345.190171" id="Fill-29" fill="#7189FB"></path>
            <path d="M769.890482,382.563526 C771.490424,383.717064 772.383649,385.403989 773.464296,387.069907 C774.808247,389.139518 776.388076,391.008195 777.732028,393.080546 C780.535126,397.39878 782.996295,401.982795 785.550717,406.476389 C790.399913,415.005998 794.081609,424.096393 795.904629,433.964034 C797.794389,444.190615 798.304542,454.745081 799.097199,465.125101 C799.938312,476.124361 800.78491,487.204907 800.896449,498.248006 C800.946733,503.194613 801.214609,508.447186 800.61943,513.36 C800.249158,516.417836 798.867722,519.024486 795.752863,518.999826 C789.13733,518.946853 786.0307,511.627409 784.733375,505.62225 C782.823501,496.783021 782.442258,487.39214 782.744875,478.351065 C783.109662,467.449532 785.003994,456.712399 785.824078,445.852879 C786.691704,434.356767 786.201665,423.064328 782.244779,412.239515 C780.246223,406.769569 777.925849,401.430229 775.843182,395.996816 C774.956356,393.683345 774.229526,391.306855 773.031854,389.153218 C771.699788,386.756634 770.044991,384.581077 769,382 C769.298046,382.188146 769.594264,382.376293 769.890482,382.563526" id="Fill-31" fill="#2944C8"></path>
            <path d="M845.408874,359.475424 C845.606212,359.317561 845.802662,359.15878 846,359 C845.431986,361.47257 844.406182,363.478894 843.621273,365.738533 C842.916366,367.769638 842.559913,370.067825 842.084345,372.287998 C840.969651,377.502054 839.680729,382.597714 838.627369,387.856744 C836.541983,398.261912 836.93666,409.471079 838.304694,421.015245 C839.595394,431.920618 841.638112,442.807634 842.61147,453.710254 C843.418601,462.751562 843.764388,472.076473 842.99548,480.702933 C842.471911,486.56129 840.758979,493.556808 836.087749,492.964823 C833.888583,492.687646 832.741887,489.954419 832.278764,486.869673 C831.537412,481.914437 831.381853,476.705887 831.092956,471.778186 C830.446718,460.78195 830.317826,449.818756 830.190711,438.934492 C830.069819,428.666077 829.737367,418.193909 830.401383,408.183397 C831.043177,398.524405 833.047672,389.820849 835.913523,381.789127 C837.423783,377.558041 838.862042,373.227831 840.558085,369.195909 C841.372327,367.261173 842.365241,365.552218 843.179484,363.620236 C843.834612,362.065473 844.353736,360.470325 845.408874,359.475424" id="Fill-33" fill="#7189FB"></path>
            <path d="M771.190692,414.275195 C772.06448,412.810075 773.987359,417.643329 774.280448,418.250907 C774.157186,417.94803 774.032099,417.646978 773.907924,417.345014 C775.64089,420.225991 777.227768,423.226477 778.21386,426.529839 C779.190821,429.800359 780.029,433.136564 780.944787,436.429891 C782.663144,442.610582 784.880025,448.615202 786.436772,454.850629 C787.954259,460.926408 788.336826,466.900011 787.96978,473.183789 C787.588126,479.716619 787.354386,486.348887 787.79904,492.877156 C788.012694,495.995326 789.026177,498.900934 789.72192,501.902332 C790.417663,504.907379 790.965492,507.952567 791.788148,510.92021 C791.977149,510.533404 792.000889,511.826103 791.999975,511.923717 C791.99541,512.6654 791.892236,513.286662 791.653017,513.990029 C791.039449,515.797254 789.891747,517.333532 788.145086,517.831636 C784.989591,518.732968 782.058706,515.86385 781.04157,512.835084 C779.581606,508.488987 778.77721,503.687662 778.081468,499.119881 C777.44416,494.930696 777.292594,490.717791 777.482508,486.471133 C777.855945,478.097323 779.372518,469.832988 779.782477,461.462828 C780.228044,452.348248 778.422035,443.785597 776.909114,434.913683 C776.179588,430.638744 775.482932,426.404857 774.064055,422.332443 C773.490661,420.683043 772.741961,419.22887 771.95674,417.705364 C771.510259,416.839611 770.606342,415.293298 771.190692,414.275195" id="Fill-35" fill="#3456FA"></path>
            <path d="M797.276045,400.686396 C796.917757,411.165235 796.298895,421.566242 794.918218,431.935202 C793.509494,442.517511 791.890863,453.062277 790.53552,463.653743 C789.215462,473.962268 787.832071,484.443854 788.016644,494.897055 C788.152359,502.596859 786.890207,515.621239 795.340745,519.422153 C803.898046,523.270681 805.734726,506.836375 806.296587,501.411076 C807.373261,491.003659 807.024021,480.485446 806.501969,470.022174 C805.965442,459.281455 805.069721,448.596592 803.95957,437.896163 C802.72637,426.009951 801.759173,414.069715 800.982881,402.15054 C800.59926,396.25459 800.503354,390.367798 800.610117,384.470933 C800.710546,378.906453 800.50064,373.283371 798.54634,368 C798.444101,368.075084 798.342767,368.150169 798.239623,368.225253" id="Fill-37" fill="#4766FA"></path>
            <path d="M842.371914,433.475751 C840.770972,435.755293 839.156854,438.011847 837.645324,440.425642 C834.940383,444.743807 832.494264,449.54657 831.758264,455.721288 C830.217558,468.643599 831.452382,482.601313 831.751676,495.919946 C831.811911,498.640868 831.459911,501.280871 832.558264,503.871218 C833.554029,506.219726 835.414736,508.010072 837.188854,507.999957 C840.986502,507.978808 840.407678,498.892823 840.413325,494.892819 C840.42556,487.883157 839.619913,480.801771 839.68956,473.799466 C839.759207,466.860609 840.191207,459.902442 841.219913,453.31301 C842.262737,446.642659 843.789326,440.238056 845.803444,434.261039 C846.082973,433.432532 848.089562,427.022411 846.194973,428.1277" id="Fill-39" fill="#2944C8"></path>
            <path d="M826.12146,365 C823.680674,365 823.695394,377.137705 823.621793,378.695868 C823.356831,384.321957 823.418471,389.948045 823.251949,395.575051 C822.883945,407.854992 822.433141,420.242297 820.583921,432.380002 C819.58847,438.913642 818.434778,445.418836 817.192765,451.902923 C815.947071,458.406281 814.276333,464.901381 813.456605,471.487327 C812.670916,477.81725 813.114361,484.273808 813.222002,490.634931 C813.330563,497.03643 813.524685,503.448941 814.365574,509.793547 C814.572577,511.359051 814.815459,512.919967 815.075822,514.477212 C815.292944,515.773846 815.166903,517.38248 815.533067,518.614879 C816.121873,520.589653 818.6427,521.235676 820.340118,520.926429 C824.932807,520.090454 827.866719,514.33773 829.436256,510.134911 C831.440037,504.768516 832.503568,498.946969 833.55238,493.291516 C834.741032,486.882676 835.43748,480.377482 835.764083,473.853936 C836.42833,460.596703 835.575481,447.323869 834.624191,434.108847 C834.094265,426.758502 833.482459,419.441192 832.545889,412.136728 C831.614839,404.863465 830.417906,397.623237 829.638658,390.328868 C829.073772,385.027627 828.516246,379.719044 828.149162,374.397614 C828.061761,373.128509 827.98816,365 826.12146,365" id="Fill-41" fill="#4766FA"></path>
            <path d="M822.945239,453.242173 C822.544316,440.519441 817.375837,384.635075 816.200846,369.250703 C815.906403,365.3998 813.075869,349.365823 812.708279,345 C811.711991,346.234158 811.798101,365.44103 811.809212,369.853581 C811.819397,374.219404 811.273105,378.512845 810.991626,382.854846 C810.704591,387.285721 804.086123,444.504113 803.22687,448.759989 C801.517624,457.23051 800.374114,465.920926 799.491713,474.58019 C798.63246,483.020475 797.29636,491.925288 798.446351,500.408636 C798.710238,502.362033 799.128753,504.284277 799.810229,506.079167 C800.546335,508.016987 801.050035,509.810044 801.640771,511.838571 C802.59169,515.106754 804.310195,517.974545 806.951842,519.323232 C812.367541,522.090238 815.276779,515.828741 816.750841,510.376273 C819.105453,501.670281 820.615627,492.822274 821.324881,483.680159 C822.109134,473.564094 823.265607,463.427871 822.945239,453.242173" id="Fill-43" fill="#7189FB"></path>
            <path d="M767.824176,490 L847.175824,490 C848.183681,490 849,490.817231 849,491.824176 L849,571.175824 C849,572.183681 848.183681,573 847.175824,573 L767.824176,573 C766.817231,573 766,572.183681 766,571.175824 L766,491.824176 C766,490.817231 766.817231,490 767.824176,490" id="Fill-45" fill="#9EA3B7"></path>
            <path d="M758.8,500 L764.2,500 C765.1945,500 766,500.816708 766,501.823009 L766,601.176991 C766,602.184204 765.1945,603 764.2,603 L758.8,603 C757.8064,603 757,602.184204 757,601.176991 L757,501.823009 C757,500.816708 757.8064,500 758.8,500" id="Fill-47" fill="#C5CFD6"></path>
            <path d="M804.8,500 L810.2,500 C811.1945,500 812,500.816708 812,501.823009 L812,601.176991 C812,602.184204 811.1945,603 810.2,603 L804.8,603 C803.8064,603 803,602.184204 803,601.176991 L803,501.823009 C803,500.816708 803.8064,500 804.8,500" id="Fill-49" fill="#C5CFD6"></path>
            <path d="M850.8,500 L856.2,500 C857.1945,500 858,500.816708 858,501.823009 L858,601.176991 C858,602.184204 857.1945,603 856.2,603 L850.8,603 C849.8064,603 849,602.184204 849,601.176991 L849,501.823009 C849,500.816708 849.8064,500 850.8,500" id="Fill-51" fill="#C5CFD6"></path>
            <path d="M299.238102,536.023777 L299.238102,475.127179 C299.238102,464.931697 303.211972,455.345528 310.4272,448.137147 C317.642428,440.92785 327.235568,436.957248 337.440355,436.957248 L543.822433,436.957248 C554.026304,436.957248 563.619445,440.92785 570.835588,448.137147 C578.050817,455.345528 582.024686,464.931697 582.024686,475.127179 L582.024686,535.975288 L581.762813,596 L603.738128,596 L604,536.023777 L604,475.127179 C604,459.066367 597.740698,443.9671 586.373967,432.610628 C575.008151,421.254156 559.895544,415 543.822433,415 L337.440355,415 C321.366328,415 306.253721,421.254156 294.887906,432.610628 C283.52209,443.9671 277.262788,459.067282 277.262788,475.127179 L277.262788,535.975288 L277,596 L298.97623,596 L299.238102,536.023777 Z" id="Fill-53" fill="#9D9FB5"></path>
            <path d="M502.263182,394 L391.736818,394 C389.120977,394 387,391.868474 387,389.239624 L387,304.760376 C387,302.131526 389.120977,300 391.736818,300 L502.263182,300 C504.879023,300 507,302.131526 507,304.760376 L507,389.239624 C507,391.868474 504.879023,394 502.263182,394" id="Fill-55" fill="#0C174B"></path>
            <mask id="mask-2" fill="white">
                <use xlink:href="#path-1"></use>
            </mask>
            <g id="Clip-58"></g>
            <polygon id="Fill-57" fill="#3F4A7E" mask="url(#mask-2)" points="435 411 460 411 460 392 435 392"></polygon>
            <polygon id="Fill-59" fill="#3F4A7E" mask="url(#mask-2)" points="418 415 463 415 463 408 418 408"></polygon>
            <polygon id="Fill-60" fill="#9EA3B7" mask="url(#mask-2)" points="441 411 466 411 466 392 441 392"></polygon>
            <polygon id="Fill-61" fill="#9EA3B7" mask="url(#mask-2)" points="431 415 476 415 476 408 431 408"></polygon>
            <path d="M513,306.817381 C513,303.05193 509.956882,300 506.204343,300 L399.79657,300 C396.042205,300 393,303.05193 393,306.817381 L393,382 L513,382 L513,306.817381 Z" id="Fill-62" fill="#3F4A7E" mask="url(#mask-2)"></path>
            <path d="M393,382 L393,387.086462 C393,390.904095 396.042205,394 399.795657,394 L506.20343,394 C509.956882,394 513,390.904095 513,387.086462 L513,382 L393,382 Z" id="Fill-63" fill="#9EA3B7" mask="url(#mask-2)"></path>
            <polygon id="Fill-64" fill="#FFFFFF" mask="url(#mask-2)" points="399 376 507 376 507 306 399 306"></polygon>
            <path d="M576,414.168918 L545.725594,403.157288 C536.864216,393.608992 531.974742,389.685097 531.05717,391.385604 C529.68263,393.935907 533.018593,395.981643 532.367208,397.854307 C531.714915,399.726971 526.06322,399.800229 520.698607,399.638145 C515.333085,399.475146 517.002883,401.799264 518.346535,402.922862 C523.956439,405.957585 530.880015,408.389759 539.116355,410.218467 L570.137536,431 L576,414.168918 Z" id="Fill-65" fill="#B28B67" mask="url(#mask-2)"></path>
            <path d="M647.554487,526 L709.445513,526 C712.513706,526 715,523.457981 715,520.323103 L715,513 L642,513 L642,520.323103 C642,523.457981 644.487206,526 647.554487,526" id="Fill-66" fill="#0C174B" mask="url(#mask-2)"></path>
            <polygon id="Fill-67" fill="#FFFFFF" mask="url(#mask-2)" points="672 571 684 571 684 529 672 529"></polygon>
            <path d="M671.609925,585 L684.389164,585 C685.278812,585 686,584.268426 686,583.364826 L686,560.634249 C686,559.731574 685.278812,559 684.389164,559 L671.609925,559 C670.720278,559 670,559.731574 670,560.634249 L670,583.364826 C670,584.268426 670.720278,585 671.609925,585" id="Fill-68" fill="#0C174B" mask="url(#mask-2)"></path>
            <path d="M623.838628,587 L733.162284,587 C734.729367,587 736,585.714615 736,584.130475 L736,583.868603 C736,582.285385 734.729367,581 733.162284,581 L623.838628,581 C622.270633,581 621,582.285385 621,583.868603 L621,584.130475 C621,585.714615 622.270633,587 623.838628,587" id="Fill-69" fill="#0C174B" mask="url(#mask-2)"></path>
            <path d="M728,599.500471 C728,603.089468 730.910532,606 734.500471,606 C738.090409,606 741,603.089468 741,599.500471 C741,595.910532 738.090409,593 734.500471,593 C730.910532,593 728,595.910532 728,599.500471" id="Fill-70" fill="#9EA3B7" mask="url(#mask-2)"></path>
            <path d="M694,599.500471 C694,603.089468 696.910321,606 700.5,606 C704.09062,606 707,603.089468 707,599.500471 C707,595.910532 704.09062,593 700.5,593 C696.910321,593 694,595.910532 694,599.500471" id="Fill-71" fill="#9EA3B7" mask="url(#mask-2)"></path>
            <path d="M650,599.500471 C650,603.089468 652.910321,606 656.5,606 C660.09062,606 663,603.089468 663,599.500471 C663,595.910532 660.09062,593 656.5,593 C652.910321,593 650,595.910532 650,599.500471" id="Fill-72" fill="#9EA3B7" mask="url(#mask-2)"></path>
            <path d="M617,599.500471 C617,603.089468 619.910321,606 623.5,606 C627.09062,606 630,603.089468 630,599.500471 C630,595.910532 627.09062,593 623.5,593 C619.910321,593 617,595.910532 617,599.500471" id="Fill-73" fill="#9EA3B7" mask="url(#mask-2)"></path>
            <path d="M666.82644,532 L690.17264,532 C692.838962,532 695,529.805812 695,527.100675 L695,524.793461 C695,523.804255 694.209399,523 693.232882,523 L663.767118,523 C662.790601,523 662,523.804255 662,524.793461 L662,527.100675 C662,529.805812 664.161038,532 666.82644,532" id="Fill-74" fill="#0C174B" mask="url(#mask-2)"></path>
            <path d="M629,500.352672 L643.38863,354.826684 C644.19891,346.41956 651.665907,340.260736 660.065593,341.071733 L660.066506,341.071733 L746,341.071733 L714.934407,508 L629,508 L630.588587,500.352672 L629,500.352672 Z" id="Fill-75" fill="#9EA3B7" mask="url(#mask-2)"></path>
            <path d="M592.195454,489 L638.187904,489 L654.45938,489 L704.374754,489 L698.169336,502 L708,515 L652.895889,515 L576,515 C576,500.640782 583.250493,489 592.195454,489" id="Fill-76" fill="#3F4A7E" mask="url(#mask-2)"></path>
            <path d="M656,516 L728.763131,516 L746,341.071734 C737.576242,340.260014 730.087846,346.430364 729.274328,354.854472 L714.845379,489.572397 L678.146376,489.572397 C665.915208,489.572397 656,499.488932 656,511.719692 L656,516 Z" id="Fill-77" fill="#26336D" mask="url(#mask-2)"></path>
            <path d="M492,584.755505 C517.765427,527.57153 534.586712,493.577995 542.463854,482.775814 C547.667086,475.638463 570.66069,482.803287 563.698643,498.10546 C560.777659,504.522117 551.525129,521.320624 540.219124,540.199715 C533.616711,551.225338 520.969177,568.158461 502.277437,591 L492,584.755505 Z" id="Fill-78" fill="#B28B67" mask="url(#mask-2)"></path>
            <path d="M496,565.834064 C499.717003,560.810436 529.373922,494.295626 541.852234,477.433399 C547.348174,470.007286 583.463167,480.497345 575.98501,496.455667 L541.018875,584 L496,565.834064 Z" id="Fill-79" fill="#26336D" mask="url(#mask-2)"></path>
            <path d="M623.670754,573.597192 C620.468139,570.736291 582.145494,538.65717 555.879483,514.895364 C545.332327,505.353251 566.373643,487.74553 576.939988,498.222429 C580.494388,501.746345 584.253463,505.528352 588.104824,509.469045 C601.510121,523.181673 626.120457,556.323258 632.886609,566.172711 C637.138183,572.363274 628.158069,577.606284 623.670754,573.597192" id="Fill-80" fill="#B28B67" mask="url(#mask-2)"></path>
            <path d="M631.399046,562.352313 C630.552479,561.742246 629.378356,561.944681 628.777683,562.803191 C627.21158,565.040103 625.823319,566.512361 624.614716,567.220885 C623.127553,568.091357 620.872764,568.660937 617.851255,568.927784 L614.558446,566.357774 L614.537577,566.341211 C614.117469,566.032037 613.5295,566.126813 613.224627,566.551928 L597.376679,588.696526 C595.822372,589.948865 593.850678,591.487374 591.460692,593.312054 C589.072521,595.135813 589.6124,597.698462 593.083052,601 C621.991539,584.074556 637.296885,575.113107 639,574.116573 C637.863078,570.973302 636.870426,568.658177 636.022952,567.169356 C635.3261,565.944622 633.82079,564.366545 631.506115,562.435127 C631.471635,562.406602 631.436248,562.378077 631.399046,562.352313" id="Fill-81" fill="#E4E4E4" mask="url(#mask-2)"></path>
            <path d="M510.357001,586.746423 C509.920393,585.775013 508.79455,585.348153 507.842617,585.79276 C505.361185,586.954716 503.417046,587.53476 502.008369,587.53476 C500.274753,587.53476 498.022151,586.875322 495.250562,585.555512 L493.652414,581.598883 C493.648753,581.590477 493.646007,581.583004 493.64143,581.573664 C493.429076,581.085157 492.8689,580.866589 492.390188,581.084223 L467.531016,592.393679 C465.550264,592.694443 463.062425,593.031634 460.068414,593.406188 C457.073487,593.779807 456.270752,596.311078 457.661123,601 L511.145091,601 C511.715336,597.652371 512,595.106155 512,593.361353 C512,591.926655 511.47003,589.763399 510.409174,586.874388 C510.392698,586.830488 510.376223,586.788455 510.357001,586.746423" id="Fill-82" fill="#E4E4E4" mask="url(#mask-2)"></path>
            <path d="M587.460505,503.732712 L621.916582,548.107306 L579.853782,575 C549.554624,522.955384 534.371286,496.84471 534.304681,496.666145 C532.658701,492.307346 530.9817,479.077107 539.988054,474.590108 C590.046262,452.16793 618.476814,439.971533 625.281533,438 L676.700138,438 C681.511252,470.884212 673.373508,485.955952 645.465765,490.894399 C635.675655,492.62693 616.367333,495.850244 587.538972,500.563425 C586.576385,500.837223 586.550837,501.893042 587.460505,503.732712" id="Fill-83" fill="#2944C8" mask="url(#mask-2)"></path>
            <path d="M644.130959,323.600581 C648.519604,318.487729 651.489799,312.222569 650.993388,305.201978 C649.562987,284.974097 621.192151,289.424578 615.672791,299.632947 C610.15435,309.843141 610.809797,335.740411 617.942495,337.565127 C620.786749,338.292276 626.846646,336.509529 633.014099,332.819955 L629.142089,360 L652,360 L644.130959,323.600581 Z" id="Fill-84" fill="#B28B67" mask="url(#mask-2)"></path>
            <path d="M628.53736,287.827808 C631.528818,287.336318 639.583937,286.999218 641.07008,286.999218 C642.018547,286.999218 643.047346,287.216643 643.60967,286.344203 C644.069754,285.629807 643.900874,284.42118 644.037804,283.59259 C644.197555,282.630622 644.424858,281.679617 644.653987,280.731352 C645.305773,278.032726 646.29258,275.466564 647.672831,273.056619 C650.262629,268.536374 654.056494,264.994541 658.845383,262.933572 C664.134521,260.658833 670.120176,260.137196 675.808236,260.598539 C681.897044,261.092769 687.408008,263.104406 693.155405,264.996368 C698.633506,266.799716 704.370861,267.510458 710.1,266.629795 C715.872044,265.741825 720.232799,262.611089 725.10202,259.640225 C730.086261,256.59719 735.781625,254.608392 741.675079,255.065167 C747.17509,255.491795 752.244228,257.765621 756.79212,260.801347 C761.046982,263.641574 764.558773,267.060077 766.541515,271.869004 C768.673967,277.043351 768.672142,282.722891 765.164915,287.296122 C760.082084,293.923927 750.645801,295.637746 742.794252,295.466912 C738.253662,295.369162 733.794318,294.539659 729.506592,293.030475 C723.78932,291.017924 718.848896,287.607642 713.499509,284.839586 C710.989131,283.541432 708.393856,282.474405 705.675345,281.70611 C703.03534,280.95974 700.436414,280.617158 698.047447,282.21313 C695.518812,283.90137 693.253994,285.559463 690.362039,286.615527 C687.587843,287.629568 684.649331,288.195968 681.693475,288.174043 C675.94334,288.129279 670.27445,286.335981 664.689543,285.135576 C660.133435,284.155337 655.260563,283.179666 650.61682,284.120622 C648.679721,284.513449 645.84984,285.325595 645.149673,287.339972 C656.928367,289.476765 661.554766,304.054282 658.233764,314.756519 C656.440897,320.531982 645.669093,327.283116 641.479957,324.247389 C638.826259,322.323453 640.437465,319.798401 641.479957,318.131172 C643.476392,314.938315 644.159215,310.836476 640.464851,308.613809 C637.27804,306.697182 633.927827,311.250314 633.863926,311.244833 C632.988489,311.176317 625.419927,306.891768 620.205644,300.641259 C615.060738,300.946385 614.281151,297.552547 615.509867,294.775355 C616.73767,291.99999 624.404821,288.506575 628.53736,287.827808" id="Fill-85" fill="#0C174B" mask="url(#mask-2)"></path>
            <path d="M711.320392,417 L692,420.875181 C711.429603,457.472785 721.850183,476.869847 723.259919,479.065445 C726.432507,484.006692 723.472881,493.060433 722.378947,497.829674 C729.238328,499.44303 726.533528,489.008647 735.214007,491.187689 C743.136378,493.175409 749.854694,498.279464 757.241929,491.396487 C758.150203,490.550257 758.815482,487.905789 755.718431,486.549061 C748.003562,483.16966 736.604631,476.841332 734.75623,474.384506 C732.235268,471.03362 724.423929,451.906064 711.320392,417" id="Fill-86" fill="#B28B67" mask="url(#mask-2)"></path>
            <path d="M638.916084,344.408893 L630.741888,343 C612.938219,360.361669 605.673687,402.072601 593.808832,407.593517 C582.591782,412.813575 566.690467,407.76229 547.788268,400.941635 L542,413.943624 C559.174113,432.622461 595.760457,448.402794 610.591525,439.394502 C634.301162,424.990958 639.774652,373.547108 638.916084,344.408893" id="Fill-87" fill="#E12E52" mask="url(#mask-2)"></path>
            <path d="M675,447 L602.591114,447 C599.282487,447 599.906394,442.21835 600.384145,439.804206 C605.904309,411.951026 627.453322,381.926946 627.453322,342.277383 L648.339148,339 C665.614898,366.812945 671.589063,401.057204 675,447" id="Fill-88" fill="#DDE3E9" mask="url(#mask-2)"></path>
            <path d="M682.423621,418.58569 C697.234502,445.168365 709.683377,464.306468 719.77208,476 L735,473.032386 C725.190851,412.499071 696.783548,367.821609 649.778092,339 L649.538867,339 L641.480369,339 C622.666821,402.811005 617.480859,445.327963 625.92065,466.552699 L691.319865,466.552699 C690.285056,451.022427 686.967983,434.599317 682.423621,418.58569" id="Fill-89" fill="#FA476B" mask="url(#mask-2)"></path>
        </g>
        <g id="Group-256" transform="translate(358.000000, 193.000000)">
            <g id="Group-93">
                <mask id="mask-4" fill="white">
                    <use xlink:href="#path-3"></use>
                </mask>
                <g id="Clip-92"></g>
                <path d="M95.8000084,70.9767667 L-13.7046891,70.9767667 C-15.2215294,70.9767667 -16.4507563,72.20785 -16.4507563,73.72585 L-16.4507563,187.093683 C-16.4507563,188.610767 -15.2215294,189.84185 -13.7046891,189.84185 L95.8000084,189.84185 C97.3168487,189.84185 98.5469916,188.610767 98.5469916,187.093683 L98.5469916,73.72585 C98.5469916,72.20785 97.3168487,70.9767667 95.8000084,70.9767667" id="Fill-91" fill="#F2F2F2" mask="url(#mask-4)"></path>
            </g>
            <g id="Group-96">
                <mask id="mask-6" fill="white">
                    <use xlink:href="#path-5"></use>
                </mask>
                <g id="Clip-95"></g>
                <path d="M10.3244067,85.7490333 L-8.21200504,85.7490333 C-9.72976134,85.7490333 -10.9580723,86.9801167 -10.9580723,88.4972 L-10.9580723,110.8272 C-10.9580723,112.346117 -9.72976134,113.575367 -8.21200504,113.575367 L10.3244067,113.575367 C11.8412471,113.575367 13.0704739,112.346117 13.0704739,110.8272 L13.0704739,88.4972 C13.0704739,86.9801167 11.8412471,85.7490333 10.3244067,85.7490333" id="Fill-94" fill="#FFFFFF" mask="url(#mask-6)"></path>
            </g>
            <g id="Group-99">
                <mask id="mask-8" fill="white">
                    <use xlink:href="#path-7"></use>
                </mask>
                <g id="Clip-98"></g>
                <path d="M1.05656723,90.902625 C-1.97711345,90.902625 -4.43648319,93.363875 -4.43648319,96.3989583 C-4.43648319,99.4349583 -1.97711345,101.895292 1.05656723,101.895292 C4.0902479,101.895292 6.54870168,99.4349583 6.54870168,96.3989583 C6.54870168,93.363875 4.0902479,90.902625 1.05656723,90.902625" id="Fill-97" fill="#DDE3E9" mask="url(#mask-8)"></path>
            </g>
            <g id="Group-102">
                <mask id="mask-10" fill="white">
                    <use xlink:href="#path-9"></use>
                </mask>
                <g id="Clip-101"></g>
                <path d="M8.60788571,103.269558 L-6.49548403,103.269558 C-7.06429916,103.269558 -7.52503025,103.731558 -7.52503025,104.299892 C-7.52503025,104.869142 -7.06429916,105.331142 -6.49548403,105.331142 L8.60788571,105.331142 C9.17670084,105.331142 9.6383479,104.869142 9.6383479,104.299892 C9.6383479,103.731558 9.17670084,103.269558 8.60788571,103.269558" id="Fill-100" fill="#DDE3E9" mask="url(#mask-10)"></path>
            </g>
            <g id="Group-105">
                <mask id="mask-12" fill="white">
                    <use xlink:href="#path-11"></use>
                </mask>
                <g id="Clip-104"></g>
                <path d="M5.86181849,106.705225 L-3.74941681,106.705225 C-4.31823193,106.705225 -4.77896303,107.166308 -4.77896303,107.735558 C-4.77896303,108.304808 -4.31823193,108.765892 -3.74941681,108.765892 L5.86181849,108.765892 C6.43063361,108.765892 6.89228067,108.304808 6.89228067,107.735558 C6.89228067,107.166308 6.43063361,106.705225 5.86181849,106.705225" id="Fill-103" fill="#DDE3E9" mask="url(#mask-12)"></path>
            </g>
            <g id="Group-108">
                <mask id="mask-14" fill="white">
                    <use xlink:href="#path-13"></use>
                </mask>
                <g id="Clip-107"></g>
                <path d="M95.8000084,70.9767667 L-13.7046891,70.9767667 C-15.2215294,70.9767667 -16.4507563,72.20785 -16.4507563,73.72585 L-16.4507563,80.2525167 L98.5469916,80.2525167 L98.5469916,73.72585 C98.5469916,72.20785 97.3168487,70.9767667 95.8000084,70.9767667" id="Fill-106" fill="#C5CFD6" mask="url(#mask-14)"></path>
            </g>
            <g id="Group-111">
                <mask id="mask-16" fill="white">
                    <use xlink:href="#path-15"></use>
                </mask>
                <g id="Clip-110"></g>
                <path d="M94.0843118,74.4124333 C93.3258916,74.4124333 92.7112782,75.0275167 92.7112782,75.7865167 C92.7112782,76.5455167 93.3258916,77.1606 94.0843118,77.1606 C94.841816,77.1606 95.4573454,76.5455167 95.4573454,75.7865167 C95.4573454,75.0275167 94.841816,74.4124333 94.0843118,74.4124333" id="Fill-109" fill="#F2F2F2" mask="url(#mask-16)"></path>
            </g>
            <g id="Group-114">
                <mask id="mask-18" fill="white">
                    <use xlink:href="#path-17"></use>
                </mask>
                <g id="Clip-113"></g>
                <path d="M89.964295,74.4124333 C89.2067908,74.4124333 88.5912613,75.0275167 88.5912613,75.7865167 C88.5912613,76.5455167 89.2067908,77.1606 89.964295,77.1606 C90.7227151,77.1606 91.3373286,76.5455167 91.3373286,75.7865167 C91.3373286,75.0275167 90.7227151,74.4124333 89.964295,74.4124333" id="Fill-112" fill="#F2F2F2" mask="url(#mask-18)"></path>
            </g>
            <g id="Group-117">
                <mask id="mask-20" fill="white">
                    <use xlink:href="#path-19"></use>
                </mask>
                <g id="Clip-116"></g>
                <path d="M85.8451025,74.4124333 C85.0866824,74.4124333 84.4720689,75.0275167 84.4720689,75.7865167 C84.4720689,76.5455167 85.0866824,77.1606 85.8451025,77.1606 C86.6035227,77.1606 87.2181361,76.5455167 87.2181361,75.7865167 C87.2181361,75.0275167 86.6035227,74.4124333 85.8451025,74.4124333" id="Fill-115" fill="#F2F2F2" mask="url(#mask-20)"></path>
            </g>
            <g id="Group-120">
                <mask id="mask-22" fill="white">
                    <use xlink:href="#path-21"></use>
                </mask>
                <g id="Clip-119"></g>
                <path d="M10.3244067,116.323992 L-8.21200504,116.323992 C-9.72976134,116.323992 -10.9580723,117.555075 -10.9580723,119.072158 L-10.9580723,180.222075 C-10.9580723,181.740075 -9.72976134,182.970242 -8.21200504,182.970242 L10.3244067,182.970242 C11.8412471,182.970242 13.0704739,181.740075 13.0704739,180.222075 L13.0704739,119.072158 C13.0704739,117.555075 11.8412471,116.323992 10.3244067,116.323992" id="Fill-118" fill="#FFFFFF" mask="url(#mask-22)"></path>
            </g>
            <g id="Group-123">
                <mask id="mask-24" fill="white">
                    <use xlink:href="#path-23"></use>
                </mask>
                <g id="Clip-122"></g>
                <path d="M5.51915546,122.507917 L-3.40602101,122.507917 C-4.16444118,122.507917 -4.77905462,123.123 -4.77905462,123.882 L-4.77905462,130.065833 C-4.77905462,130.824833 -4.16444118,131.439917 -3.40602101,131.439917 L5.51915546,131.439917 C6.27665966,131.439917 6.89218908,130.824833 6.89218908,130.065833 L6.89218908,123.882 C6.89218908,123.123 6.27665966,122.507917 5.51915546,122.507917" id="Fill-121" fill="#DDE3E9" mask="url(#mask-24)"></path>
            </g>
            <g id="Group-126">
                <mask id="mask-26" fill="white">
                    <use xlink:href="#path-25"></use>
                </mask>
                <g id="Clip-125"></g>
                <path d="M5.51915546,134.188267 L-3.40602101,134.188267 C-4.16444118,134.188267 -4.77905462,134.80335 -4.77905462,135.56235 L-4.77905462,141.402433 C-4.77905462,142.161433 -4.16444118,142.776517 -3.40602101,142.776517 L5.51915546,142.776517 C6.27665966,142.776517 6.89218908,142.161433 6.89218908,141.402433 L6.89218908,135.56235 C6.89218908,134.80335 6.27665966,134.188267 5.51915546,134.188267" id="Fill-124" fill="#AFB9C5" mask="url(#mask-26)"></path>
            </g>
            <g id="Group-129">
                <mask id="mask-28" fill="white">
                    <use xlink:href="#path-27"></use>
                </mask>
                <g id="Clip-128"></g>
                <path d="M5.51915546,145.524867 L-3.40602101,145.524867 C-4.16444118,145.524867 -4.77905462,146.13995 -4.77905462,146.89895 L-4.77905462,152.739033 C-4.77905462,153.498033 -4.16444118,154.113117 -3.40602101,154.113117 L5.51915546,154.113117 C6.27665966,154.113117 6.89218908,153.498033 6.89218908,152.739033 L6.89218908,146.89895 C6.89218908,146.13995 6.27665966,145.524867 5.51915546,145.524867" id="Fill-127" fill="#DDE3E9" mask="url(#mask-28)"></path>
            </g>
            <g id="Group-132">
                <mask id="mask-30" fill="white">
                    <use xlink:href="#path-29"></use>
                </mask>
                <g id="Clip-131"></g>
                <path d="M5.51915546,168.198892 L-3.40602101,168.198892 C-4.16444118,168.198892 -4.77905462,168.813975 -4.77905462,169.572975 L-4.77905462,175.413058 C-4.77905462,176.171142 -4.16444118,176.787142 -3.40602101,176.787142 L5.51915546,176.787142 C6.27665966,176.787142 6.89218908,176.171142 6.89218908,175.413058 L6.89218908,169.572975 C6.89218908,168.813975 6.27665966,168.198892 5.51915546,168.198892" id="Fill-130" fill="#DDE3E9" mask="url(#mask-30)"></path>
            </g>
            <g id="Group-135">
                <mask id="mask-32" fill="white">
                    <use xlink:href="#path-31"></use>
                </mask>
                <g id="Clip-134"></g>
                <path d="M5.51915546,156.861467 L-3.40602101,156.861467 C-4.16444118,156.861467 -4.77905462,157.477467 -4.77905462,158.23555 L-4.77905462,164.075633 C-4.77905462,164.834633 -4.16444118,165.449717 -3.40602101,165.449717 L5.51915546,165.449717 C6.27665966,165.449717 6.89218908,164.834633 6.89218908,164.075633 L6.89218908,158.23555 C6.89218908,157.477467 6.27665966,156.861467 5.51915546,156.861467" id="Fill-133" fill="#C5CFD6" mask="url(#mask-32)"></path>
            </g>
            <g id="Group-138">
                <mask id="mask-34" fill="white">
                    <use xlink:href="#path-33"></use>
                </mask>
                <g id="Clip-137"></g>
                <path d="M91.680816,86.0927833 L17.1907655,86.0927833 C16.4323454,86.0927833 15.8177319,86.7078667 15.8177319,87.4668667 L15.8177319,100.864867 C15.8177319,101.623867 16.4323454,102.23895 17.1907655,102.23895 L91.680816,102.23895 C92.4392361,102.23895 93.0538496,101.623867 93.0538496,100.864867 L93.0538496,87.4668667 C93.0538496,86.7078667 92.4392361,86.0927833 91.680816,86.0927833" id="Fill-136" fill="#FFFFFF" mask="url(#mask-34)"></path>
            </g>
            <g id="Group-141">
                <mask id="mask-36" fill="white">
                    <use xlink:href="#path-35"></use>
                </mask>
                <g id="Clip-140"></g>
                <path d="M88.9347487,90.9366333 L33.6671689,90.9366333 C33.0983538,90.9366333 32.6376227,91.3986333 32.6376227,91.9669667 L32.6376227,92.3281333 C32.6376227,92.8973833 33.0983538,93.3593833 33.6671689,93.3593833 L88.9347487,93.3593833 C89.5035639,93.3593833 89.964295,92.8973833 89.964295,92.3281333 L89.964295,91.9669667 C89.964295,91.3986333 89.5035639,90.9366333 88.9347487,90.9366333" id="Fill-139" fill="#DDE3E9" mask="url(#mask-36)"></path>
            </g>
            <g id="Group-144">
                <mask id="mask-38" fill="white">
                    <use xlink:href="#path-37"></use>
                </mask>
                <g id="Clip-143"></g>
                <path d="M88.9347487,94.9729917 L52.5140933,94.9729917 C51.9461941,94.9729917 51.4845471,95.4349917 51.4845471,96.0042417 L51.4845471,96.3654083 C51.4845471,96.9337417 51.9461941,97.3957417 52.5140933,97.3957417 L88.9347487,97.3957417 C89.5035639,97.3957417 89.964295,96.9337417 89.964295,96.3654083 L89.964295,96.0042417 C89.964295,95.4349917 89.5035639,94.9729917 88.9347487,94.9729917" id="Fill-142" fill="#DDE3E9" mask="url(#mask-38)"></path>
            </g>
            <g id="Group-147">
                <mask id="mask-40" fill="white">
                    <use xlink:href="#path-39"></use>
                </mask>
                <g id="Clip-146"></g>
                <path d="M24.0710471,91.7610833 C22.7447277,91.7610833 21.6684672,92.8381667 21.6684672,94.1655 C21.6684672,95.49375 22.7447277,96.5708333 24.0710471,96.5708333 C25.3982824,96.5708333 26.4745429,95.49375 26.4745429,94.1655 C26.4745429,92.8381667 25.3982824,91.7610833 24.0710471,91.7610833" id="Fill-145" fill="#DDE3E9" mask="url(#mask-40)"></path>
            </g>
            <g id="Group-150">
                <mask id="mask-42" fill="white">
                    <use xlink:href="#path-41"></use>
                </mask>
                <g id="Clip-149"></g>
                <path d="M24.0710471,93.1351667 C23.5031479,93.1351667 23.0415008,93.5971667 23.0415008,94.1655 C23.0415008,94.73475 23.5031479,95.19675 24.0710471,95.19675 C24.6398622,95.19675 25.1015092,94.73475 25.1015092,94.1655 C25.1015092,93.5971667 24.6398622,93.1351667 24.0710471,93.1351667" id="Fill-148" fill="#F2F2F2" mask="url(#mask-42)"></path>
            </g>
            <g id="Group-153">
                <mask id="mask-44" fill="white">
                    <use xlink:href="#path-43"></use>
                </mask>
                <g id="Clip-152"></g>
                <path d="M91.680816,104.987392 L17.1907655,104.987392 C16.4323454,104.987392 15.8177319,105.602475 15.8177319,106.361475 L15.8177319,117.011308 C15.8177319,117.770308 16.4323454,118.385392 17.1907655,118.385392 L91.680816,118.385392 C92.4392361,118.385392 93.0538496,117.770308 93.0538496,117.011308 L93.0538496,106.361475 C93.0538496,105.602475 92.4392361,104.987392 91.680816,104.987392" id="Fill-151" fill="#FFFFFF" mask="url(#mask-44)"></path>
            </g>
            <g id="Group-156">
                <mask id="mask-46" fill="white">
                    <use xlink:href="#path-45"></use>
                </mask>
                <g id="Clip-155"></g>
                <path d="M88.9606706,109.006792 L33.6408807,109.006792 C33.086721,109.006792 32.6378975,109.456875 32.6378975,110.012375 C32.6378975,110.566958 33.086721,111.016125 33.6408807,111.016125 L88.9606706,111.016125 C89.5148303,111.016125 89.9645697,110.566958 89.9645697,110.012375 C89.9645697,109.456875 89.5148303,109.006792 88.9606706,109.006792" id="Fill-154" fill="#DDE3E9" mask="url(#mask-46)"></path>
            </g>
            <g id="Group-159">
                <mask id="mask-48" fill="white">
                    <use xlink:href="#path-47"></use>
                </mask>
                <g id="Clip-158"></g>
                <path d="M88.9606706,112.356567 L52.489637,112.356567 C51.9345613,112.356567 51.4848218,112.805733 51.4848218,113.361233 C51.4848218,113.915817 51.9345613,114.3659 52.489637,114.3659 L88.9606706,114.3659 C89.5148303,114.3659 89.9645697,113.915817 89.9645697,113.361233 C89.9645697,112.805733 89.5148303,112.356567 88.9606706,112.356567" id="Fill-157" fill="#DDE3E9" mask="url(#mask-48)"></path>
            </g>
            <g id="Group-162">
                <mask id="mask-50" fill="white">
                    <use xlink:href="#path-49"></use>
                </mask>
                <g id="Clip-161"></g>
                <path d="M24.0710471,109.281608 C22.7447277,109.281608 21.6684672,110.358692 21.6684672,111.686025 C21.6684672,113.014275 22.7447277,114.091358 24.0710471,114.091358 C25.3982824,114.091358 26.4745429,113.014275 26.4745429,111.686025 C26.4745429,110.358692 25.3982824,109.281608 24.0710471,109.281608" id="Fill-160" fill="#DDE3E9" mask="url(#mask-50)"></path>
            </g>
            <g id="Group-165">
                <mask id="mask-52" fill="white">
                    <use xlink:href="#path-51"></use>
                </mask>
                <g id="Clip-164"></g>
                <path d="M24.0710471,110.655692 C23.5031479,110.655692 23.0415008,111.117692 23.0415008,111.686025 C23.0415008,112.255275 23.5031479,112.717275 24.0710471,112.717275 C24.6398622,112.717275 25.1015092,112.255275 25.1015092,111.686025 C25.1015092,111.117692 24.6398622,110.655692 24.0710471,110.655692" id="Fill-163" fill="#F2F2F2" mask="url(#mask-52)"></path>
            </g>
            <g id="Group-168">
                <mask id="mask-54" fill="white">
                    <use xlink:href="#path-53"></use>
                </mask>
                <g id="Clip-167"></g>
                <path d="M91.680816,121.133833 L17.1907655,121.133833 C16.4323454,121.133833 15.8177319,121.748917 15.8177319,122.507917 L15.8177319,133.15775 C15.8177319,133.915833 16.4323454,134.531833 17.1907655,134.531833 L91.680816,134.531833 C92.4392361,134.531833 93.0538496,133.915833 93.0538496,133.15775 L93.0538496,122.507917 C93.0538496,121.748917 92.4392361,121.133833 91.680816,121.133833" id="Fill-166" fill="#FFFFFF" mask="url(#mask-54)"></path>
            </g>
            <g id="Group-171">
                <mask id="mask-56" fill="white">
                    <use xlink:href="#path-55"></use>
                </mask>
                <g id="Clip-170"></g>
                <path d="M88.9606706,125.153142 L33.6408807,125.153142 C33.086721,125.153142 32.6378975,125.603225 32.6378975,126.157808 C32.6378975,126.712392 33.086721,127.162475 33.6408807,127.162475 L88.9606706,127.162475 C89.5148303,127.162475 89.9645697,126.712392 89.9645697,126.157808 C89.9645697,125.603225 89.5148303,125.153142 88.9606706,125.153142" id="Fill-169" fill="#DDE3E9" mask="url(#mask-56)"></path>
            </g>
            <g id="Group-174">
                <mask id="mask-58" fill="white">
                    <use xlink:href="#path-57"></use>
                </mask>
                <g id="Clip-173"></g>
                <path d="M88.9606706,128.502917 L52.489637,128.502917 C51.9345613,128.502917 51.4848218,128.952083 51.4848218,129.507583 C51.4848218,130.062167 51.9345613,130.51225 52.489637,130.51225 L88.9606706,130.51225 C89.5148303,130.51225 89.9645697,130.062167 89.9645697,129.507583 C89.9645697,128.952083 89.5148303,128.502917 88.9606706,128.502917" id="Fill-172" fill="#DDE3E9" mask="url(#mask-58)"></path>
            </g>
            <g id="Group-177">
                <mask id="mask-60" fill="white">
                    <use xlink:href="#path-59"></use>
                </mask>
                <g id="Clip-176"></g>
                <path d="M24.0710471,125.427958 C22.7447277,125.427958 21.6684672,126.505042 21.6684672,127.832375 C21.6684672,129.160625 22.7447277,130.237708 24.0710471,130.237708 C25.3982824,130.237708 26.4745429,129.160625 26.4745429,127.832375 C26.4745429,126.505042 25.3982824,125.427958 24.0710471,125.427958" id="Fill-175" fill="#DDE3E9" mask="url(#mask-60)"></path>
            </g>
            <g id="Group-180">
                <mask id="mask-62" fill="white">
                    <use xlink:href="#path-61"></use>
                </mask>
                <g id="Clip-179"></g>
                <path d="M24.0710471,126.802133 C23.5031479,126.802133 23.0415008,127.263217 23.0415008,127.832467 C23.0415008,128.401717 23.5031479,128.863717 24.0710471,128.863717 C24.6398622,128.863717 25.1015092,128.401717 25.1015092,127.832467 C25.1015092,127.263217 24.6398622,126.802133 24.0710471,126.802133" id="Fill-178" fill="#AFB9C5" mask="url(#mask-62)"></path>
            </g>
            <g id="Group-183">
                <mask id="mask-64" fill="white">
                    <use xlink:href="#path-63"></use>
                </mask>
                <g id="Clip-182"></g>
                <path d="M91.680816,169.572975 L17.1907655,169.572975 C16.4323454,169.572975 15.8177319,170.188058 15.8177319,170.947058 L15.8177319,181.595975 C15.8177319,182.354975 16.4323454,182.970058 17.1907655,182.970058 L91.680816,182.970058 C92.4392361,182.970058 93.0538496,182.354975 93.0538496,181.595975 L93.0538496,170.947058 C93.0538496,170.188058 92.4392361,169.572975 91.680816,169.572975" id="Fill-181" fill="#FFFFFF" mask="url(#mask-64)"></path>
            </g>
            <g id="Group-186">
                <mask id="mask-66" fill="white">
                    <use xlink:href="#path-65"></use>
                </mask>
                <g id="Clip-185"></g>
                <path d="M88.9606706,173.592375 L33.6408807,173.592375 C33.086721,173.592375 32.6378975,174.041542 32.6378975,174.597042 C32.6378975,175.151625 33.086721,175.601708 33.6408807,175.601708 L88.9606706,175.601708 C89.5148303,175.601708 89.9645697,175.151625 89.9645697,174.597042 C89.9645697,174.041542 89.5148303,173.592375 88.9606706,173.592375" id="Fill-184" fill="#DDE3E9" mask="url(#mask-66)"></path>
            </g>
            <g id="Group-189">
                <mask id="mask-68" fill="white">
                    <use xlink:href="#path-67"></use>
                </mask>
                <g id="Clip-188"></g>
                <path d="M88.9606706,176.941233 L52.489637,176.941233 C51.9345613,176.941233 51.4848218,177.391317 51.4848218,177.946817 C51.4848218,178.5014 51.9345613,178.950567 52.489637,178.950567 L88.9606706,178.950567 C89.5148303,178.950567 89.9645697,178.5014 89.9645697,177.946817 C89.9645697,177.391317 89.5148303,176.941233 88.9606706,176.941233" id="Fill-187" fill="#DDE3E9" mask="url(#mask-68)"></path>
            </g>
            <g id="Group-192">
                <mask id="mask-70" fill="white">
                    <use xlink:href="#path-69"></use>
                </mask>
                <g id="Clip-191"></g>
                <path d="M24.0710471,173.867192 C22.7447277,173.867192 21.6684672,174.943358 21.6684672,176.271608 C21.6684672,177.599858 22.7447277,178.676025 24.0710471,178.676025 C25.3982824,178.676025 26.4745429,177.599858 26.4745429,176.271608 C26.4745429,174.943358 25.3982824,173.867192 24.0710471,173.867192" id="Fill-190" fill="#DDE3E9" mask="url(#mask-70)"></path>
            </g>
            <g id="Group-195">
                <mask id="mask-72" fill="white">
                    <use xlink:href="#path-71"></use>
                </mask>
                <g id="Clip-194"></g>
                <path d="M24.0710471,175.241275 C23.5031479,175.241275 23.0415008,175.702358 23.0415008,176.271608 C23.0415008,176.840858 23.5031479,177.301942 24.0710471,177.301942 C24.6398622,177.301942 25.1015092,176.840858 25.1015092,176.271608 C25.1015092,175.702358 24.6398622,175.241275 24.0710471,175.241275" id="Fill-193" fill="#F2F2F2" mask="url(#mask-72)"></path>
            </g>
            <g id="Group-198">
                <mask id="mask-74" fill="white">
                    <use xlink:href="#path-73"></use>
                </mask>
                <g id="Clip-197"></g>
                <path d="M91.680816,153.426625 L17.1907655,153.426625 C16.4323454,153.426625 15.8177319,154.041708 15.8177319,154.800708 L15.8177319,165.449625 C15.8177319,166.208625 16.4323454,166.823708 17.1907655,166.823708 L91.680816,166.823708 C92.4392361,166.823708 93.0538496,166.208625 93.0538496,165.449625 L93.0538496,154.800708 C93.0538496,154.041708 92.4392361,153.426625 91.680816,153.426625" id="Fill-196" fill="#FFFFFF" mask="url(#mask-74)"></path>
            </g>
            <g id="Group-201">
                <mask id="mask-76" fill="white">
                    <use xlink:href="#path-75"></use>
                </mask>
                <g id="Clip-200"></g>
                <path d="M88.9606706,157.445933 L33.6408807,157.445933 C33.086721,157.445933 32.6378975,157.8951 32.6378975,158.4506 C32.6378975,159.005183 33.086721,159.455267 33.6408807,159.455267 L88.9606706,159.455267 C89.5148303,159.455267 89.9645697,159.005183 89.9645697,158.4506 C89.9645697,157.8951 89.5148303,157.445933 88.9606706,157.445933" id="Fill-199" fill="#DDE3E9" mask="url(#mask-76)"></path>
            </g>
            <g id="Group-204">
                <mask id="mask-78" fill="white">
                    <use xlink:href="#path-77"></use>
                </mask>
                <g id="Clip-203"></g>
                <path d="M88.9606706,160.794883 L52.489637,160.794883 C51.9345613,160.794883 51.4848218,161.244967 51.4848218,161.800467 C51.4848218,162.35505 51.9345613,162.804217 52.489637,162.804217 L88.9606706,162.804217 C89.5148303,162.804217 89.9645697,162.35505 89.9645697,161.800467 C89.9645697,161.244967 89.5148303,160.794883 88.9606706,160.794883" id="Fill-202" fill="#DDE3E9" mask="url(#mask-78)"></path>
            </g>
            <g id="Group-207">
                <mask id="mask-80" fill="white">
                    <use xlink:href="#path-79"></use>
                </mask>
                <g id="Clip-206"></g>
                <path d="M24.0710471,157.720842 C22.7447277,157.720842 21.6684672,158.797008 21.6684672,160.125258 C21.6684672,161.453508 22.7447277,162.529675 24.0710471,162.529675 C25.3982824,162.529675 26.4745429,161.453508 26.4745429,160.125258 C26.4745429,158.797008 25.3982824,157.720842 24.0710471,157.720842" id="Fill-205" fill="#DDE3E9" mask="url(#mask-80)"></path>
            </g>
            <g id="Group-210">
                <mask id="mask-82" fill="white">
                    <use xlink:href="#path-81"></use>
                </mask>
                <g id="Clip-209"></g>
                <path d="M24.0710471,159.094925 C23.5031479,159.094925 23.0415008,159.556008 23.0415008,160.125258 C23.0415008,160.694508 23.5031479,161.155592 24.0710471,161.155592 C24.6398622,161.155592 25.1015092,160.694508 25.1015092,160.125258 C25.1015092,159.556008 24.6398622,159.094925 24.0710471,159.094925" id="Fill-208" fill="#F2F2F2" mask="url(#mask-82)"></path>
            </g>
            <g id="Group-213">
                <mask id="mask-84" fill="white">
                    <use xlink:href="#path-83"></use>
                </mask>
                <g id="Clip-212"></g>
                <path d="M91.680816,137.280183 L17.1907655,137.280183 C16.4323454,137.280183 15.8177319,137.895267 15.8177319,138.654267 L15.8177319,149.3041 C15.8177319,150.062183 16.4323454,150.678183 17.1907655,150.678183 L91.680816,150.678183 C92.4392361,150.678183 93.0538496,150.062183 93.0538496,149.3041 L93.0538496,138.654267 C93.0538496,137.895267 92.4392361,137.280183 91.680816,137.280183" id="Fill-211" fill="#FFFFFF" mask="url(#mask-84)"></path>
            </g>
            <g id="Group-216">
                <mask id="mask-86" fill="white">
                    <use xlink:href="#path-85"></use>
                </mask>
                <g id="Clip-215"></g>
                <path d="M88.9606706,141.299583 L33.6408807,141.299583 C33.086721,141.299583 32.6378975,141.74875 32.6378975,142.30425 C32.6378975,142.858833 33.086721,143.308917 33.6408807,143.308917 L88.9606706,143.308917 C89.5148303,143.308917 89.9645697,142.858833 89.9645697,142.30425 C89.9645697,141.74875 89.5148303,141.299583 88.9606706,141.299583" id="Fill-214" fill="#DDE3E9" mask="url(#mask-86)"></path>
            </g>
            <g id="Group-219">
                <mask id="mask-88" fill="white">
                    <use xlink:href="#path-87"></use>
                </mask>
                <g id="Clip-218"></g>
                <path d="M88.9606706,144.649358 L52.489637,144.649358 C51.9345613,144.649358 51.4848218,145.098525 51.4848218,145.654025 C51.4848218,146.208608 51.9345613,146.658692 52.489637,146.658692 L88.9606706,146.658692 C89.5148303,146.658692 89.9645697,146.208608 89.9645697,145.654025 C89.9645697,145.098525 89.5148303,144.649358 88.9606706,144.649358" id="Fill-217" fill="#DDE3E9" mask="url(#mask-88)"></path>
            </g>
            <g id="Group-222">
                <mask id="mask-90" fill="white">
                    <use xlink:href="#path-89"></use>
                </mask>
                <g id="Clip-221"></g>
                <path d="M24.0710471,141.5744 C22.7447277,141.5744 21.6684672,142.651483 21.6684672,143.978817 C21.6684672,145.307067 22.7447277,146.38415 24.0710471,146.38415 C25.3982824,146.38415 26.4745429,145.307067 26.4745429,143.978817 C26.4745429,142.651483 25.3982824,141.5744 24.0710471,141.5744" id="Fill-220" fill="#DDE3E9" mask="url(#mask-90)"></path>
            </g>
            <g id="Group-225">
                <mask id="mask-92" fill="white">
                    <use xlink:href="#path-91"></use>
                </mask>
                <g id="Clip-224"></g>
                <path d="M24.0710471,142.948483 C23.5031479,142.948483 23.0415008,143.409567 23.0415008,143.978817 C23.0415008,144.548067 23.5031479,145.00915 24.0710471,145.00915 C24.6398622,145.00915 25.1015092,144.548067 25.1015092,143.978817 C25.1015092,143.409567 24.6398622,142.948483 24.0710471,142.948483" id="Fill-223" fill="#F2F2F2" mask="url(#mask-92)"></path>
            </g>
            <g id="Group-228">
                <mask id="mask-94" fill="white">
                    <use xlink:href="#path-93"></use>
                </mask>
                <g id="Clip-227"></g>
                <path d="M33.6377664,57.3502417 C29.5104218,52.3149917 26.7680185,46.1852417 27.3725563,39.3872417 C29.1156403,19.7999083 56.3161782,24.6261583 61.4382622,34.6242417 C66.5594303,44.6232417 65.4584387,69.721575 58.5667076,71.3624083 C55.8188084,72.0169083 50.024405,70.1789917 44.1603882,66.4912417 L47.3900857,92.9159917 L25.4105563,92.5034917 L33.6377664,57.3502417 Z" id="Fill-226" fill="#57331F" mask="url(#mask-94)"></path>
            </g>
            <g id="Group-231">
                <mask id="mask-96" fill="white">
                    <use xlink:href="#path-95"></use>
                </mask>
                <g id="Clip-230"></g>
                <path d="M45.7197294,41.8985417 C46.3416706,53.6419583 48.4575529,59.5489583 52.0673765,59.6167917 C57.4825697,59.717625 62.1411748,56.3635417 64.5162756,56.4084583 C66.249284,56.4405417 65.8215277,58.6029583 64.643595,60.1897083 C63.6717546,61.4987083 59.0351328,62.6912917 58.9957462,64.7482917 C58.9572756,66.8052917 62.6321328,65.2827083 62.6083176,66.501875 C62.570763,68.520375 63.1414101,72.326375 59.6405866,72.260375 C56.0994605,72.194375 45.9679563,70.712125 44.3265445,65.418375 C43.2658555,62.002875 42.6723092,54.9527917 42.542242,44.2717917 C42.3288218,44.2424583 42.1099059,44.224125 41.8873261,44.2204583 C38.8536454,44.163625 36.3475613,46.5790417 36.2898555,49.616875 C36.2614605,51.1587083 36.8696622,52.5639583 37.8726454,53.5814583 C36.5673933,55.353375 35.1064269,57.2022917 33.4384521,59.1080417 C27.3729227,55.3102917 23.0229983,44.4432083 29.2130992,34.1994583 C30.9662588,29.1559583 34.7693513,26.516875 39.2246118,25.3417083 C42.842679,23.9052917 46.5734101,23.8062917 49.7023513,24.7660417 C55.8585613,25.411375 61.3305445,27.3959583 62.8712,28.5427083 C62.7603681,34.3855417 61.5970908,36.097875 51.9373092,35.7642083 C49.5402252,36.9742083 47.6744017,39.100875 45.7197294,41.8985417" id="Fill-229" fill="#0C174B" mask="url(#mask-96)"></path>
            </g>
            <g id="Group-234">
                <mask id="mask-98" fill="white">
                    <use xlink:href="#path-97"></use>
                </mask>
                <g id="Clip-233"></g>
                <polygon id="Fill-232" fill="#191847" mask="url(#mask-98)" points="16.6601462 168.436125 47.6793479 285.663125 70.2963899 372.060792 87.9644655 372.391708 66.0133311 169.361042"></polygon>
            </g>
            <g id="Group-237">
                <mask id="mask-100" fill="white">
                    <use xlink:href="#path-99"></use>
                </mask>
                <g id="Clip-236"></g>
                <path d="M7.78049328,168.269658 C5.88810672,228.354408 2.65474538,261.084908 1.74610672,266.529908 C0.838384034,271.975825 -12.0043807,306.482825 -36.7803555,370.052742 L-18.4775151,370.396492 C12.6882412,309.549992 30.0952664,275.128242 33.7417286,267.130325 C37.3881908,259.131492 48.7892244,226.554075 66.1138126,169.363242 L7.78049328,168.269658 Z" id="Fill-235" fill="#2F3676" mask="url(#mask-100)"></path>
            </g>
            <g id="Group-240">
                <mask id="mask-102" fill="white">
                    <use xlink:href="#path-101"></use>
                </mask>
                <g id="Clip-239"></g>
                <path d="M-38.7254101,386.519558 L-37.4494689,367.289725 L-18.2169227,367.650892 C-9.21846891,374.237142 2.58925378,379.653725 17.2071613,383.901558 L17.1384639,387.567308 L-17.6618471,386.914642 L-29.5336874,384.858558 L-29.5675782,386.690975 L-38.7254101,386.519558 Z" id="Fill-238" fill="#191847" mask="url(#mask-102)"></path>
            </g>
            <g id="Group-243">
                <mask id="mask-104" fill="white">
                    <use xlink:href="#path-103"></use>
                </mask>
                <g id="Clip-242"></g>
                <path d="M67.5079134,388.511383 L68.7838546,369.28155 L88.0164008,369.6418 C97.0148546,376.228967 108.822577,381.64555 123.440485,385.892467 L123.371787,389.559133 L88.5714765,388.906467 L76.6996361,386.850383 L76.6657454,388.6828 L67.5079134,388.511383 Z" id="Fill-241" fill="#191847" mask="url(#mask-104)"></path>
            </g>
            <g id="Group-246">
                <mask id="mask-106" fill="white">
                    <use xlink:href="#path-105"></use>
                </mask>
                <g id="Clip-245"></g>
                <path d="M-30.7956143,142.366675 L-14.6196479,145.027758 C-32.738379,182.507508 -42.4476227,202.325842 -43.7455471,204.484592 C-46.6665639,209.341092 -43.4991521,217.954092 -42.2827487,222.505342 C-48.8923622,224.281842 -46.6033622,214.156342 -54.9633874,216.536008 C-62.5933874,218.707592 -68.9520261,223.836342 -76.3493706,217.457258 C-77.2598412,216.673508 -77.9907824,214.150842 -75.0267151,212.743758 C-67.6440261,209.241175 -56.7770008,202.781425 -55.0613958,200.357758 C-52.7220176,197.052258 -44.6331185,177.721592 -30.7956143,142.366675 L-30.7956143,142.366675 Z M94.1971588,154.862675 L121.403192,178.836258 C129.107386,181.668758 135.467856,184.906425 140.481856,188.550175 C141.631394,189.801425 142.938478,192.246175 137.786167,191.386342 C132.63294,190.525592 127.174697,189.853675 126.301781,191.560508 C125.428865,193.267342 128.380108,195.665342 126.721293,197.924925 C125.614806,199.432842 121.411436,195.033758 114.110268,184.727675 L86.3519067,170.206758 L94.1971588,154.862675 Z" id="Fill-244" fill="#B28B67" mask="url(#mask-106)"></path>
            </g>
            <g id="Group-249">
                <mask id="mask-108" fill="white">
                    <use xlink:href="#path-107"></use>
                </mask>
                <g id="Clip-248"></g>
                <path d="M38.238116,77.4623667 L48.3513008,74.3246167 C61.3470319,108.664783 81.0641244,142.02595 114.515217,170.5187 L105.842847,184.866367 C76.3139227,166.70445 48.3064185,152.501617 37.3322252,125.874283 C33.6482084,116.9377 37.7251748,88.0562833 38.238116,77.4623667" id="Fill-247" fill="#4766FA" mask="url(#mask-108)"></path>
            </g>
            <g id="Group-252">
                <mask id="mask-110" fill="white">
                    <use xlink:href="#path-109"></use>
                </mask>
                <g id="Clip-251"></g>
                <path d="M1.92151429,172.743725 C30.6553798,176.338892 53.3173042,176.763308 69.9072874,174.018808 C71.962716,173.678725 72.3501697,170.252225 71.443363,167.905558 C57.3301529,131.356225 47.7784555,99.5158083 48.2510941,74.3221417 C45.5114387,75.6403083 40.7566571,75.756725 33.9894975,74.6713917 C15.2653126,100.292225 6.32548067,129.924392 1.92151429,172.743725" id="Fill-250" fill="#FFFFFF" mask="url(#mask-110)"></path>
            </g>
            <g id="Group-255">
                <mask id="mask-112" fill="white">
                    <use xlink:href="#path-111"></use>
                </mask>
                <g id="Clip-254"></g>
                <path d="M29.4962244,72.4098833 L37.0969134,72.5519667 C38.6714597,83.0019667 41.6126277,224.153967 57.9800311,270.617967 L-35.2534395,268.868967 C-32.4414227,226.63905 -15.5473387,176.164633 1.40078739,133.9778 C-13.1264395,146.79005 -25.9893555,168.71855 -37.1888765,199.76605 L-54.5684227,194.951717 C-40.5349017,139.199133 -13.0687336,98.54405 27.8337454,72.9828 C27.9244261,72.78205 28.0160227,72.5822167 28.1057874,72.3842167 L28.7790227,72.3961333 C29.0290815,72.2412167 29.2800563,72.0881333 29.5319471,71.9341333 L29.4962244,72.4098833 Z" id="Fill-253" fill="#4766FA" mask="url(#mask-112)"></path>
            </g>
        </g>
        <g id="Group-300" transform="translate(-41.000000, -51.000000)">
            <path d="M313.257913,376.973751 C312.87091,376.690428 311.950863,376.590486 311.523699,376.505214 C309.745672,376.153123 307.914706,376 306.101996,376 C300.514173,376.008252 294.834163,376.560228 289.339441,377.513807 C285.850018,378.118964 281.632225,380.15724 278.161058,379.050537 C272.113212,377.12229 266.002387,377.216731 260.264874,379.970191 C255.019331,382.487091 251.037939,387.266908 248.714091,392.431824 C248.363597,393.212109 246.941541,396.082016 246.538108,398.015765 C246.366512,398.411867 246.201305,398.809803 246.051615,399.214158 C245.629014,400.362121 245.249313,401.529339 244.896993,402.700224 C244.745478,403.199019 244.366689,404.301137 244.817584,404.513859 C244.098342,405.847036 243.461246,407.220557 242.930029,408.63809 C241.386577,412.762321 239.698913,417.287239 239.15583,421.6572 C238.955939,423.276451 238.947724,424.903954 239.134836,426.525956 C239.227024,427.32733 239.188688,428.939246 239.729033,429.548986 C240.877266,430.84182 241.466899,429.030936 241.337289,428.169047 C240.3497,421.597601 242.258249,415.425925 244.519117,409.24783 C245.982247,405.252883 248.385503,401.597189 251.077187,398.288085 C253.255908,395.608894 255.592534,393.499099 258.579948,391.723058 C262.231839,389.550914 266.135647,387.795044 270.003859,386.033673 C272.548591,384.87379 275.096061,383.746916 277.711987,382.748408 C278.292493,382.525601 279.207976,381.956204 279.852373,381.95437 C281.216927,381.948869 283.149207,382.959296 284.466297,383.335226 C288.798183,384.573046 293.186659,386.157455 297.663672,386.789201 C300.536079,387.194472 303.22685,386.737855 305.912145,385.777857 C306.186881,385.678831 306.647817,385.426683 307.21098,385.06634 C309.205327,384.295224 311.091058,383.326057 312.733998,381.926863 C313.680514,381.119988 314.538494,380.079303 315.322542,379.125723 C315.557117,378.840566 315.660257,378.514149 315.663908,378.203319 C315.84098,378.109794 315.958725,378.000683 315.985194,377.873233 C316.180521,376.935241 314.398844,376.91782 313.257913,376.973751" id="Fill-257" fill="#7189FB"></path>
            <path d="M106.817488,452.313679 C105.221487,453.083775 103.644626,453.883243 102.089641,454.735947 C100.904717,455.385802 98.9268057,456.028313 98.2586908,457.283046 C97.565966,458.587344 98.4063506,460.166086 99.1163935,461.225312 C102.865311,466.828011 107.560344,471.135591 114.097479,473.23385 C124.162041,476.464764 133.704326,475.970948 143.823577,472.921773 C150.931298,470.778538 156.344578,466.384679 158.970551,459.32715 C165.670841,464.22584 171.848853,470.243418 176.715244,476.977855 C179.115171,480.300557 181.032014,483.803162 182.679058,487.571032 C183.734552,489.985039 184.729888,492.41924 185.602174,494.907594 C185.980439,495.988849 186.197371,497.797978 187.060542,498.575416 C188.074108,499.4887 189.716595,498.833339 189.968164,497.516191 C190.175981,496.42025 189.310987,494.882812 188.977385,493.865808 C188.422294,492.176921 187.852619,490.493541 187.226432,488.829437 C186.212866,486.136396 185.140054,483.463549 183.893149,480.870556 C181.089437,475.04665 177.007829,469.810182 172.600824,465.12352 C164.146846,456.131115 154.140619,449.342523 142.03981,446.064797 C134.598487,444.050065 127.686734,445.11388 120.36755,447.425086 C115.811973,448.863393 111.13608,450.231025 106.817488,452.313679" id="Fill-259" fill="#DDE3E9"></path>
            <path d="M126.427991,383.882491 C125.622835,383.591193 125.482208,382.175134 126.473029,382.619892 C127.274509,382.981947 127.270832,382.917623 127.995106,382.607946 C128.584267,382.35708 129.154127,381.935295 129.729502,381.639402 C130.950105,381.010859 132.196443,380.475128 133.516312,380.090099 C136.34539,379.265826 139.270977,378.932257 142.201159,379.011285 C147.315191,379.150961 152.666358,379.802477 157.398033,381.711078 C164.92294,384.746278 172.0324,390.077864 177.279706,396.074749 C180.528826,399.788114 183.020584,403.79829 183.175917,408.849604 C183.254043,411.373883 182.854222,413.95146 181.750348,416.276333 C181.462661,416.88374 180.992986,417.444283 180.742064,418.063636 C180.35603,419.014721 180.420369,418.732612 181.216334,419.592723 C182.087668,420.53278 182.954407,421.473756 183.818388,422.419327 C186.080363,424.893065 188.336824,427.407236 190.314789,430.111624 C190.966452,431.000222 191.556532,431.930171 192.091465,432.892282 C192.496801,433.620069 194.278072,436.298727 193.962811,437.312298 C193.43615,438.997601 192.262423,437.13954 191.974736,436.462295 C191.723814,435.867752 191.447156,435.282399 191.150277,434.708991 C190.402107,433.266284 189.510552,431.908117 188.525246,430.613355 C187.459976,429.215675 186.297278,427.886914 185.140095,426.560909 C184.061038,425.325878 182.959921,424.109225 181.848695,422.901761 C181.231959,422.230029 180.611548,421.561973 179.990217,420.893916 C179.778817,420.665105 179.513189,420.122941 179.30087,420.46478 C178.029715,419.018396 176.379879,417.808176 174.917545,416.549253 C173.128002,415.007301 171.316399,413.478215 169.399097,412.086967 C168.016727,411.084423 166.596673,410.126906 165.113199,409.268633 C164.246461,408.766901 163.353068,408.323981 162.431182,407.923331 C161.923823,407.704627 160.079131,406.642353 159.5635,406.83257 C159.78501,406.750786 161.506538,408.329494 161.748269,408.501333 C162.713354,409.192362 163.714286,409.819067 164.729004,410.437502 C166.612298,411.585235 168.422982,412.826699 170.150025,414.187623 C169.908294,414.487191 168.299819,414.111352 167.853122,414.088379 C166.851272,414.038757 165.846664,414.051622 164.845733,414.145352 C163.082844,414.308002 160.941274,414.544165 159.355777,415.128599 C159.823614,414.955842 161.187601,415.318816 161.751027,415.346384 C162.651773,415.390492 163.56171,415.397843 164.466133,415.351897 C165.298863,415.308708 166.12516,415.206707 166.953295,415.087248 C167.779592,414.967788 169.167476,414.462381 170.015832,414.614003 C170.067303,414.623192 170.169326,415.03395 170.374292,415.078977 C170.579258,415.124923 171.042499,414.91449 171.092132,414.929193 C171.82192,415.146978 172.679467,416.243252 173.248408,416.727524 C174.725447,417.982771 176.184105,419.260073 177.650115,420.529104 C178.103245,420.922403 178.589464,421.126404 178.497552,421.61527 C178.400124,422.13538 177.291655,422.844788 176.877128,423.173762 C175.340344,424.396847 173.63628,425.242256 171.700595,425.611662 C168.072794,426.305449 164.559884,425.92042 161.113151,424.813119 C147.908948,420.572294 135.782883,413.579296 128.489597,401.712336 C125.470259,396.799779 121.274437,388.948508 126.427991,383.882491 M180.340405,410.84826 C180.306397,410.878584 180.097755,412.530806 180.008599,413.020592 C179.822016,414.062649 179.594991,415.095518 179.344069,416.112765 C179.881759,414.388867 180.331213,412.752267 180.340405,410.84826 M166.848514,409.385336 C166.723513,407.944466 166.437664,406.510029 165.832877,405.176673 C165.680302,404.839428 164.461537,402.430933 164.179365,402.534772 C163.524026,402.776448 166.822779,408.936902 166.848514,409.385336" id="Fill-261" fill="#7189FB"></path>
            <path d="M204.178606,381.159025 C206.797143,380.837686 209.593052,380.951207 212.02873,381.985716 C217.208203,384.188394 218.679302,390.314881 218.608901,395.294253 C218.5321,400.65447 217.395634,406.508139 221.465154,410.826525 C223.335799,412.812231 225.662676,414.331036 227.500406,416.353362 C229.46248,418.513928 231.003064,420.986678 232.143188,423.640695 C234.236921,428.516616 235.264587,434.251271 233.349142,439.367051 C231.664099,443.870367 227.422691,447.93516 228.339727,453.056434 C229.295164,458.398342 234.674867,462.482361 238.036725,466.462013 C241.842929,470.965328 245.347416,476.72104 245.922507,482.625976 C246.475654,488.28556 244.014376,494.009229 240.238344,498.286417 C232.694507,506.835301 221.355439,511.025517 209.921284,510.999883 C205.067299,510.988897 199.571481,510.769179 195.382188,508.157274 C194.087548,507.349808 193.404571,506.444385 192.633821,505.18558 C191.944444,504.055861 191.031979,503.320719 189.977799,502.521493 C187.65915,500.766491 185.985079,498.40177 184.91627,495.754161 C180.76812,485.470416 184.083348,472.748711 189.890941,463.616658 C191.266953,461.453345 192.393362,459.371512 191.725928,456.792565 C191.027408,454.101013 189.313107,451.672207 187.796294,449.358754 C186.297767,447.071849 184.587124,444.890227 183.415914,442.417478 C182.188932,439.827545 181.843329,437.114936 182.060931,434.279651 C182.467791,428.955138 184.763583,424.040766 188.012982,419.758085 C191.144437,415.632868 194.819897,411.686174 194.828126,406.281097 C194.837269,400.55285 191.012779,395.456295 192.64205,389.632837 C193.316799,387.220511 194.671782,384.74593 196.855115,383.300365 C198.949761,381.913392 201.715499,381.460222 204.178606,381.159025" id="Fill-263" fill="#DDE3E9"></path>
            <path d="M202.26005,391.076259 C202.309142,390.30697 203.215521,389.845946 203.929169,390.047187 C204.867366,390.311544 204.850093,391.194259 204.824638,391.980012 C204.749183,394.398559 205.096461,396.747587 205.674653,399.093871 C206.874673,403.971213 209.0938,408.465284 210.851102,413.150533 C212.607495,417.831209 213.432055,422.66373 212.401128,427.61791 C211.430203,432.288523 209.904723,436.836563 208.910161,441.51358 C208.034692,445.635355 207.101949,449.981239 208.436517,454.092952 C209.720175,458.050076 212.558404,461.271757 214.602074,464.847438 C218.833054,472.250351 220.710358,480.463716 220.961271,488.91491 C221.077637,492.839104 220.973089,496.799887 220.068529,500.648157 C219.547611,502.865464 218.847599,505.860291 216.960295,507.389721 C216.090281,508.095893 214.601165,508.339211 213.869335,507.295503 C213.181141,506.314912 213.784788,504.797375 214.002973,503.753667 C214.948444,499.23124 215.138447,494.610022 214.912079,490.018075 C214.692985,485.570656 214.171158,481.130554 212.779316,476.883461 C211.488386,472.940973 209.526535,469.400966 207.218315,465.952432 C204.865548,462.438953 202.420053,458.917241 201.447309,454.752473 C200.460929,450.523674 201.262761,446.220782 202.335506,442.073395 C203.47007,437.685433 204.956459,433.423704 206.492848,429.155571 C207.990146,424.995378 208.521064,421.060207 207.694686,416.707005 C206.061932,408.105795 201.69095,400.033299 202.26005,391.076259" id="Fill-265" fill="#C5CFD6"></path>
            <path d="M273.027194,391.449148 C276.264507,392.434477 279.48081,394.025107 281.789131,396.517733 C286.697168,401.820747 285.190868,409.835247 282.48245,415.689532 C279.564849,421.989779 275.145515,428.322993 277.637442,435.550878 C278.782924,438.874991 280.707591,441.884091 281.794612,445.232929 C282.95471,448.812532 283.455288,452.538652 283.392259,456.273013 C283.273509,463.131858 281.45389,470.451317 276.512055,475.504335 C272.162144,479.953884 265.048094,482.55182 263.420303,489.088327 C261.724002,495.905048 265.872951,503.539519 267.715406,509.999103 C269.800842,517.308489 270.871421,525.942941 268.431561,533.228518 C266.094009,540.210986 260.192125,545.699893 253.511969,548.793241 C240.16262,554.974443 224.664807,554.022996 211.279833,548.035014 C205.597179,545.492938 199.272361,542.36937 195.740913,537.096576 C194.649324,535.467486 194.326872,534.038942 194.088458,532.147952 C193.875621,530.453845 193.194178,529.109548 192.379369,527.614155 C190.588068,524.330334 189.87374,520.66099 190.018067,516.971499 C190.579847,502.645763 201.175104,489.32367 212.796181,481.547261 C215.550272,479.704805 217.969122,477.829382 218.544604,474.430179 C219.14749,470.882627 218.418546,467.117131 217.861334,463.588809 C217.311429,460.103527 216.457341,456.631065 216.388831,453.095418 C216.317581,449.392191 217.3434,446.003061 219.091769,442.763196 C222.378409,436.676314 227.660052,432.059186 233.727273,428.686539 C239.570696,425.438432 245.96037,422.683905 248.820423,416.294832 C251.852207,409.522982 250.057252,401.502987 255.03928,395.461893 C257.100966,392.960108 259.993903,390.739454 263.316168,390.167121 C266.501414,389.617681 269.981708,390.52151 273.027194,391.449148" id="Fill-267" fill="#DDE3E9"></path>
            <path d="M266.955872,403.740489 C267.413143,402.857193 268.713138,402.789669 269.442226,403.401953 C270.403131,404.2086 269.922224,405.242457 269.483135,406.157691 C268.136776,408.973652 267.319507,411.932876 266.774963,415.007987 C265.639513,421.400932 265.894967,427.876914 265.511332,434.336472 C265.128606,440.790554 263.576794,446.933475 259.794081,452.243288 C256.227731,457.250152 252.075929,461.820843 248.479579,466.822232 C245.309591,471.230499 241.957786,475.875103 241.377788,481.433114 C240.819608,486.783077 242.46142,492.082852 242.9896,497.38354 C244.083232,508.354476 242.004149,519.043451 237.89871,529.159379 C235.991445,533.856907 233.807817,538.480523 230.74692,542.551166 C228.98329,544.895368 226.606935,548.065378 223.603311,548.881149 C222.217861,549.256185 220.350596,548.761613 220.03787,547.14102 C219.743325,545.621715 221.238774,544.146209 222.037862,543.028402 C225.49694,538.183049 228.125111,532.823962 230.250558,527.28055 C232.309641,521.911425 234.009634,516.390826 234.593268,510.64119 C235.135085,505.305828 234.685086,500.090915 233.780544,494.803002 C232.85873,489.414714 231.831461,483.967115 232.862366,478.537765 C233.908726,473.021729 237.086895,468.359788 240.499609,464.02452 C244.110505,459.438317 248.066853,455.186087 252.085019,450.951194 C255.99955,446.824888 258.66954,442.454946 259.968626,436.87686 C262.536798,425.857561 261.62771,414.021579 266.955872,403.740489" id="Fill-269" fill="#C5CFD6"></path>
            <path d="M173.1837,433 C178.581547,433 183.325609,435.854318 186.595449,439.904252 C190.42293,444.643789 191.195752,450.433715 192.750551,456.08298 C193.523373,458.895282 194.853834,461.685663 197.185118,463.596457 C199.304883,465.333709 201.996023,465.680794 204.533332,466.530239 C209.605202,468.226389 213.700972,472.312858 215.318037,477.299008 C217.291296,483.380303 215.201748,489.514574 215.560689,495.678073 C215.892159,501.338299 221.486874,504.870346 225.988285,507.583089 C230.42743,510.259298 234.42614,512.76379 235.763011,517.976459 C237.180461,523.505158 237.655692,529.675964 235.692505,535.137073 C232.422665,544.2307 222.855794,548.234965 213.610322,548.856065 C205.220081,549.419621 194.670701,548.534554 188.370008,542.459653 C184.599299,538.823481 183.234042,533.739599 183.40344,528.681291 C183.508742,525.536519 184.133225,522.419147 184.940842,519.379413 C185.513133,517.225659 186.28687,515.080126 186.507545,512.854215 C187.092655,506.930935 181.604158,505.793775 176.933349,504.167956 C170.997091,502.100973 166.841802,498.19718 163.951963,492.758906 C161.260823,487.695118 160.131807,482.010231 161.74521,476.435863 C162.568393,473.588852 164.063674,471.005809 166.090041,468.809126 C166.982815,467.841855 168.240023,467.036253 169.044893,466.019659 C169.796654,465.070655 169.63275,463.842157 169.374533,462.730572 C168.175927,457.59828 164.444591,453.348316 163.110466,448.225158 C161.905451,443.599794 162.617839,437.845489 166.856453,434.861472 C168.687784,433.57269 170.945814,433.014614 173.1837,433" id="Fill-271" fill="#C5CFD6"></path>
            <path d="M180.081053,446.583854 C185.847602,452.64374 187.41501,460.86748 187.87471,468.837131 C188.133175,473.306 187.864556,478.019851 189.195653,482.354846 C190.333824,486.065091 193.003403,488.901052 195.755136,491.581281 C201.293682,496.977257 207.471929,502.462482 209.091953,510.272758 C210.042737,514.855467 209.401189,519.588443 210.714747,524.121062 C211.908304,528.241129 214.012028,532.288338 216.56899,535.767262 C218.629328,538.568616 221.31183,540.713345 223.562326,543.325271 C224.250029,544.123055 225.234044,545.296054 224.949732,546.421696 C224.618342,547.738587 222.917085,548.156604 221.710606,547.949872 C218.895179,547.466284 216.525604,544.814287 214.684961,542.887218 C211.993228,540.06765 209.707655,537.035886 207.84855,533.635283 C205.784519,529.857645 204.122955,525.849596 203.413098,521.612958 C202.676472,517.216946 203.042939,512.634237 201.361067,508.415814 C198.529948,501.316805 191.663998,497.126613 186.699615,491.594031 C180.514906,484.699932 181.437074,476.118282 182.070314,467.636811 C182.418319,462.976691 182.764479,457.71368 180.377366,453.457917 C179.466275,451.834116 177.434552,450.3196 177.043161,448.472674 C176.684079,446.781479 178.641955,445.072071 180.081053,446.583854" id="Fill-273" fill="#AFB9C5"></path>
            <path d="M187,546 C187,580.778052 192.653603,599 222.5,599 C252.346397,599 258,580.778052 258,546 L187,546 Z" id="Fill-275" fill="#4766FA"></path>
            <path d="M181.501859,487 C180.280776,487 179.06338,487.023759 177.84414,487.087724 C176.914274,487.135241 175.49321,486.944259 174.70803,487.518119 C173.890596,488.115739 173.946812,489.337477 174.073989,490.199182 C174.749501,494.760826 176.39635,498.805265 179.841186,502.037344 C185.146677,507.012935 191.229052,509.541395 198.425609,510.667185 C203.481353,511.458528 208.148194,510.359238 211.869502,506.795453 C214.588139,511.799372 216.651539,517.336945 217.686465,522.925691 C218.196094,525.683512 218.352761,528.407522 218.263369,531.216516 C218.20531,533.014856 218.104858,534.808628 217.910407,536.598744 C217.826544,537.377294 217.42566,538.555171 217.733465,539.289859 C218.093799,540.153391 219.309353,540.236546 219.854924,539.50003 C220.308337,538.887791 220.226317,537.685242 220.318474,536.959692 C220.473299,535.755315 220.616142,534.550025 220.719358,533.340166 C220.885241,531.381912 221.008732,529.418175 220.999516,527.452611 C220.979242,523.036259 219.988552,518.601632 218.633841,514.408245 C216.035007,506.365057 211.817894,499.216471 205.259987,493.607622 C201.227188,490.158975 196.611955,488.762703 191.376504,488.01248 C188.116904,487.546447 184.803852,487 181.501859,487" id="Fill-277" fill="#7189FB"></path>
            <path d="M200.55511,519 C187.580175,519 178.841897,529.499747 174.710498,540.413143 C173.152489,544.526849 172.787714,549.043271 172.187014,553.362891 C171.994645,554.747794 172.066329,556.860681 171.505555,558.095249 C171.302297,558.542609 170.835893,558.703877 171.059114,559.314327 C171.194316,559.683331 171.459278,559.909289 171.85672,559.983089 C172.672474,560.133424 173.826688,559.241438 174.525388,558.889745 C180.330036,555.966872 184.142937,551.447717 187.254417,545.919041 C189.182646,542.491407 191.139004,538.934395 192.284144,535.17238 C192.983751,532.874536 193.391174,530.45369 193.630728,528.069289 C193.725098,527.130835 193.815838,526.168692 193.810394,525.224772 C193.80495,524.287229 193.370304,523.79158 193.058158,522.976128 C197.388279,521.330645 202.274636,520.881463 206.660108,522.587991 C210.715286,524.164228 214.085375,527.211925 215.971863,531.041362 C216.46186,532.036305 216.840247,533.085915 217.115189,534.157393 C217.295762,534.858044 217.303929,535.768253 217.637853,536.403303 C218.448162,537.940363 220.15317,536.911708 219.98893,535.48125 C219.532507,531.489633 217.257652,527.481616 214.351244,524.706345 C210.684434,521.205822 205.715503,519 200.55511,519" id="Fill-279" fill="#7189FB"></path>
            <path d="M473.115613,384.549769 L500.30819,388.072961 C510.728335,384.17861 515.955198,383.077377 515.986964,384.767378 C516.035974,387.303323 512.715069,387.562381 512.479093,389.281585 C512.244025,391.001731 516.491589,393.316299 520.613904,395.334126 C524.737127,397.352896 522.568872,398.495578 521.114899,398.832825 C515.688364,398.954347 509.503984,398.081085 502.559943,396.213982 L471,400 L473.115613,384.549769 Z" id="Fill-281" fill="#57331F"></path>
            <path d="M400,338.56201 C408.130177,331.405134 415.685391,324.113204 424.462058,318 C440.549098,336.764063 419.538651,359.012855 447.079099,375.807169 C462.548994,384.174009 479.907921,384.642559 497,387.070752 C496.841358,391.230744 496.961486,395.208829 496.347092,399.459775 C481.895991,403.45164 435.933805,405.862377 423.976044,396.585999 C404.859216,381.75684 402.981187,360.635325 400,338.56201" id="Fill-283" fill="#7189FB"></path>
            <path d="M345.775929,389.849177 C345.775929,389.849177 332.038958,381.036185 338.685293,372.604468 C345.332537,364.172751 353.308139,357.959523 345.775929,351.747206 C338.24281,345.533979 322.493312,341.540151 336.7927,330.00182 C351.092997,318.463489 369.26116,320.238827 367.930985,330.00182 C366.601718,339.764813 347.252387,336.204128 358.326281,348.037287 C369.706369,360.197122 344.446662,362.841475 347.105196,372.161316 C349.76373,381.480247 364.988971,376.530958 361.28465,387.437775 C357.580329,398.343681 345.775929,389.849177 345.775929,389.849177" id="Fill-285" fill="#FFFFFF"></path>
            <polygon id="Fill-287" fill="#4766FA" points="362.468089 414 341.683661 414 337 386 366 386"></polygon>
            <path d="M367.338528,407 L360.661472,407 C359.191368,407 358,405.78512 358,404.285087 L358,395.713996 C358,394.215797 359.191368,393 360.661472,393 L367.338528,393 C368.808632,393 370,394.215797 370,395.713996 L370,404.285087 C370,405.78512 368.808632,407 367.338528,407 Z" id="Stroke-289" stroke="#4766FA" stroke-width="3"></path>
            <path d="M356,200 C372.016274,200 385,207.387653 385,216.5 C385,225.613256 372.016274,233 356,233 C339.983726,233 327,225.613256 327,216.5 C327,207.387653 339.983726,200 356,200" id="Fill-291" fill="#FFFFFF"></path>
            <path d="M390,228 C390,207.565686 374.778108,191 356,191 C337.221892,191 322,207.565686 322,228" id="Fill-293" fill="#C9CED4"></path>
            <mask id="mask-114" fill="white">
                <use xlink:href="#path-113"></use>
            </mask>
            <g id="Clip-296"></g>
            <polygon id="Fill-295" fill="#C9CED4" mask="url(#mask-114)" points="354 211 359 211 359 87 354 87"></polygon>
            <path d="M285,238 C306.539012,238 324,247.178533 324,258.5 C324,269.822378 306.539012,279 285,279 C263.460988,279 246,269.822378 246,258.5 C246,247.178533 263.460988,238 285,238" id="Fill-297" fill="#FFFFFF" mask="url(#mask-114)"></path>
            <path d="M331,273 C331,247.59512 310.628869,227 285.5,227 C260.371131,227 240,247.59512 240,273" id="Fill-298" fill="#C9CED4" mask="url(#mask-114)"></path>
            <polygon id="Fill-299" fill="#C9CED4" mask="url(#mask-114)" points="283 233 288 233 288 87 283 87"></polygon>
        </g>
    </g>
</svg>