<svg height="198" width="354" xmlns="http://www.w3.org/2000/svg"><g fill="none"><path d="M113.8 162.7c.4 0 .5.2.5.6V179c.2 2.9 0 5.8 0 8.7l.1 3.2v.9c0 1.3.2 2.5.3 3.8h1.2v-.4-.4c-.3-2.2-.3-4.5-.3-6.8v-6.6-5-10.8c-.1-.3 0-.4.3-.4l1-.1c3-.4 5.9-.5 8.9-.7 1.3-.1 2.4-.5 2.9-2 .3-1 .4-1 1.5-1h.7c.7.2.9.3 1 1 .2 1.5.4 2.9.4 4.3l.3 5.5c.2 3.2.7 6.3.9 9.5l.8 11.5.2 2.4h11.2l-.1-1.2c0-1.7-.2-3.3 0-5 .3-2.2.2-4.5-.1-6.7-.2-1 0-1.2.5-1.1h3.5c.5 0 .7.3.7.7l.2 1.7.1 5 .5 6.6h1.4V194l-.4-5.4c-.1-2.6-.2-5.2-.5-7.8v-.9-2.9c0-.3 0-.7-.4-1-.6 0-.9.1-.9.8l-.1 2.9c0 .3-.1.6-.5.6h-2.7c-.7-.2-1.4-.1-2-.1-1 0-1 0-1-1l.2-7v-.5c0-1.5.3-3 .4-4.4 0-1 .1-1.9.4-2.8.3-.8.4-.8 1.2-.7.8.1 1.7.4 2.6.3.3 0 .5 0 .7.2l3.8 1.9c1.2.6 2.5 1.2 3.8 1.5.7.2 1.3 0 1.7-.5.4-.4.6-.3 1-.2 1 .1 2 .2 2.3-.6.4-.9 1-1.5 1.4-2.2.2-.3.4-.6.7-.7 1-1 1-1.8.1-2.8-.5-.6-1.2-1.2-1.9-1.7l-4.5-3.3-1.9-1.4c-.2-.1-.3-.3 0-.4l2-1c.4-.1.6 0 .8.2.4.6 1 1.1 1.5 1.6.9 1 2 1.5 3.3 1.7.8.2 1.7.2 2.6.2 3.3 0 6.1-1.2 8-4.1.2-.4.4-.5.8-.3l1.5.7a53 53 0 015 2.6 6 6 0 012.3 2.3c1.9 3.3 3 6.8 3.8 10.5.6 3 .6 6 1 9 .2.4 0 .6-.5.8-1.4.3-2.7.8-4.2.8-1 .2-1.1 0-1.3-1-.3-2.8-.5-5.7-1-8.4-.1-1.2-.3-2.4 0-3.6 0-.4-.2-.8-.6-.8-.4 0-.6.2-.7.6l-.2 1c0 1.1 0 2.3.2 3.5.5 3 .7 6 1 9 .2 2.3.6 4.5.9 6.7.3 2.8.4 5.5.5 8.2l.2 1.5h1.4a174.2 174.2 0 01-.5-8.3c-.3-2-.4-4.2-.8-6.2 0-.6.1-.8.6-.8 1 0 2-.1 2.8-.3.4-.1.6 0 .7.4 0 1 0 2.1.4 3 1.2 2.8 1.8 5.7 1.7 8.7l.3 3.5h1.5l-.3-4.8c0-2.4-.5-4.8-1.5-7-.5-1.2-.6-2.4-.8-3.7 0-.4.1-.6.5-.8 1-.4 1.4-.8 1.2-2l-.7-6.8c0-.2 0-.5.2-.7.3.6.1 1.2.3 1.7.4 1.6.5 3.3.5 5l.2 4.9c.1 2.5.3 5 .3 7.6l.2 6.6h1.5l-.2-4.9c0-.5.2-.8.8-.6h1.3c3.1 0 6.2-.2 9.4-.1.8 0 1.6.2 2.4 0l6.3-.4 7.8-.4c1.5-.1 1.5-.1 1.6 1.4l.4 5h1.5a776 776 0 01-.6-5.5c-.1-1-.1-1 .9-1.4.4-.4.5-1 .4-1.5l-.2-2c-.2-3.4-.6-6.7-1-10l-.3-3.6c0-.7 0-.8.7-.8.8 0 1.6 0 2.4-.2 1.3-.2 1.3-.2 1.3 1.2l.1 3.1c0 .3 0 .5.2.7.4 1 .5 2 .5 2.9 0 5.7-.1 11.4.2 17.1h1.5c0-.9 0-1.8-.2-2.7v-8l-.1-7.5c-.1-.9-.4-1.7-.6-2.6-.1-1.3-.1-2.6-.4-3.9 0-.4.1-.6.4-.9.6-.5 1.4-.7 2.1-.8l1.4-.1c.4-.1.6.2.6.5l.7 3.1v.8c-.2 1.3 0 2.7.4 4l.7 2.6c.7 3.5 1 7.1 1.7 10.6l1 4.9h1.1l-.9-4.8-.8-4.5c-.1-1.6-.2-3.2-.6-4.8-.2-1.3-.3-2.6-.8-3.8-.5-1.4-.7-3-.6-4.4a7 7 0 00-.4-2.6l-.5-1.9.2-.2c1.5-.3 1.5-.4 1.4-1.8l-.1-.4-1-5c-.3-2-.8-4-.9-6v-.4l-.9-4c0-.4 0-.7.2-1l1.5-1.9c2-2.7 3.8-5.6 5.6-8.5 2-3 3.6-6.5 4.7-10 .6-2 .8-4 .1-6l-1-3.2c-.6-1.9-1-3.8-1.7-5.7-1.3-3.8-2.3-7.6-3.5-11.5-.5-1.4-.8-3-1.4-4.4-.5-1.4-1-2.7-1.3-4s-.8-2.9-1.4-4.2c-.6-1.5-1.1-3-1.8-4.4-1.2-2.6-2.3-5.4-4.4-7.5l-1.1-1-2.7-1c-1.9-.5-3.8-1-5.7-1.3-2.2-.5-4.4-.8-6.6-1.4a75.3 75.3 0 00-8.7-1.7c-.8-.2-.9-.2-1.1.5a.5.5 0 01-.6.4c-1 0-1.8-.5-2.3-1.4l-1.5-2.7L197 67a1 1 0 010-.8 18.5 18.5 0 00.2-7.9c-.1-.4 0-.6.3-.8.7-.5 1.1-1.3 1-2.1a8 8 0 00-1.2-3.7c-.2-.3-.6-.5-.7-.8v-1c0-1.5-.4-3-.8-4.3-.3-1.1-.8-2.1-1.6-3-.7-.7-1.3-1.4-2.3-1.9-.5-.2-.5-.3-.4-.9.1-.6 0-1.2-.2-1.8-.3-1-.8-1.8-1.5-2.5-1.1-1.2-2.5-2-3.8-3-.3-.1-.6 0-.9.1-1.5 1-3.1 2-4.7 2.8-3.2 2-6.6 3.5-9.7 5.7-1 .4-1.7 1-2.4 1.7-.6.5-1 1.1-1.1 1.8-.4 1.6.2 3 1.2 4.3.4.5.4.5 0 1-.5.9-.7 1.8-.5 2.7.3 1.1.9 2.1 1.4 3.1l2.8 4c.2.3.2.5 0 .8-.3.8-.2 1.5.1 2.3.3.8.8 1.5 1.5 2 .9.9 1.9 1.4 3 .8.3 0 .5 0 .7.2l.9 1c1 1.5 2.1 3 3.6 4.2.4.3.9.6 1.2 1 .7.9 1.3 1.8 1.7 2.8v1c-.3.3-.5.6-.9.8l-2 1.1c-.2.1-.4.2-.6 0-.5-.6-1.1-.6-1.7-.2h-.4c-1.3.6-2.7 1-4 1.7a42.8 42.8 0 01-6.8 3l-3 1.3v-3l.1-1c0-2.1.1-4.3.5-6.4.3-2.5.2-5 0-7.5-.1-1-.5-2-1.2-2.9l-2-3.1-.9-1a19.5 19.5 0 00-6.3-3 19 19 0 00-3.8-.6c-4 0-7.4 1.4-9.7 4.9-.7 1.1-1.7 2-3 2.7a9.8 9.8 0 00-3.5 3.2c-.9 1.4-1.6 2.9-2 4.4l-1.4 5c-.5 1.7-1.5 3-3 3.7l-2 1-2 1.1a8.7 8.7 0 00-3.9 5c-.5 1.6-1.3 3-2.6 4.2l-3.3 3a7.6 7.6 0 00-2.6 4.7c0 .5-.3.9-.7 1.1-1 .6-1.8 1.4-2.6 2.2-.2.3-.5.6-.8.7-.9.4-1.5 1.1-2.1 1.7-.4.3-.5.7-.6 1.2a2 2 0 01-.8 1.6c-.6.5-1 1.2-.9 2 0 .3 0 .5-.3.6-.4.3-.8.6-.9 1.1-.2 1-.4 2 .1 2.8.2.2.3.4.2.7-.4.8-.2 1.6.1 2.4.7 1.8 1.8 3.4 3 5 .2.2.3.5.3.8v1.6c0 1.9 0 3.7-.3 5.5l-.2 1.9-.1 4.3c-.1 2.6-.6 5.2-.7 7.8-.2 3-.4 6-.2 9 0 1.6.1 3.2.6 4.7a8.3 8.3 0 002.6 4.3c1.3 1.2 2.9 1.9 4.7 1.8l.7.1z" fill="#444"/><path d="M144.1 180.4h2.8c.5.1 1 0 1.6 0 .5.1.7 0 .8-.5v-.6c0-1.9.3-3.8.2-5.7l-.1-3.8.2-3a.5.5 0 01.5-.6c.4 0 .4.3.4.6 0 2.9.3 5.8.4 8.7 0 .2 0 .4.2.6l.2.6v2.9l.1 2.5v.6l.5 7.7.3 5.2H183l-.2-3.3a121 121 0 00-.7-8.3c-.2-2-.6-4-.7-6l-.3-2.5c-.1-1.9-.4-3.6-.6-5.4a45.4 45.4 0 010-4.5c0-.3.2-.4.4-.4s.4.2.4.5v.2c0 1 0 1.8.2 2.7.3 2.2.8 4.3 1 6.5.1 1.1.1 2.2.4 3.3.2.7.3.8 1 .7l1.3-.1 2.8-.7c.9-.3.9-.3.7-1.2l-.4-3.6a39.7 39.7 0 00-3.4-13.8 10 10 0 00-2.4-3.7c-.8-.7-1.8-1-2.7-1.6l-4.3-2.1-1.2-.5-1 1.6c-1.1 1.1-2.3 2-3.8 2.5-1.6.5-3.3.7-5 .5a6.6 6.6 0 01-4.2-1.7l-1.3-1.4c-.2-.2-.3-.7-.7-.7l-.9.3-2.1 1v.2l5.6 4a27.1 27.1 0 013.6 3.3c.3.5.3 1.1-.1 1.6a4 4 0 01-.4.4c-.5 1-1.3 1.6-1.7 2.6-.2.5-.6.8-1 .9-1 .2-2 .4-2.9 1l-.1.1c-1 .2-2 .1-3-.4s-1.8-1-2.7-1.2c-1-.3-2-.8-2.8-1.5-.4-.3-1-.4-1.5-.3l-1.4-.1c-.4 0-.8-.3-1.3-.4-.3 0-.6-.1-.8.2-.2.3-.3.5-.3.8-.4 1.3-.2 2.6-.4 4l-.2 3.3-.1 4c0 1.2-.2 2.4 0 3.6 0 .3 0 .4.3.4z" fill="#fff"/><path d="M115.4 165.8c0 .9.3 1.7.2 2.6-.1 3.6.4 7.2.2 10.9v11l.3 5.3h18.6v-.8c-.3-2.2-.4-4.4-.5-6.5l-.2-1.8-.3-3.7-.2-3.1-.1-1.5c-.3-1.7-.4-3.5-.6-5.2l-.1-2.5-.3-4V164l-.5-2.4c0-.2-.1-.3-.3-.3l-2.3-.3c-.3 0-.4 0-.5.3l-.8 1.9c-.2.4-.5.7-1 .6h-.3c-.8.4-1.7.3-2.5.4l-4.8.3-3.8.4c-.4 0-.5.2-.3.5.1.1.2.2.1.3z" fill="#999"/><path d="M202.2 195.6h4.4c0-1.4-.2-2.8-.1-4.3 0-.6-.2-.8-.9-.8h-2.2c-.7 0-1 .2-1 1-.2.7 0 1.5 0 2.3l-.2 1.8zM212.7 195.6l-.3-4.2c0-.7-.2-.9-.8-1h-3.7c-.6 0-.9.3-.9.9v.4l.2 3.9zM192.2 195.6h3.2v-1l.1-3c.1-.8-.1-1-1-1h-2.4v3.2l.1 1.8zM201.8 195.6v-4c0-.8-.1-1-1-1h-3.7c-.8 0-1 .2-1 1-.2 1.3-.2 2.6-.1 4z" fill="#bbb"/><path d="M228.5 171.2l.2 1.3c0 1.2 0 2.4.5 3.5v.2l.3 2.8v13l.2 3.6h7.6c-.4-2.2-.9-4.3-1.2-6.5l-.4-2c-.7-2.3-1-4.5-1.4-6.7-.3-1.4-.6-2.7-.7-4.1 0-1.3-.2-2.6-.5-4-.2-.8-.4-1.6-.4-2.5 0-.3.1-.7-.2-1l-1.7.3c-.5 0-1 0-1.4.4-.1.2-.4.3-.6.4-.3 0-.4.3-.4.6v.7z" fill="#999"/><path d="M224 188.5c-.4.3-.8.1-1.1.4l.7 6.7h5l-.2-6.4v-.5-9.5a9 9 0 00-.5-3.7l-.2-1-.1-2.8c-.1-.7-.2-.7-.8-.5-.8.2-1.6.5-2.4.4-.8-.2-1 0-.8.8l.2 2.8c-.1 2.8.3 5.6.6 8.3.1 1.3.4 2.5.3 3.8 0 .6-.2 1-.7 1.2z" fill="#fff"/><path d="M218.5 195.6h3.5l-.2-1.4-.5-3.4c0-.3 0-.8-.6-.8s-1.3 0-2 .2c-.4 0-.7.4-.7.8v1.3l.5 3.3zM217.9 195.6c-.2-1.5-.4-3-.4-4.5 0-.7-.2-.8-1-.8l-2.6.2c-.8 0-1 .1-1 1 0 1.3.1 2.7.4 4z" fill="#bbb"/><path d="M184.4 185.6c.2.3.2.7.3 1 .2 2.2.4 4.3.4 6.5v2.5h4.5a52.8 52.8 0 01-.4-6.6c-.3-2-.7-3.8-1.6-5.6a1 1 0 01-.2-.5c.1-.8-.2-1.7-.2-2.5-.3-.2-.5 0-.7 0a8 8 0 01-1.5.2c-1 0-1.2.2-1 1.2 0 1.3-.2 2.6.4 3.8zM145.4 183.8c.2 1.4.3 2.8.1 4.1-.3 2-.2 4-.2 6v1.7h4.6l-.1-3c0-.8.2-1.7.1-2.5-.2-2.4-.1-4.7-.4-7 0-.8-.2-1-.9-1l-2.6-.1c-.8-.1-.8-.1-.7.7v1.1zM188.4 182.7c0 .1 0 .3.2.5a20.7 20.7 0 011.8 8.4v1.4l.3 2.6h.5l-.1-2.5-.2-7.2-.4-10.7c0-1 0-1.8-.3-2.7a12 12 0 01-.4-2.4l-.1-.6c-.8.1-.7 0-.7.8l.2 1c.2 1.6.2 3.2.5 4.8l.1 1.8c0 .7-.2 1-.8 1.1l-.8.2c-.2 0-.3.2-.2.4.1 1 .4 2 .4 3z" fill="#fff"/><path d="M183.1 183.9c.2 2.3.5 4.6.6 7l.3 4.7h1.3v-4.2l-.3-3.5c0-1.1-.2-2.3-.7-3.3a2 2 0 01-.1-1.4v-2c-.1-.3 0-.4.3-.4 1 0 1.8-.1 2.7-.4v-.3c-.1-.5-.1-.5-.7-.4l-1.3.3-2.1.1c-.4.1-.5.2-.4.6l.4 3.2zM145.4 182l1.4.3 2 .1c.5 0 .5 0 .5.5v1.3l.3 2.3v8.5l.1.6h1.4l-.1-2.3-.1-2.6c-.3-2.2-.2-4.4-.4-6.6l-.1-2c-.1-.6-.1-.6-.7-.6l-3.5-.1c-1.1-.2-1.3 0-1 1.3.2-.2 0-.4.2-.6z" fill="#bbb"/><path d="M232.5 170.4c0 .4 0 .8.2 1.3.1.5.4 1 .4 1.5l.3 3c0 .6 0 1.1.2 1.7.5 1.9.7 3.9 1.1 5.8l.7 3.2.3 1.5.8 4.5.6 2.7h.6l-1.5-8.4c-.4-1.8-.4-3.7-.9-5.6-.3-1.6-.5-3.2-1-4.7-.4-1-.5-1.9-.4-2.8.2-1.7-.4-3.3-.7-5-.1-.4-.2-.3-.7-.2v1.5z" fill="#fefefe"/><path d="M115.4 183.6v8.7l.2 2.3.1 1h.6l-.3-6.6V181 178c.2-1.7 0-3.4 0-5.1 0-.6-.2-1.2-.1-1.9 0-1.8-.1-3.7-.3-5.5v-.2c-.3-.2-.2 0-.3.1v2.2a228 228 0 010 11c.1 1.6.2 3.3.1 5z" fill="#fdfdfd"/><path d="M230.8 149.3l-.3-.5a.5.5 0 010-.6c.8-1 .5-2-.3-3.2a1 1 0 01-.2-.7c.2-1.2-.3-2.1-1.5-2.5-.2 0-.4-.1-.4-.4 0-1.5-.8-2.2-2.3-2.5v-.1c.7-1.2 1.3-2.3 2.1-3.4 1-1.6 1.9-3.2 2.7-4.9v-.8l-1-4.4c-1-2.8-1.7-5.6-2.6-8.4-.7-2.3-1.5-4.5-2-6.9l-1.6-6c-1-3.3-1.8-6.6-2.2-10-.2-1.3-.3-2.6 0-4a5 5 0 011-1.8v-.6a.5.5 0 00-.7-.2l-.4.5c-.7 1.2-1 2.6-1 4 0 2 .3 4 .7 6l2 8c.3 1 .3 1.9.4 2.8l.4 3.1.3 2.8 1.2 7.8c-.5-.2-.8-.5-1.2-.9a20.7 20.7 0 01-3.9-5c-.5-1-.8-2.1-1.2-3.2-.4-1.4-1-2.9-1.3-4.4-.4-1.7-1.1-3.3-2-4.9-.4-.8-1-1.3-1.6-2a10.4 10.4 0 00-5.7-2.8c-1.2-.2-2.5-.2-3.8-.1-1.9 0-3.7.6-5.4 1.4-.9.5-1.7 1-2.4 1.8l-1.4 1.4c-.4.5-.6 1-.8 1.6l-1.3 4.7c-1 3.5-2.4 6.9-4.2 10a29.6 29.6 0 01-4.3 6s-.2 0-.2.2c-.3.4-.3.7.2 1l2 .8 2.2.7c1.3.4 2.6.8 4 1 .5.2 1 0 1.2-.4l.6-1.2c.2.4 0 .8 0 1 0 .8 0 1 .8 1.2 1 .3 2 .4 3 .2l2-.1a10 10 0 01-2.3 2.4L196 134l-.5-.1a.7.7 0 00-.7 0c-1.6.6-3.2 1.3-4.7 2.1-1.1.7-2.2 1.4-3 2.4l-1 1.2c-1.2 2-2 4-2.3 6.3l-.4 3.2c-.3-.4-.4-.9-.5-1.4-.4-1.8-.8-3.5-1.4-5.3l-1-4.1-1-2.8-.4-1.3c-.3-.6-.3-1.3 0-2 .1-.6 0-1.3-.1-2v-1.1c.2-1 .2-2 0-2.9-.2-.6-.5-1-1.1-1.3-.5-.2-.7-.5-.7-1v-1.1c0-1-.3-1.7-1.1-2.2-.2 0-.3-.2-.5-.3-.5-.2-.7-.6-.7-1-.3-1.7-.8-3.4-1.2-5l-.5-2.6c0-.3 0-.5.2-.6.5-.6 1.1-1.2 1.5-2l.9-2.1a4 4 0 00-.4-3.4l-.3-.6a.9.9 0 010-.8 6 6 0 00-.1-4.6 5.9 5.9 0 00-2.4-2.8L171 94c-.6-.2-1-.8-1-1.5v-1c.5-2-.3-3.6-1.9-4.8l-2-1.8-.5-.5a148.8 148.8 0 017.1-3.2l2.2-1h.7c1.2.9 2.4 1.6 3.6 2.1.7.4 1.5.5 2.3.7 2.6.6 5.3 1.1 8.1 1a21.4 21.4 0 0017.6-9.7c.2-.3.4-.3.7-.3 1.5.2 2.8.6 4.2 1l6.8 1.3c1.8.3 3.6.8 5.4 1.4l1.8.5c1.2.6 2.2 1.6 2.9 2.7a58.4 58.4 0 015.9 13.8 44 44 0 001.3 4.1c.6 1.5 1 3 1.4 4.6l3.7 12 1.6 5.4c.4 1.2.9 2.5 1.1 3.8l.1.5c0 .8 0 1.6-.2 2.3-.6 2.8-1.6 5.4-3 7.8-1.4 2.5-2.6 5-4.3 7.4a270.6 270.6 0 01-5.2 7.1c-.2.2-.3.4-.5.3-.2 0 0-.3-.1-.5l-.1-.3z" fill="#fff"/><path d="M153.3 151.6c-1.1.6-2.3 1-3.5 1.5-.8.3-1.5.3-2.4.2l-3.7-.5c-1.4-.2-2.7-.8-4-1l-2-.4c-1.3 0-2.6-.5-3.9-.8l-1.2-.2c-.5 0-.5 0-.5-.6l-.2-6.4c-.1-3.2 0-6.3-.2-9.4l-.2-4.7-.1-5.8-.2-6.1v-3.5c.1-2 0-4-.3-6-.2-1.5-.3-3-.2-4.6.3 0 .6.1.8.3.7.6 1.6 1 2.4 1.5 1 .6 2 .8 3.1 1a18 18 0 0015-3.2c.2-.1.4-.3.6-.2.2 0 .2.3.2.5-.2 1.4 0 2.7 0 4v3.6c-.2 1.1-.1 2.2 0 3.3v3.5c-.2 2.4.1 4.7.3 7 0 .6 0 1-.2 1.4-.9 1.4-.7 2.8-.3 4.2 0 .4.2.8.4 1.3.1.4.2 1 0 1.5s-.2 1.2 0 1.7c.4.8.4 1.6.4 2.4 0 1 0 1.9.5 2.7.2.4.1.8 0 1.1 0 1.6-.2 3.2-.1 4.8v4c0 .6.1 1.4-.5 2z" fill="#ddd"/><path d="M107.7 123.5c-.2-.5 0-1-.1-1.5 0-.2.2-.3.4-.2.4 0 .8 0 1.1-.3.3-.1.6-.3.7-.6 0-.2.2-.4.4-.3 1 0 1.8-.6 2.1-1.6.1-.1.2-.3.4-.3.5-.3 1-.7 1.1-1.3l.5-.5c1.2-.5 1.6-1.3 1.1-2.5-.5-1.3-1.1-2.4-1.7-3.6l-2.4-5.3c1.2-2.3 3-4 5.1-5.3 1.2-.7 2.5-1.1 3.9-1.5h.5v4c.2 1.3 0 2.8.2 4.2a71.3 71.3 0 004.5 19.3l2.5 6 1.4 3 1.2 2.6.2.9.1 6.2.1 4.3v.7c-.5 0-.8 0-1.1-.4a3 3 0 00-.6-.6 2 2 0 00-1.4-.5l-1.4.1c-1 .3-1.8.1-2.8 0-1-.2-1-.2-1-1.2a19.5 19.5 0 00-.3-3l-.3-5a295 295 0 00-.4-3.9c-.1-1.6 0-3.2-.3-4.7v-.6c0-1.7-.2-3.3-.4-4.9l-.3-3.1-.1-1.3c-.3-2 0-4.2-.3-6.2v-3.1c0-.4 0-.8-.2-1.3 0-.3-.2-.5-.5-.4-.3 0-.4.3-.4.6l.1 1v11.3c0 1.4 0 3 .2 4.4l.1 4.4.3 8.2.1 7.4v.3c0 .3-.1.3-.3.3l-4.8-.7h-.2c-.7-.1-.8.1-.6.7a373.6 373.6 0 009.8 2c1 .2 2 .2 3.1 0 .4-.1.8-.2 1 .2l-.6 1.2a13 13 0 00-1.4 5l-.2 1.5c-.1.9 0 1.8.1 2.7.1.9.3 1.7.7 2.5h-1.4l-3.2-.2-3.6-.4a55.2 55.2 0 00-4.6-.5c-.2-.3-.6-.4-1-.4-2.5-.3-4-2-5.1-4.2a14 14 0 01-1.1-4.9c-.3-3 0-6 .2-9.1.2-1.9 0-3.7.2-5.6l.4-7.2.4-3c.3-1.6.2-3.2.2-5-.2.5 0 1-.3 1.2z" fill="#999"/><path d="M191.7 179.7l-.2-3.6a16 16 0 00-.5-4.6l-.3-1.8c0-.4.1-.6.5-.6l.4-.2h.3l2.3 1.4c.4.2.8.3 1.3.3h.5a5.9 5.9 0 002.3 0c.7 0 1.3-.2 1.8-.6 1.3-.8 2.5-.8 3.9-.3l2.7.9a11.9 11.9 0 004.8.3c2.4-.3 4.7-.8 6.8-2l2-1h.9l.2.3c.2.7.2 1.4.2 2l.8 8v.3c0 .8-.1 1-.9.8-2-.6-4-.4-6 .3-2.6 1-5.3 1-8 0-1.6-.6-3.2-.8-4.9-.9-1.5 0-2.9.4-4.2 1.1a7.6 7.6 0 01-5.2 1 2 2 0 01-1.5-1zM218.6 151.4h.2c.6.4 1.3.7 1.7 1.4l.2.2c.7 0 1.1.5 1.6.9.4.3.8.3 1.3.3 1.2 0 2.5 0 3.7-.4l.4 5.2c0 .4-.3.5-.5.7a7 7 0 01-4 1c-.5 0-1 0-1.2-.5v-1.8l-.2-2.6c0-.4-.2-.6-.5-.6-.2 0-.4.3-.4.6V159.6l-.2.1c-1-.3-2 0-2.9.6a9.1 9.1 0 01-3.7 1.5c-1 .2-2-.3-3-.7-1.5-.5-3-1.2-4.6-1.3h-.3c-.3-.1-.6-.1-.8 0a2 2 0 01-.3 0c-.8.1-1.5.4-2.3.6-1.8.4-3.4 1.2-5 1.6a3 3 0 01-1.2 0c-1.7 0-3-1.1-4.5-1.8l-.2-.2v-7.4c0-.2-.1-.6.1-.7.4-.2.6 0 .9.3.9.5 1.7 1 2.8 1.2 1.9.2 3.7 0 5.4-1l1.7-1a5 5 0 014.2-.2l1.7.6c2 .6 3.9.7 5.8-.1l1.6-.6c.8-.3 1.8-.2 2.5.3z" fill="#fff"/><path d="M191.9 147.5a13.4 13.4 0 00-.6-3c-.2-.2-.4-.3-.7-.2-.2.2-.3.4-.2.6a8.2 8.2 0 01.4 2.1v3c0 .3 0 .6-.3.6-.9.3-1.6.8-2.4 1.1-1.2.6-2.4.4-3.5-.3-.2-.1-.4-.3-.4-.6 0-.7 0-1.3.2-2 .2-1.8.4-3.5 1-5.2.2-.2.5 0 .7.1 1.2.8 2.5.8 3.8.2l3-1.1c2.1-.7 4.1-.5 6 .5 1.2.7 2.5 1 3.8.8 1 0 2-.3 2.9-.7 1.4-.6 2.9-1 4.3-1.4 1-.2 1.9 0 2.8.2l1.9.6a6.6 6.6 0 005.7-.2c.2 0 .4-.2.6.2l-1.6 1.7-2.1 2.6c-.6.9-.6 1.7-.2 2.6.1.3 0 .5-.2.6-1.5.2-2.8 1-4.3 1.3-1.2.1-2.4 0-3.5-.4l-1.8-.6a5.5 5.5 0 00-4.8.3c-1 .6-2 1.2-3.1 1.6-2.2.7-4.2.4-6-.8l-.6-.4c-.7-.4-1-.9-.8-1.6v-.3-2zM130 150.8h.3c1.6.5 3.3.8 5 1.2l2.1.4 3.7.8c1.4.4 2.7.7 4.1.8l3.2.5.7-.1 1-.5c2-.6 4-1.4 5.8-2.5.4-.2.8-.3 1.2-.2.2 0 .3.2.4.4 0 .2-.2.3-.4.3l-2.3 1.1c-.3.2-.6.3-1 .3-.3 0-.5.4-.3.7l.5.4c1 .6 1.8 1.3 2.7 2l5.2 3.8 1.4 1.3c.5.5.5.8-.3 1.2a46.7 46.7 0 00-5.5-4 57.5 57.5 0 01-4.5-3.1.4.4 0 00-.5.1v.5l.3.3c1.2 1 2.5 2 3.8 2.8a57.3 57.3 0 015.6 4c.2.3.2.5-.2.7-.5.3-.5.3-1 0a141.6 141.6 0 01-9.2-5.8c-.3-.2-.5-.2-.7 0-.1.2 0 .5.1.7l.4.3a114.5 114.5 0 009.3 6l.2.5-.5.2-.6-.1c-.5-.1-.9-.4-1.4-.4l-.2-.2c-1.3-1.1-2.8-2-4.4-2.8l-3.5-2-.3-.2-.5.1c-.1.2-.2.4 0 .5a236.6 236.6 0 007.7 4.8l.3.3c.3.4.2.6-.4.7-.2-.6-.7-.9-1.3-1.1l-4.5-2c-.7-.2-1.3-.6-2-.9-1-.4-2-.9-3.2-1-.5 0-.9-.3-1.3-.5-.4-.3-.8-.5-1.3-.5-2.3.1-4.4-.4-6.6-.7-2.3-.3-4.6-.8-7-1-1.7-.2-2.2-.8-2.1-2.6.1-1.6.3-3.3 1-4.9.1-.4.3-.8 1-.6zM220.9 160.7l.1 2.1c0 1.3.4 2.6.3 4v.2c-1.9.4-3.3 1.5-5 2.1a18.8 18.8 0 01-6.2 1.3H209c-1.6-.1-3-.8-4.5-1.3l-2-.4c-.8-.2-1.5.2-2.2.6-.8.5-1.7.7-2.7.7-1 0-2 .2-3-.3-.9-.4-1.8-.8-2.5-1.6v-6.8c0-.5.4-.2.6-.1l1.6.8c.8.5 1.8.7 2.7.7h.5c1 0 1.9-.5 2.8-.8 1.6-.6 3.3-1.1 5-1.4 1-.3 2.2 0 3.3.4 1.2.3 2.3 1 3.6 1.3l1.1.2h1c1.4-.3 2.8-.7 4-1.6.6-.5 1.5-.7 2.3-.4.2 0 .3.2.4.3z" fill="#fff"/><path d="M185.8 142.3c.8-2.3 2.4-4 4.6-5.2l4.2-2.1h.7c1.6 1 3.3 1.7 5.2 1.7 1.4 0 2.7 0 4 .2a64.8 64.8 0 0010.7-1.1c.7-.2 1.4-.5 2-1h.9c.5 0 .9.3 1.4.5 1.3.5 2.5 1.2 3.7 2 .6.4 1 1 1.3 1.6l-2.5 2.7c-1.7.2-3.3 1.3-5.1 1.1-.7 0-1.3 0-2-.4a9 9 0 00-7.3-.3l-3.1 1.1c-2 .8-3.8.5-5.6-.5-2-1-4-1-6-.4-1.2.3-2.3.7-3.4 1.2-1.1.6-2.2.4-3.2-.3-.3-.2-.6-.3-.5-.8z" fill="#fff"/><path d="M194.6 55.4c.2.3.3.6.8.5.1.4-.2.5-.3.7-.3.3-.3.6-.1.9.6 1 1.2 2 1.4 3.3 0 1.6 0 3.3-.5 4.9-.3.7-.7 1.4-1.4 2-2 1.7-4.4 3-7 3.6-.8.2-1.7.3-2.6.2-.6 0-1.2-.3-1.7-.7-1.1-1-2.3-2-3.1-3.2l-.3-.4-1-3.5c0-.5-.4-1-.8-1.3-.7-.6-1.4-1.4-2.3-2l-.3-.3-.6-1.7a16.4 16.4 0 013.8 2.7c.7.6.7.6 1.2 0 2.7-2.6 6-4 9.6-4.4.7 0 1.4 0 2.1-.2 1-.2 2.2-.3 3-1.1z" fill="#fb0"/><path d="M222.6 180.3l.5 4.2c.1 1.6.1 1.6-1.4 1.4-1-.2-2-.1-2.9.2-1.5.6-3.1 1-4.7 1.3-1 .2-2 .1-3-.2a24 24 0 00-7-1 5 5 0 00-2.1.5c-1.1.5-2.3.7-3.5 1-1.6.4-3 .3-4.6-.1-.7-.2-1.3-.5-1.7-1l-.3-1c0-.5.1-1 0-1.6v-.6c-.2-.7 0-1.5-.1-2.2 0-.3.1-.4.4-.2a7.6 7.6 0 006-.4c2.6-1.6 5.4-1.5 8.1-.7l4.2 1c2 .3 4-.2 5.8-.9 2.2-.8 4.2-.5 6.3.3zM130 94.8l1.6-.5c.9-.2 1.8-.5 2.6-.9.7-.2 1.2-.7 1.6-1.4l2-4c.1-.3.3-.3.6-.2 1.5.4 3 .7 4.4.8 1.7.2 3.4.2 5.2-.1l1.6-.3-.1.5-2 4.4-.5 1.2c-.2.5 0 .9.4 1.1.3.3.7.5 1 .6l2.9.6-.1.2c-.6 1-1.3 2-2.3 2.6-.4.4-1 .7-1.5 1a8.5 8.5 0 01-6.2 1c-1.8-.4-3.5-1-5-1.9l-1.4-.7c-1-.6-1.9-1.3-2.6-2l-2.1-2zM194.6 55.4c-.3.5-.8.8-1.3 1l-3.1.4c-1.4 0-2.8.4-4.2.8a15 15 0 00-6.3 4c-.4.3-.4.3-.9 0l-2-1.8-.2-.1c-.7-.4-1.3-.7-1.8-1.3v-.6a7 7 0 00.2-4.3c-.1-.4-.4-.9-.3-1.2.2-.4.8-.6 1.2-.8 1.2-.5 2.3-1.2 3.4-1.9l7.8-4.2 1.9-1c.5.9 1.2 1.8 1.6 2.7L193 52l1.6 3.5z" fill="#fff"/><path d="M158.6 80.5l.5 1c-.3.4-.8.3-1.2.3h-2.2c-.4 0-.7.2-.8.7-.1 1-.4 1.9-1.2 2.6-.6.5-1.3 1-2.1 1.3-1.5.5-3 .7-4.5.7-1.7 0-3.4-.6-4.7-1.7l-1-1A4.6 4.6 0 01140 82a42.8 42.8 0 01-.8-6.4c.4-.5 1-.7 1.3-1.2.4-.5.6-1 .4-1.6-.3-1 0-2-.2-2.9v-.2c.3-.1.7-.2 1-.1.2.2.3.6.3 1l.3 2.2c0 .5.2.6.6.6 3.8.1 7 1.7 9.7 4.2a5 5 0 011.3 1.8c.4.9 1 1.3 1.9 1.2.7 0 1.4-.2 2-.1h.8z" fill="#fb0"/><path d="M158.6 80.5c-1.2.1-2.4.2-3.6.1-.6 0-1-.4-1.1-.9a6.4 6.4 0 00-2.4-3l-1.2-.7c-2-1.6-4.4-2.2-7-2.5-.3-.1-.9.1-1.1-.2-.2-.2-.2-.7-.2-1.1-.1-.4-.2-.9-.1-1.3l-.2-1.4.8-.2a3.5 3.5 0 002.7-2.7l.1-.7c.2-.7.5-.9 1.2-.8 1.2.1 2.4.1 3.5-.3.7-.2 1.3-.6 1.9-1 .2-.1.3-.3.6-.3v.5c0 1.2.5 2.1 1.2 3 .5.6 1.1 1.2 1.8 1.5 1 .4 1.7 1.1 2.4 1.8.4.4.4.9.4 1.4l-.2.8c-.3 1.2 0 2.2 1.1 3h.1c.8.6.8.6.5 1.6-.2.7-.6 1.5-1 2.2-.2.4-.3.8-.2 1.2z" fill="#fff"/><path d="M170.9 118.1c-.6.1-1 .3-1.6.2-.4 0-.8 0-1-.4-.7-.8-1.4-1-2.3-1h-.9c-.3 0-.4 0-.4-.3 0-1.2-.3-2.3-.3-3.5l-.1-.7c0-.2-.3-.4-.5-.4s-.3.2-.4.4v.4l.3 3.9c0 .2 0 .4-.3.5a4 4 0 00-1.8 1.2c-.2.2-.4.4-.7.4-1.2 0-2.1.7-2.8 1.6l-.3.2v-.7l.1-.6c.3-1.1.4-2.2.5-3.3l.5-3 .3-2.3.6-3.9a18.2 18.2 0 00-.6-6.7c.6 0 1 .2 1.4.5l2.2 1.4c1.3.7 2.2 1.9 3.2 2.9.5.5.7 1.3 1 2 .2 1.1.8 2.2 1.2 3.3.9 2.2 1.6 4.4 2.2 6.6l.5 1.3z" fill="#999"/><path d="M158.2 137.5c.4-.2.4-.4.3-.8s-.1-.7 0-1c.2-.1.3.1.4.3.5 1 1 1.2 2.1.8l1.7-.6a13 13 0 018.7 1c1 .5 2 .3 2.8-.6.3-.3.5-.8 1-.7v1.3c-.1.7-.6 1-1.2 1.3-.4.2-.4.4-.2.7.4.7.6 1.5.5 2.2a11 11 0 01-2.6 3.2l-1 .9c-1 .7-2.2.8-3.4.8a13 13 0 01-3.8-.4c-.7-.2-1.3-.6-1.8-1.1l-2-2c-.3-.3-.5-.7-.6-1-.2-.5-.4-1-.3-1.5v-.3a6 6 0 01-.6-2.5z" fill="#fb0"/><path d="M175.2 136c-.3 0-.6.4-.8.7-.9 1-1.9 1.2-3.1.6a13 13 0 00-9.8-.5c-.5.3-1 .4-1.6.3a1 1 0 01-1-.7c-.1-.3-.2-.6-.5-.8v-3c0-.2.1-.4.4-.5 1.3-.7 1.6-1.8 1.6-3.2v-.5c0-.3.1-.5.4-.5 1 0 1.6-.7 1.8-1.7l.1-.4 1.2.4c.5.2 1 .2 1.5 0 .5-.3 1-.1 1.4.3l1 .8c.3.2.7.2 1.2 0 .7-.2 1.3 0 1.8.7l1.1 1.2c.6.5 1.3.8 2 .9.7.1.8.1.8.8l.5 3.5v1.5z" fill="#fff"/><path d="M196.7 117.9c.2-.4 0-.8.1-1.1.4-.1.6.2.8.4.8 1.3 2 1.4 3.2 1l1.8-.7c2.5-1 5-.7 7.3.4 1 .4 1.8.2 2.7-.3.3-.3.7-.6 1.2-.5 0 .4-.2.7 0 1.1-.3.6-.9.8-1.4 1-.4.2-.5.4-.5.8s.3.8 0 1.2l-.3.9a6.3 6.3 0 01-1.7 3l-.6.4c-2 1-4 1.2-6.2.7l-1-.2c-1.5-.3-2.4-1.3-3.3-2.4l-.4-.5c-.4-.7-.5-1.6-.4-2.5 0-.7-.2-1.4-.8-1.9-.3-.2-.5-.4-.5-.8z" fill="#fb0"/><path d="M192.1 190.7l2.7.1c.5 0 .5 0 .5.6l-.1 1.5v2.7h1v-4.4c.1-.3.2-.4.5-.4h4.5c.3 0 .5.2.4.5v2.1l-.1 1.9v.3h1v-1.8-2.5c.1-.5.1-.6.7-.6h2.5c.6 0 .6 0 .6.6l.1 4v.3h1l-.2-4.4c0-.5 0-.5.6-.5h3.4c1.1 0 1-.1 1 1 0 1.3 0 2.6.2 3.9h1a21 21 0 01-.3-4.4c0-.5 0-.5.5-.5l3.3-.2c.2 0 .3.1.4.3v.6c-.1.9 0 1.8.1 2.7l.2 1.5h1l-.2-2-.2-2.4c0-.8 0-.8.9-.9h1.6a.2.2 0 01.3 0l.1.6.2 1.7.4 2.6v.4h.8l-.3-3-.3-3.3c0-.4 0-.4-.5-.4h-.3c-1.3.2-2.6.3-4 .2h-.7l-4 .3a24.6 24.6 0 01-3.7.3h-.7l-2.8.2-2.6-.1c-3 0-5.9.2-8.8 0h-.8c-1 0-1 0-.9.8z" fill="#999"/><path d="M183 78.3l1.3-.8c.5-.4 1-.8 1.3-1.4.3-.5.4-1 .1-1.7 0-.3 0-.4.3-.4 1.6-.2 3.1-.9 4.5-1.6 1.8-1 3.6-2.1 4.7-3.9l1-1 1 1.8 1.4 2.8a3.8 3.8 0 002.8 2.1l.2.1c-.2.5-.6.9-1 1.2-2.6 1.6-5.3 3-8.3 3.6-1.8.3-3.6.3-5.4 0-1.3 0-2.5-.3-3.8-.7l-.1-.1z" fill="#fff"/><path d="M143.7 164.2c-.3 1.3-.5 2.6-.6 4l-.3 3.6v.6c0 .5 0 .5-.6.6-2 .3-4 .4-5.9.5l-1.8.3c-.5 0-.5 0-.6-.4-.2-2.4-.4-4.7-.4-7a20 20 0 00-.4-3.8c.2-.2.5-.2.7-.1l5.4.6c1 .1 1.9 0 2.8.2l1.2.2c.3.2.6.3.5.7z" fill="#ddd"/><path d="M213.8 117.1c-.5.2-.9.4-1.2.7l-1.5.6c-.3 0-.6 0-.8-.2-1.4-.7-3-1-4.5-1.2-1 0-1.9.3-2.8.6l-2.9.9c-.9.2-1.6 0-2.2-.6-.3-.4-.6-1-1-1.1-.2-.4-.2-.8-.1-1.1v-1.2l-.2-2.5c0-.3 0-.5.5-.5.7 0 .8-.1 1-1 .2-.4.2-1 .6-1.4v1.3c0 .7 0 .8.8 1 2.1.5 4.2.3 6.4 0 .4 0 .7-.4.8-.8l.2-1c.2.2.2.4.2.7 0 1 .2 1.4 1.5 1.4h2.7c.8-.2 1-.3 1-1.1V109l.1-.9h.1l.2 2v.6c.1.6.2.7.9.8.2 0 .3.2.3.5 0 1.7.2 3.4-.1 5.1z" fill="#fff"/><path d="M130.8 102c0-1.4 0-3-.4-4.4v-1c.4.2.7.6 1.1 1 2.9 2.7 6.3 4.2 10.2 5 2.3.3 4.5-.3 6.5-1.5l.9-.5c1.3-.8 2.2-2 2.9-3.3l.3-.6c.3-.4.3-.4.8-.3a.4.4 0 01.4.5v2.5c.1.7 0 1.2-.5 1.7a14.5 14.5 0 01-10.5 4.8c-2.6.2-5-.2-7.5-1-.8-.2-1.4-.7-2.1-1l-1.7-1.2c-.2-.2-.4-.3-.4-.6zM206.4 73.8v.3c-.7 1.2-1.7 2.4-2.8 3.3-1.4 1.1-2.8 2.3-4.3 3.2a20 20 0 01-7.6 2.4 25 25 0 01-8.5-.6 73 73 0 01-2.7-.6c-1-.3-1.9-.8-2.7-1.4-.5-.2-1-.4-1.3-.7 0-.2.2-.2.4-.3l3-1.2c.3-.1.5 0 .7.1a11 11 0 003.8 1.5c2.5.6 5 .7 7.4.4 1.7-.3 3.3-.7 4.9-1.5 1.2-.5 2.5-1.2 3.7-1.9a7.2 7.2 0 003-3.2c0-.3.2-.4.5-.3l2.5.5z" fill="#ddd"/><path d="M196.8 134.7c1.8-.8 3.3-2 4.4-3.6.2-.3.4-.6.4-1 0-.3.2-.3.5-.3 1.3-.1 2.7-.3 4-.8 1.1-.4 2.3-.7 3.2-1.6l.3 1.2a6.5 6.5 0 004 5l2 1-1.9.4a73 73 0 01-7.5.9l-6.3-.3c-1 0-2.1-.4-3-.9z" fill="#fff"/><path d="M130.8 102c.2.4.5.6.8.7l2.6 1.7.7.3c1.2.3 2.3.7 3.6.9l1.6.1c.4 0 .8.2 1.2.1 1-.1 2 0 3-.2 1.8-.4 3.6-1 5.3-1.9a9.4 9.4 0 003.2-2.7c.5-.4.8-1 .7-1.6.2.5 0 1 .2 1.4l.2 2.7v3.4l-.1 2.5.1 6.3c.2 1.8 0 3.6 0 5.4l.1 4.4c.1 1 .1 1.7-.7 2.3-.3.2-.4.7-.3 1 0 .7.3 1.3.6 1.9.4.6.6 1.1.2 1.8-.3.8-.3 1.6.2 2.3.2.3.2.7 0 1-.3.6-.2 1.3 0 1.9v.2c.5 1 .5 2 .5 3v6.8l.2 2.4c0 .7-.1 1-.7 1.3l-.7.2c.4-.8.5-1.8.4-2.7V144.2l.1-3.5c.1-.3 0-.7-.1-1-.4-.5-.5-1-.5-1.7v-1.5a4 4 0 00-.3-1.6c-.2-.6-.4-1.2-.1-2 .2-.4.2-1 0-1.4a9.3 9.3 0 01-.7-4c0-.4.1-.7.3-1 .5-.7.7-1.4.4-2.2v-.5c0-1 0-2.1-.2-3.2v-3.5-6.4a33 33 0 000-4V104c-.1-.5.2-.9 0-1.3l-.3.1a10 10 0 01-3.6 2.3 18.2 18.2 0 01-9 1.6c-1.4-.2-2.7-.3-4-.8-.5-.2-1.2-.2-1.7-.6-.7-.5-1.6-.9-2.3-1.5a4 4 0 00-1-.6l.1-1.2z" fill="#bbb"/><path d="M112.4 117.6c-.6.3-1.2.2-1.7-.2l-1.9-2a22 22 0 01-2.7-3.8c-.3-.6-.5-.6-1-.1 0 .8.3 1.5.7 2.2 1 1.8 2.1 3.4 3.6 4.7l.4.6c0 .1.2.3-.1.2a15 15 0 01-3.1-2.5 5 5 0 01-.8-1.1c-.1-.3-.3-.6-.6-.8a.4.4 0 00-.6 0 .4.4 0 000 .6l1.1 1.8c.3.7.9 1.2 1.3 1.7.5.6 1.1 1.1 1.2 2a1 1 0 01-.8-.5l-.7-.8-1.7-2.7c-.4-.7-.7-1.5-.8-2.3v-.8c.3-.3.3-.8 0-1.2-.4-.6-.3-1.3-.2-2 0-.4.3-.7.6-1 .5-.1.7-.6.6-1.1 0-.6.2-1.2.6-1.6.2 0 .3-.2.4-.3.5-.4.8-.8.7-1.5 0-.5.3-.8.6-1.2.5-.4 1-1 1.7-1.2.4-.2.7-.6 1-1 .9-.9 1.8-1.7 2.9-2.4.6-.4 1.3-.6 2-.8.2 0 0 .1 0 .2l-.5.5c-1.4.6-2.3 1.8-3.2 2.9l-1.4 1.7c-.1.5 0 .9.1 1.3l2 5 1.5 3 .8 1.6c.2.6.2 1-.2 1.1-.5.4-.8.3-1.3-.2l-2.4-3-2.5-3.5c-.4-.5-.6-.5-1 0-.1.8.3 1.5.7 2.2 1.1 2 2.5 3.9 4.2 5.5.3.2.7.4.5.8zM219.3 126.5l.8 1.2.9 1.2c.3.4.7.4 1.3.3 1-.4 2.1-1 3-1.6l.6-.4.7 3.3.7 3.5v.6c-.8 1-1.4 2-2 3l-.2.2a8 8 0 00-3.3-2.6c-1.3-.7-2.8-1.2-4.2-1.6-.3 0-.5 0-.7.2-.1.2-.3.2-.5.1-.8-.5-1.7-1-2.5-1.3-.8-.4-1.5-1-2-1.6h.4c.5.1 1.1.2 1.7 0l3.7-.5 1-.2c.6-.2.8-.4.7-1.2l-.2-2.3v-.3zM170.1 147.3c.2.1.2.3.2.5 0 1.1.4 2.2 1 3.2l1 .8c.5.4.5.5.1 1-1 1-2.2 1.9-3.7 2.2-1.8.5-3.7.5-5.5.1-1-.2-1.7-.7-2.5-1.4l-1.4-1.5 1.5-.8c1.1-.5 1.6-1.5 1.9-2.6 0-.4.2-.4.4-.4 1.7.1 3.3 0 4.9-.5.7-.2 1.5-.2 2.1-.6zM182.6 154.8l-1.1-.6c-.8-.5-1.7-1-2.5-1.3a.8.8 0 01-.4-.6l-1.3-5.2-.2-1.7c-.2-1.4-.7-2.7-1-4 0-.4 0-.6.3-.6.7-.2 1.2-.6 1.5-1.3.4-.7.8-1.5.9-2.5.2.1.1.3.2.4l.1.5c.7 2.2 1.2 4.5 1.8 6.7.6 2.3 1.3 4.5 1.6 6.9l.1.3c.5.3.3.8.3 1.2l-.3 1.8z" fill="#fff"/><path d="M214.2 162.6h-1v-.1c-2-.5-3.7-1.4-5.5-1.9-1.6-.4-3-.1-4.5.3-2 .5-3.7 1.4-5.6 1.8l-.3.1h-.4a.6.6 0 00-.4-.1c-1.3 0-2.4-.7-3.6-1.4-.2-.1-.5-.5-.9-.2v6.3l.1.7c1 1.1 2.3 1.8 3.8 2a7 7 0 004.6-1c1-.6 2.2-.4 3.4-.1l3.2 1c.6.3 1.2.3 1.8.2h1.3l2.3-.1c2.1-.3 4.2-1 6-2 .7-.4 1.5-.7 2.3-.8.2 0 .4-.1.5-.3v-.3c.2.5 0 1 .1 1.5l-.1-.1c-.2-.3-.4-.2-.7-.2l-1.6.6c-1.9 1.2-4 1.9-6.2 2.2-.4 0-.9 0-1.3.3h-.1a7 7 0 00-2 0c-1.2 0-2.5-.3-3.7-.8-1.1-.4-2.3-.8-3.5-.9h-.7c-1 .6-2.1 1-3.2 1.4h-2.8c-1.3-.4-2.5-1.1-3.6-1.8h-.3l.3-1.2v-6.5a1144.2 1144.2 0 010-11.5c0 .7.3 1.2 1 1.5l1.5.9c2 .9 3.9.7 5.8-.2l2-1a5.6 5.6 0 015-.5 18.2 18.2 0 004.2 1c1 0 1.8 0 2.6-.4 1-.3 1.8-.8 2.8-.9.2 0 .2-.2.2-.4.3.3.5.7 1 .7l.2.3.4.7c-.3 0-.6 0-1-.2-.2-.2-.5-.1-.8 0l-2.6.8c-.6.3-1.2.3-1.8.4-1.6.1-3.2-.1-4.7-.7-1-.5-2-.7-3-.6-.4 0-.7 0-1 .2l-2.2 1a8.5 8.5 0 01-6 1.2 7 7 0 01-2.4-1l-1-.6v.1l-.1 2.8v5.2c1 .7 2 1.2 3 1.7.4.2 1 .4 1.6.2h1.2c.2.2.5 0 .7 0a42.8 42.8 0 016.6-2.2h.3c.2-.1.5-.1.8 0h.3l.4.2c1.4.2 2.7.6 4 1.2l2.3.7c.7.2 1.4 0 2-.3 1.1-.4 2.2-.8 3.2-1.5.7-.6 1.5-.4 2.4-.3v1l-.3-.1-.2-.3c-.6.1-1.2-.2-1.8.3-1 1-2.4 1.2-3.7 1.7l-.6.3z" fill="#ddd"/><path d="M229.4 154.5l2.5-3 .6 3 .3 2c0 1 .2 2 .4 3 .5 2 .7 3.9 1 5.8l.4 1.7c.1.4 0 .5-.3.6-1 0-2 .2-3 .4-.6.1-.7 0-.7-.5 0-1.6-.2-3.1-.5-4.6-.4-2.6-.5-5.1-.8-7.7l.1-.7zM186.1 160c-.5-1.6-1.3-3-2.3-4.1a.5.5 0 01-.2-.4c.1-1.1.2-2.3.5-3.5.3 0 .5 0 .7.2 1.4.6 2.7.6 4-.1l1.5-.7c.3 0 .6 0 .5.4v7.7c0 .3-.1.5-.4.6l-1.8.7c-.4.1-.9.1-1.2-.1l-1.3-.8z" fill="#fff"/><path d="M158.5 151.3c-.5-1.3-1.6-1.3-2.7-1-.5-3.3-.3-6.5-.4-9.7.4 0 .5.2.7.2.3.1.6.3 1 .2.4 0 .6.2.8.6.4 1 1 1.8 1.7 2.5l1.9 1.9.1.3.1 1.6a3 3 0 01-.5 1.8c0 .2-.2.3-.4.4-.7.5-1.4 1-2.3 1.2z" fill="#999"/><path d="M130 150.8c-.5 0-.7.1-.8.5-.3 1-.8 2-.8 3.2l-.1 1.1c-.3.8 0 1.5 0 2.2 0 .2.2.3.4.4.5.4 1 .4 1.7.5l3.4.5c1.7.2 3.4.6 5.1.7.8 0 1.7.3 2.5.4l2.3.2c.4 0 .8 0 1 .2.8.5 1.6.8 2.4.9.9 0 1.6.5 2.4.8l7.2 3.2c.4.2.8.4.7 1-.6 0-1-.3-1.6-.5a72 72 0 01-5.7-2.8c-.5-.3-1.2-.5-1.9-.4a11.4 11.4 0 01-4.1-1c-.4-.4-1-.5-1.6-.5a69 69 0 01-6.8-.8 120.6 120.6 0 01-8.4-.5c-.3 0-.4-.2-.5-.5 0-1.7.1-3.5.5-5.2.2-1.2.7-2.4 1.3-3.5.1-.3.3-.4.6-.3.2.1.5 0 .7.2z" fill="#bbb"/><path d="M185.8 142.3c0 .2 0 .4.2.5 1 .5 1.9 1 3 .6l3.6-1.4c1.3-.4 2.6-.6 4-.3l.9.1c.4 0 .8.2 1.1.5.8.4 1.6.8 2.4 1a6 6 0 003.7-.4c1.1-.6 2.5-1 3.7-1.3a8.5 8.5 0 016 .3l.5.2a6 6 0 005-.1c.6-.4 1.4-.5 2-.4-.2.4-.6.8-1 1.2-.2-.3-.4 0-.5 0l-2 .7a3 3 0 01-1.2 0 3 3 0 00-1 0c-.5 0-1-.2-1.5-.4a9 9 0 00-4.7-1c-1.7.6-3.5 1-5.1 1.8a3 3 0 01-1.7.3h-.4c-1.5.4-2.9-.1-4.2-.9-.7-.4-1.5-.5-2.4-.7-1.9-.3-3.5.4-5.2 1l-1.5.6c-1.3.5-2.5.3-3.6-.4-.2-.1-.3-.3-.6-.2 0-.5.3-.9.5-1.3zM191.9 184c.2.4 0 .9 0 1.3.1.4 0 .8.5 1 .4 1 1.2 1 2 1.2l1.4.2c1.3.2 2.5-.2 3.8-.4 1.2-.3 2.3-1 3.6-1.2.7-.1 1.5-.2 2.2 0l2 .1c1.3.1 2.4.4 3.6.8 1 .4 2.2.4 3.4.1l1.9-.3 2.6-1c1-.2 2-.3 3 0h1c.2-.4 0-.9.1-1.3l.3 2.7a7.4 7.4 0 00-5.2.2 6 6 0 01-1.7.5c.7 0 1.7-.3 2.6.1a36.5 36.5 0 00-5.6.3l-2 .1c-1-.4-2-.7-3-.8-1.6-.2-3.1-.5-4.7-.3-.4 0-.9.1-1.3.3-1.2.5-2.4.9-3.6 1l1.8-.1h5.7c.3 0 .7 0 1 .2-.9.2-1.8.1-2.6.1H196a19 19 0 01-3.5 0c-.3 0-.5 0-.5-.4 0-1.4-.2-3-.1-4.4z" fill="#ddd"/><path d="M228 160.6c.3 1.3.2 2.7.3 4v1.8c0 .3-.1.5-.4.6-1.5.7-3.3.9-5 .5-.5-.1-.4-.6-.5-1 0-1.3-.4-2.5-.3-3.8-.2-1.4-.2-1.4 1.2-1.4s2.8-.2 4-1c.4-.2.6-.2.7.3z" fill="#fff"/><path d="M129.7 99.7v6a.1.1 0 01-.3 0c0-.6-.4-.7-1-.6-1.8.3-3.7.7-5.6.9-.3 0-.6 0-.8-.2l-.1-4.4c.6-.4 1.3-.3 2-.4l5-.8c.3 0 .5-.3.8-.5z" fill="#bbb"/><path d="M222.6 180.3c-.8 0-1.5-.3-2.3-.5a6.8 6.8 0 00-3.8.4c-1.6.6-3.3 1-5 1-1.5 0-3-.4-4.4-.9-.8-.2-1.5-.5-2.3-.6-.6-.2-1.2 0-1.8-.1-1.7-.2-3.2.3-4.6 1.2a6 6 0 01-3 .8l-2.4-.1-1.1-.5v2.4c-.2-1.2-.2-2.5-.2-3.7.2 0 .4.2.5.3.4.5 1 .6 1.5.6a7.7 7.7 0 004.9-1c1.5-.9 3-1.3 4.8-1h.5c1 0 2 .2 2.8.5 1.2.5 2.5.8 3.8 1 1 .1 1.9 0 2.8-.1 1.1-.2 2.2-.5 3.2-.9 1-.3 1.8-.4 2.8-.3.8 0 1.6 0 2.3.3h.3c.4.1.4 0 .5-.4v-.2l.2 1.8z" fill="#ddd"/><path d="M158.1 110.8l-.1 1.4-.5 2.8-.4 3a386 386 0 01-.6 3.7c-.8.9-.8 2-.9 3 0 .8 0 1-.5 1.6-.2-1-.2-2-.2-2.9v-5.8V110.9c.6-.2 1.3.1 2 .1.5 0 .9 0 1.2-.2z" fill="#bcbcbc"/><path d="M130 109.7c.2.5.2 1.1.2 1.6v2.7c-2 .4-4 1-6 1.3l-.7.2c-.4-1.3-.7-2.7-.8-4 1.4-.4 2.8-.8 4.3-1 1-.2 2.1-.3 3-.8zM154.8 110.1v-.6c.1-2.1 0-4.3 0-6.4V102c1.3-.2 2.6-.2 3.9.2 0 1.2.2 2.3.1 3.5-.4.3-.8 0-1.2 0h-2c-.1 0-.3 0-.4.3 0 .2.2.2.4.3h.9c.7 0 1.5 0 2.3.2a802.5 802.5 0 01-.7 3.9c-1 .1-2.2.3-3.3-.3zM129.5 105.7h.1l.4 3.5c-2 .6-4.3.8-6.4 1.4-.3.1-.7.3-1 0-.3-.8-.3-1.7-.4-2.6l-.2-1.3c1-.4 2.2-.2 3.2-.5l3.6-.5c.2 0 .5-.2.7 0z" fill="#bbb"/><path d="M176.5 151.6l-2-.7c-.3-.2-.7-.2-1 .1-.2.3-.3.2-.5 0-1-.6-1.4-1.5-1.6-2.5l-.3-1.6c0-.3 0-.6.4-.9 1-.8 2-1.6 2.7-2.6l.7-1c.3.5.2 1 .2 1.5.4 2.4.7 4.7 1.4 7 0 .2.2.5 0 .7z" fill="#999"/><path d="M170.9 118.1c-.3-.1-.4-.4-.5-.7-.3-1.6-1-3.1-1.5-4.8l-.8-2.2c-.3-1.2-1-2.2-1.3-3.4l-.7-1.6c-.3-.6-.8-1-1.2-1.4l-1-1c-.7-.7-1.5-1-2.2-1.4a5 5 0 01-.6-.4c-.6-.5-1.2-.8-1.9-1.1l-.6-1.5a.1.1 0 01.1 0c1.4.5 2.8 1 4 1.8 1.3.9 2.5 2 3.3 3.3l2 3.4a35 35 0 012.3 6.7l1 3.7c.2.6.2.6-.4.6z" fill="#fefefe"/><path d="M130.2 114.1v4.7l-.3.2a86.2 86.2 0 01-5.3 1.2c-.4-1.4-.8-2.8-1-4.2.1-.2.4-.1.6-.2 1.7-.1 3.3-.6 5-.9.5 0 .6-.6 1-.8z" fill="#bbb"/><path d="M107.7 123.5v-1.3c0-.2 0-.3.3-.3a.3.3 0 01.2.3v2.3l-.2 2.8c-.1 1.6-.5 3.2-.5 4.8a46.2 46.2 0 01-.3 6.6c0 2.2-.2 4.5-.4 6.7-.2 2.6-.3 5 0 7.6l.2 1.4c.3 2 1.2 3.5 2.4 5 .8 1 1.9 1.3 3 1.6.5.1 1 0 1.4.4 0 0 .2.1 0 .3l-1.3-.1c-1.4 0-2.5-.7-3.5-1.6a7.1 7.1 0 01-2.3-3.7c-.4-1.7-.5-3.4-.6-5.1-.1-3.4.2-6.8.4-10.2l.5-4.5.2-3.9.3-4.6c.2-1.5.3-3 .2-4.5z" fill="#fdfdfd"/><path d="M126.3 125.4c-.6-1.4-1.1-2.9-1.5-4.4.2-.3.5-.4.7-.4l3.8-.8c.3 0 .6-.2.9.1l.1 4.8a32 32 0 01-4 .7z" fill="#bbb"/><path d="M228.1 133l-.3-1.8-.8-4.3c-.1-.3 0-.6.2-.8l.6-.9c.2-.4.2-.7-.2-1l-.8-.6a.8.8 0 01-.5-.5c-.7-2.7-1-5.5-1.3-8.2v-.9l.6 1.8 3.2 10.8.8 3.2v.7l-1.3 2.3-.2.1z" fill="#fff"/><path d="M146.9 180.4h1.7c.3 0 .4 0 .4-.4l.2-.6c0-2 .2-4 0-6v-2.7c0-1 0-2.1.2-3.1v-.8c-.1-.6.3-1 .9-.9.3 0 .5.3.4.6a8 8 0 000 2.6v.4l.3 4.2v2.4c-.5 0-.6 0-.6.6l-.1 3.2c-.1.5 0 .6-.6.6h-2.6-.2zM129.2 96c0 1.2.4 2.2.4 3.3l-.3.2c-1.7.2-3.5.6-5.2 1l-1.3.1c-.3 0-.7.1-1-.1V98l1-.1 4.5-1.6c.6-.3 1.2-.7 2-.3z" fill="#bbb"/><path d="M190.8 167.7c0 .3 0 .4-.3.5l-1.7.4-.5-2.3a45 45 0 00-1.5-4.9c0-.3.2-.2.3-.1.9.3 1.6 0 2.4-.3 1.6-.6 1.4-.3 1.4 1v5.7zM218.8 149.2c-.7.4-.9.3-1-.4 0-.4 0-.9.3-1.2l2.5-3 4.1-4.5c.2-.3.5-.4.8-.3.6.1 1.2.2 1.4.8.1.3 0 .5-.3.7-2.7 2-4.8 4.7-7 7.2l-.8.7z" fill="#fff"/><path d="M130.3 124.7c.2.3.1.6.1 1l.3 7.5v2l-.2-.1-2.6-5.6c-.4-1.1-1-2.3-1.3-3.5.8-.3 1.7-.3 2.5-.4.6 0 1-.2 1.2-.9z" fill="#bbb"/><path d="M175.4 60c.6.3 1 .8 1.6 1.2l1.1 1c.5.4.9 1 1 1.6.2 1.1.6 2.2.7 3.4a28.3 28.3 0 00-3.2-3.6.4.4 0 00-.5 0c-.2.1-.2.3-.2.5s.2.3.3.5c-.4.2-.7.2-1 0a4.3 4.3 0 01-2.3-2.7c-.2-.5-.1-1 .2-1.4.6.3 1 .6 1.3 1.2l.6.8c.2.2.4.2.6 0 .2 0 .3-.3.1-.5-.5-.5-.2-1.3-.3-2z" fill="#fff"/><path d="M227.6 171.7c-.2-.1-.1-.3-.2-.5-1.2.3-2.4.9-3.6.4-.1.2-.2.3-.1.5.3 1.7.2 3.3.2 5l.3 2.5.1 2 .5 4 .1 2c0 .6-.2.8-1 1 .5-.4.5-.9.5-1.4l-.7-6.9-.8-6.5-.1-3c0-.1 0-.3.3-.2a12.5 12.5 0 003.9-.4c.5 0 .5 0 .5.5v1zM229.4 154.5l.4 3.5v.6l.2 1.7c.2 1.5.5 3 .5 4.4l.3 3c0 .4.3.1.4.3-.5.2-1 0-1.5.2-.2 0-.3 0-.3-.2v-1l-.2-5-.6-4.5c0-.5 0-1.2-.2-1.7l.1-.3c.5-.2.6-.7 1-1zM230.8 149.3c.2.2 0 .5.2.8.4-.4.8-.9 1-1.4l4.2-5.5c.8-1 1.4-2.3 2.2-3.5l3.3-6c.7-1.2 1.2-2.6 1.6-4l.7-2.8.2-1.7c.3 1 .2 1.9 0 2.8a35 35 0 01-3.2 8c-1.2 2.3-2.6 4.5-4 6.7-1 1.8-2.4 3.5-3.6 5.2l-4.8 6c-.1.2-.1.3-.3.3v-.2c-.2-.5 0-.8.5-1.1.5-.3 1-.7 1.3-1.3.6-.6.8-1.4.7-2.3z" fill="#bbb"/><path d="M164 163.4c0 .5-.2 1-.7 1.2l-.5.7a3 3 0 01-1.7 1.8l-.6.2c-.6-.1-1 .2-1.5.5-.2.2-.6.4-1 .4a4.8 4.8 0 01-2.4-.2c-1.3-.7-2.7-1.4-4.2-1.8-.7-.2-1.2-.7-1.8-1.2-.3-.2-.8-.4-1.2-.2-.8.2-1.6-.1-2.3-.3-.4-.2-.9-.4-1.3-.2v-.2c.4-.7.3-.7 1.1-.5 1 .2 1.8.4 2.8.3.2 0 .4 0 .6.2l3.9 2 3.4 1.4c.5.1 1 .2 1.5 0 .3-.2.6-.3.7-.7 0-.3.3-.3.5-.1l1.3.2a2 2 0 001.1-.4c.5-.3.5-.8.4-1.4l.9-.5c.1-.1.3-.3.3-.5 0-.5.3-.7.7-.7z" fill="#ddd"/><path d="M228.5 143c.7.5.7 1 .1 1.7-1.7 1.8-3.7 3.3-5.8 4.8-.5.5-1 1-1.7 1.2-.6.3-1.2.4-1.8-.2 0-.4.5-.5.8-.7 1-.7 2.3-1.2 3.2-2.2 1.2-1.2 2.5-2.3 3.6-3.6.5-.5 1-1 1.6-1zM207.3 188.7h-9.1a53.6 53.6 0 006.2-1.7l1.4.1c1.1.1 2.2.1 3.3.4l2.3.7c.3 0 0 .1 0 .2l-4.1.3z" fill="#fff"/><path d="M143.7 164.2c0-.3-.4-.5-.7-.5-.8-.2-1.5-.3-2.3-.3a20 20 0 01-3.4-.4l-1.3-.1a35.5 35.5 0 01-2.9-.3c-.2-.3 0-.7-.3-1.1h3.3c2 .3 4.1.7 6.2.8l.4.1c.4.4 1 .5 1.5.8 0 .3-.3.7-.5 1z" fill="#bbb"/><path d="M169.5 44.4c0-.7.4-1.3.8-1.8l2-1.5 1.2-.7c1.7-.8 3.2-2 4.9-2.8l1.1-.7.4-.3c.2-.1.6-.1.7.1.2.2.2.5-.1.7l-1.8 1.2c-2.4 1.4-4.8 2.6-7 4.2-.7.4-1.2 1-1.3 1.7 0 .4-.3.5-.6.5s-.3-.3-.3-.6z" fill="#fefefe"/><path d="M158.2 137.5c.3.8.5 1.7.6 2.5-.3-.2-.5-.3-.9-.1-1.1.3-1.8 0-2.4-1a12 12 0 01-.6-1.4c-.1-.4-.2-.8 0-1.1v-.4c.7-.3 1.4-.9 2.3-.5.2 0 .3.1.3.4v1c.1.3.3.6.7.6z" fill="#fff"/><path d="M153.7 85l.8-1.6c.2-.4.3-.9.3-1.4 0-.2.1-.4.4-.4h2.2a7 7 0 001.8-.2 2 2 0 01-.3 2.4c-.8 1-1.8 1.2-2.8 1 0-.3.3-.4.4-.6.3-.2.3-.5.1-.7-.1-.2-.5-.3-.8 0l-.7.6-1.4 1z" fill="#fffffe"/><path d="M196.4 60.8a3 3 0 01-.3-.5c-.2-1-.8-2-1.4-3-.1-.2-.2-.3 0-.6.4-.2.6-.4.7-.8.3-.2.4-.5.2-.8l-1-2.3a1 1 0 01.5-1.4c.1 0 .2-.1.2 0 .4.2.9.3 1.1.7.6 1 .8 2.1 1 3.2 0 .3 0 .6-.3.9-.2.3-.2.3-.6.1a.4.4 0 00-.7.4 14.9 14.9 0 01.6 4z" fill="#fefefe"/><path d="M140.7 69.6c.4 1.2.2 2.5.4 3.8v.4c-.6.7-1 1.4-2 1.7l.2-1V74c0-.2 0-.4-.3-.5-.3 0-.5.1-.5.4l-.2.6c-.5-.3-.4-.8-.4-1.2 0-1.5.8-2.7 2-3.5l.8-.2z" fill="#fffffe"/><path d="M127.4 82c0 .3-.3.5-.6.6l-1.6 1.1a7 7 0 00-2.3 3.2c-.3.8-.5 1.6-.9 2.3-.1.4-.3.7-.6 1-.3.2-.5.2-.7 0-.2-.2-.2-.5 0-.7.4-.5.5-1 .7-1.5l.8-2.2c.4-.8.8-1.4 1.4-2 1-.9 2-1.6 3.1-2.2h.5c.2 0 .3.2.2.3z" fill="#fefefe"/><path d="M174.2 141.4l-.1-1.1c0-.4-.3-.7-.5-1l-.3-.7c.9-.2 1.4-.8 2-1.4.6.4.9.3 1-.4v-.8c0-.1 0-.3.2-.4h.5c.6.5.9 1.4.6 2.1l-.6 1.2c-.3.6-.7 1-1.4 1-.6-.1-.7 0-.9.6 0 .3-.2.7-.5 1zM212 121.2c-.2-.5-.1-1-.3-1.6a.2.2 0 01.2-.4c.7-.1 1.2-.6 1.9-1 .5.4.7.3.9-.3 0-.4 0-.8.2-1.2.1 0 .3.1.3.3.7 1 .7 2.6-.1 3.5-.5.7-1.2.8-2 .8-.4 0-.7-.3-1.1-.1z" fill="#fffffe"/><path d="M176.5 151.6l-.3-1-1-4.8c-.2-1.1-.3-2.3-.3-3.4l.3-.6s.1-.2.3-.2l.2.3.1 1.3c0 1.3.4 2.5.6 3.7.3 1.7.7 3.4 1.3 5.1v.2c-.5-.1-.9-.2-1.2-.6zM229.8 146.3c.3.6.2 1-.2 1.6-.5.7-1.2 1.3-1.9 1.7-1.4.9-2.7 1.8-4.3 2.4l-.7.2h-.6c0-.4.3-.5.5-.6l2.5-1.7c1.3-.8 2.4-2 3.5-3 .4-.3.6-.8 1.2-.6zM196.7 117.9l1.1 1.2c.2.1.3.3.3.4v.4c0 1.1 0 2.2.3 3.2-.4-.5-.6-1-.8-1.6 0-.5-.5-.9-1-1-1-.1-1.7-1-1.8-2 0-1 .2-1.6 1-2.2v1c.1.5.3.6.9.6z" fill="#fefefe"/><path d="M154.8 101.5c-.2-1.2-.4-2.5-.4-3.7.8.2 1.5.5 2.2.9l1.1.5c.4.7.6 1.5.8 2.2H154.8z" fill="#bbb"/><path d="M120.8 98.8h-.6c-2.2.7-4.2 1.7-6 3.2a13 13 0 00-2.4 3c-.1.2-.2.5-.5.5a.7.7 0 010-.8c1-1.6 2.1-3 3.6-4l1.5-1.2c1-.8 2.2-1 3.3-1.3l1.1-.3v.9z" fill="#fdfdfd"/><path d="M203.7 101c0 .2-.2.4-.5.4l-1.7.3c-.6 0-1.2.3-1.7.6-1 .7-2 1.4-2.7 2.4-.1.3-.3.4-.6.3-.2-.1-.3-.4-.1-.7l.4-.7c.8-.9 1.7-1.7 2.7-2.3a4 4 0 011.6-.6l1.7-.2h.6c.2 0 .3.2.3.4z" fill="#fefefe"/><path d="M228.5 143c-.7.4-1.3.9-1.8 1.5l-1.8 1.8c-.6.5-1 1.1-1.7 1.6-.8.7-1.6 1.2-2.5 1.7-.5.2-1 .5-1.4 1-.3-.3-.1-.4 0-.5a482.8 482.8 0 013.7-3.3l4.1-3.7c.4-.4 1-.5 1.4-.2z" fill="#bababa"/><path d="M186.9 125.8c-.2 0-.4 0-.5-.2a.4.4 0 010-.6c.2 0 .3-.2.4-.3a21.3 21.3 0 004-5.8c0-.3.3-.4.5-.2a.4.4 0 01.2.6l-.8 1.7c-1 1.5-1.9 3.1-3.2 4.4-.2.2-.3.4-.6.4z" fill="#fefefe"/><path d="M218.8 149.2l1.7-2a24 24 0 011.8-2l2-2.1c.7-.8 1.5-1.4 2.4-2l.2-.5c.2.3.2.6.2 1 0 .1 0 .3-.2.4-1.4 1-2.6 2.2-3.8 3.4l-3 3-1.3.8z" fill="#bababa"/><path d="M190.8 154.2V152c0-.6 0-.6-.6-.4l-1.4.7a4 4 0 01-2.8.4c-.7 0-1.3-.4-1.9-.7l.1-1.2c.9 1 2.8 1.4 4 .7.7-.4 1.5-.8 2.3-1 .2 0 .3-.3.3-.5a64.5 64.5 0 01.1-.5v4.7z" fill="#dedede"/><path d="M229.8 146.3c-.4 0-.6.3-.8.6-.5.3-1 .7-1.4 1.2-1 1-2.2 1.8-3.3 2.6l-2.1 1.3c.1.2.3 0 .5.2-.6.2-1-.1-1.6-.2l2.3-1.6c2-1.5 3.9-3 5.6-4.7.3-.3.4-.3.6 0l.2.6z" fill="#bbb"/><path d="M121.9 100.5l1-.1c2-.3 4-.8 6.1-1l.6-.1v.4c0 .4-.1.6-.5.6l-4 .7-3.3.4v-1z" fill="#dcdcdc"/><path d="M181.3 166c.2.5.1 1 .2 1.6l1 5.2.3 3c.1.8 0 1.8.3 2.7.2.5.2.5.7.5h.2l-.2.1c-1.5 0-1.3.4-1.4-1.1l-.4-2.9c0-1.5-.4-3-.5-4.6 0-.3 0-.7-.2-1l-.1-3v-.6z" fill="#bababa"/><path d="M122.6 110.7c1.8-.4 3.6-1 5.4-1.2.5-.1 1-.2 1.3-.4l.7.1v.5c0 .2 0 .4-.3.4l-6.2 1.3h-.8c-.1-.2-.2-.5-.1-.7zM129.5 105.7l-3 .6c-.8 0-1.6.3-2.5.3-.6 0-1.3.2-2 0v-.8c.9 0 1.8 0 2.6-.2l4-.7c1-.2 1-.2 1 .8z" fill="#dcdcdc"/><path d="M109.7 119.2c.2-.1 0-.2-.1-.3l-1.9-2c-.9-1-1.7-2.3-2.3-3.5-.3-.5-.4-1-.4-1.6l.1-.3c.2.7.6 1.2 1 1.8 1 1.6 2.2 3.1 3.5 4.5.4.5 1 1 1.7 1-.4.8-1 .9-1.6.4z" fill="#bababa"/><path d="M223.4 153.1c2.4-.9 4.4-2.2 6.4-3.7.2.3 0 .6 0 1a3 3 0 01-.8 1c-1 1-2.3 1.7-3.8 1.7h-1.8z" fill="#fdfdfd"/><path d="M222.4 166.5c0 .7.4.8.9.9a8 8 0 004.6-.6c.2 0 .4-.3.4-.6v-1.5V168.1c0 .3.2.5 0 .8l-.2-.3c0-.4-.3-.5-.7-.4-1 .4-2 .5-3 .5h-.3c-1-.1-1-.1-1.5.7l-.2-3z" fill="#dcdcdc"/><path d="M112.4 117.6a26 26 0 01-5.3-7.3c-.2-.4-.4-.8 0-1.2-.1.2 0 .5.2.8l3.3 4.5 1.8 2.1c.5.5.5.6 0 1.1z" fill="#bbb"/><path d="M219 188h-3l.6-.3 2.4-.8c1.3-.4 2.5-.2 3.8 0 .3 0 .3.2.5.3 0 .3 0 .5-.4.5l-1.6.1-2.3.2z" fill="#fefefe"/><path d="M228 160.6l-.2-.3a7.8 7.8 0 01-5.4 1.2c-.3 0-.3 0-.3.2v1c-.2-.8-.1-1.7-.1-2.5.8.5 1.7.4 2.7.2l1.8-.6c.5-.2.9-.5 1.2-.9.2.6.3 1.1.3 1.7z" fill="#ddd"/><path d="M130.2 114.1c-.3.2 0 .7-.3.8l-.9.2-3.5.7c-.6.2-1.3.2-2 .2v-.5c0-.2.1-.4.4-.4 1.5-.1 3-.5 4.5-.9l1.3-.3.5.1v.1z" fill="#dcdcdc"/><path d="M129.2 96c-1 .1-1.9.5-2.8.9l-2.4.8-1.6.6c-.3.1-.5 0-.5-.2 0-.3 0-.5.4-.6 2.2-.7 4.3-1.7 6.6-2.4h.2c.1.3.2.6.1 1z" fill="#fefefe"/><path d="M190.8 167.7v-4.1-2.3c0-.4 0-.5-.5-.4l-1.3.5a2 2 0 01-1.9 0h-.3l-.7-1.5c.3 0 .5.1.7.3l.8.4c.3.1.6.2 1 0 .5-.3 1.1-.6 1.8-.7.3 0 .4-.3.4-.6v-3.7-.8l.1 1.1a3209.5 3209.5 0 010 11.8z" fill="#ddd"/><path d="M173.8 119.8c-.6 0-.8-.4-1-.9l-1.3-4.2c-.1-.4-.1-1 .1-1.3l.6-1c.3 1.3.4 2.6.8 3.8l.8 3.6z" fill="#fdfdfd"/><path d="M222.6 169.4v-.5c0-.5.1-.6.7-.5h1a8 8 0 003.7-.5h.2v1l-.3.2c-1.5.3-3 .6-4.6.6-.2 0-.5 0-.7-.3z" fill="#fefefe"/><path d="M130.2 120c-.6-.2-1.1 0-1.6.2-1.3.3-2.6.4-3.8.8l-.3-.8c.6-.3 1.2-.4 1.7-.5 1.4-.2 2.7-.7 4-.9v1.1z" fill="#dcdcdc"/><path d="M128 149.9c-.3-.2-.8-.2-1.1 0h-.2c-1.2 0-2.3.2-3.4 0-.5 0-.9-.2-1.3-.3l-3.8-.6-3.5-.8c-.3 0-.6 0-.6-.5.4.1.8.3 1.3.3l7.6 1.4 2.1.3h1.1c.5-.2 1.1-.2 1.7-.3l.4.1c0 .2-.2.3-.3.4z" fill="#f9f9f9"/><path d="M110 103.9c.3-.8.9-1.4 1.4-2l1-1.2c.7-.9 1.6-1.3 2.4-1.9.1 0 .4 0 .3-.3 0-.1.3-.2.5-.1 0 0 .2 0 .2.2s0 .2-.2.3l-2.3 1.8c-.8.8-1.6 1.7-2.2 2.7-.2.2-.3.4-.6.3-.2-.2-.4 0-.5.2z" fill="#bbb"/><path d="M130.3 124.7c0 .8 0 .9-.8 1-1 .2-2 .4-3 .4l-.2-.7c0-.2.3-.3.5-.3.8 0 1.6-.1 2.3-.3h1.2z" fill="#dcdcdc"/><path d="M116.9 95.5a.5.5 0 01-.5-.5c0-.2 0-.4.2-.5a7.7 7.7 0 012-2.3h.5c.2.2.2.4.1.5l-.3.3c-.6.6-1.2 1.3-1.6 2.1 0 .2-.2.3-.4.4z" fill="#fcfcfc"/><path d="M158.8 106.5c-.2.1-.4.2-.6.1-.7-.2-1.5 0-2.2 0l-.7-.2c-.4 0-.4-.3-.4-.5 0-.3.3-.3.5-.3 1.1 0 2.3-.1 3.4.1v.8zM154.8 101.5c0-.2 0-.3.2-.3 1.2 0 2.3-.2 3.5.2l.2.8c-1.2 0-2.4-.2-3.5-.1a1 1 0 01-.4-.1v-.5z" fill="#dcdcdc"/><path d="M158.3 122.7c.1-.7.6-1.4 1.3-1.7a5 5 0 011-.3c.2 0 .5 0 .5.3.1.2 0 .5-.1.6l-.7.2c-.5 0-1 .5-1 1l-.1.2c0 .2-.3.4-.5.3s-.4-.3-.4-.6z" fill="#fbfbfb"/><path d="M157.7 99.2v.1h-.4c-.7-.4-1.4-.8-2.2-1l-.7-.5V97c1.4.4 2.7.8 3.3 2.3z" fill="#fcfcfc"/><path d="M154.8 110.1c1.1.2 2.3 0 3.3.3v.4l-.1.3c0 .2-.2.3-.3.2a22.3 22.3 0 00-2.9-.4v-.8z" fill="#dcdcdc"/><path d="M184.2 34.5c.3 0 .5.1.5.3.1.2 0 .5-.1.6l-.8.4c-.4.3-.9.5-1.3.9a.4.4 0 01-.6 0 .4.4 0 010-.7l.2-.1 2-1.3h.1z" fill="#fcfcfc"/><path d="M108.2 120.8c-.6-1-1.4-1.9-2.2-2.8-.2-.2-.4-.4-.3-.8.9.9 1.7 1.8 2.8 2.5.2.1.4.4.3.7 0 .3-.3.4-.6.4z" fill="#bababa"/><path d="M208.3 100.4l1 .1c.2 0 .3.2.4.3v.5c-.1.2-.3.3-.5.2-.5-.3-1-.2-1.5-.2h-.3a.4.4 0 01-.4-.3c0-.2 0-.4.3-.5.3-.2.6-.1 1-.1z" fill="#fafafa"/><path d="M163 119.4c.2 0 .5 0 .5.3a.4.4 0 01-.4.6l-.6.3c-.2.2-.4.2-.6 0a.4.4 0 010-.5c.2-.5.6-.6 1-.7z" fill="#f9f9f9"/><path d="M158.8 140.3l.3 1.4c-.2-.1-.2-.3-.3-.4-.3-.4-.3-.7 0-1z" fill="#f0e8d4"/><path d="M191.9 147.5c.2.6 0 1.2 0 1.9v-2z" fill="#ddd"/><path d="M130.2 120v-1.2c.2.4.2.8 0 1.1z" fill="#bbb"/><path d="M233.8 128.8c.4 0 .6.2.6.5a.5.5 0 01-.5.5c-.7 0-1.3.3-1.9.6a.4.4 0 01-.6-.1.5.5 0 01.2-.7c.7-.4 1.3-.8 2.2-.8z" fill="#444"/><path d="M149.3 130.5c-.5-.3-1.2 0-1.8 0-.9 0-1.7-.3-2.6-.2-1.3.2-2.6 0-4 .2-.7 0-1.5 0-2.2.3h-.4c-.3 0-.6 0-.6-.3s.2-.5.5-.6l1.2-.2 1.5-.2 5.5-.1h2.5l.8.1c.3.2.5.3.4.7 0 .3-.3.3-.6.3z" fill="#bbb"/><path d="M198.3 170.7c0-.2 0-.3.3-.3 1-.1 1.7-.6 2.5-1 .5-.3 1-.3 1.6-.2 1 .1 2 .4 3 .8 1.1.5 2.3.8 3.6.8h1.5c.2 0 .5 0 .6.2l-.2.1c-1.5 0-3 .2-4.5-.3l-2.7-1c-.5 0-1-.2-1.4-.3-.9 0-1.6.3-2.3.7-.6.3-1.3.5-2 .5zM211.5 171c.2-.3.4-.4.7-.4a17 17 0 006.3-2c.7-.3 1.4-.7 2.2-.9.4 0 .5 0 .6.4-.6 0-1.2 0-1.7.4l-3.3 1.5a18 18 0 01-3.5.9c-.4 0-.8.2-1.3.1zM191.8 168.9c.3 0 .6 0 .8.2.8.5 1.6 1.1 2.6 1.3.2 0 .3.2.3.3-.6.1-1.1-.1-1.6-.4-.7-.4-1.5-.7-2-1.4zM196 170.8c.4 0 .7-.4 1.1-.3.3 0 .7 0 1 .3H196zM220.8 159.6l-1 .2c-.7-.1-1.3.2-1.9.7-.3.2-.5.4-.9.5-1 .3-1.9.8-3 1h-.8l-3-1c-1.1-.4-2.2-.8-3.3-1-.3 0-.4 0-.5-.3 1 0 2 .2 3 .6l3.1 1.1c1 .3 1.9.3 2.7 0l.8-.4c.7-.2 1.4-.6 2-1 .9-.7 1.8-.9 2.8-.4zM205.1 159.6c0 .4-.2.4-.5.5-1.2.2-2.5.7-3.7 1l-2 .8-.8.3c-.2 0-.3 0-.4-.3l3.1-1.1c1.3-.4 2.6-.9 4-1.1h.3zM196.5 162c-.1.2-.3.2-.6.1-1-.2-1.7-.6-2.5-1l-1-.5c-.3-.1-.5-.3-.4-.6l1.5.7c.9.6 1.9 1 3 1.1v.1zM206.2 159.6c-.3 0-.6.2-.8 0 .2-.1.5-.1.8 0z" fill="#ddd"/><path d="M208.9 170.2c-.5.5-1.1.2-1.6 0a6 6 0 01-1.3-.3c-1-.5-2-.8-3.2-1a3 3 0 00-2.1.3l-.8.4c-.5.2-.9.6-1.5.4-.7.4-1.5.2-2.3.2-.6 0-1.2-.1-1.8-.4l-1.7-1c-.2-.1-.5-.3-.5-.7.9.6 1.8 1.2 2.8 1.6l1 .1h1.8c.9 0 1.6-.2 2.3-.6.8-.4 1.5-.9 2.4-.7.7 0 1.4.2 2 .4l2.8 1 1.2.2.5.1zM197.3 162.9c.1-.2.3-.4.5-.4 1-.1 2-.7 3-1 1.5-.5 3-1 4.7-1.3l.9.1c.3.2.6 0 1 0 .8.3 1.7.5 2.5.9l3 1c.2 0 .4.1.4.4-1-.1-1.8-.3-2.6-.7-1.3-.6-2.7-1-4.1-1.3h-1.7l-2.5.8c-1.1.2-2.1.7-3.2 1-.6.3-1.2.5-1.9.5zM221.3 167c0 .2 0 .4-.4.4a5 5 0 00-2 .6c-1.2.7-2.6 1.4-4 1.8l-2.2.4c-.2 0-.4 0-.7.2-.6 0-1.2.1-1.8-.2l.5-.1a17.4 17.4 0 008.2-2.4c.8-.5 1.6-.6 2.4-.7zM214.2 162.6c0-.2.2-.4.4-.4l2.9-1 .8-.7.7-.4h.5c.1.2.3.2.5.2.4-.2.4-.2.5.3-.8-.3-1.6-.2-2.2.4a112.3 112.3 0 00-4 1.6zM192 161.1c0-.3.2-.3.4-.2.3 0 .5.2.7.3.9.5 1.7 1 2.6 1.2h.7c.3 0 .5.1.5.4-1 0-1.9-.1-2.7-.6l-1.5-.8c-.2-.2-.5-.3-.7-.3zM180.7 55.4h.2c.7 0 1.2.3 1.4.9.2.6-.1 1.3-.7 1.6-1 .5-1.7.5-2.4-.4-.4-.3-.4-.9-.2-1.3.2-.5.6-.8 1.1-.8h.6zM189 54c-.8 0-1.6-.5-1.8-1.6 0-.3 0-.5.2-.7.3-.5.8-.7 1.3-.8.4-.1.7.2 1 .4l.5.6c.6 1 0 2-1.2 2z" fill="#ddd"/><path d="M176.8 55.2c.1-1 1.3-2.2 2.2-2.4.3 0 .6.1.7.4 0 .3-.1.5-.4.6-.8.2-1.2.7-1.5 1.4l-.1.3c-.2.2-.3.3-.6.2a.4.4 0 01-.3-.5zM188.2 48.6c.4 0 .7.2.7.4 0 .3-.2.5-.6.6-.6 0-1.3.4-1.7.9-.2.2-.4.3-.7 0-.2-.1-.2-.4 0-.7a4 4 0 012.3-1.2z" fill="#444"/><path d="M148.2 71.3c0 .9-1.2 1.8-2 1.5-.3 0-.6-.2-.8-.4-.7-.4-.8-.8-.3-1.5.3-.5 1-.9 1.6-.7h.6c.6.1 1 .6 1 1zM155.6 75.7c0 1-.8 1.6-1.7 1.2-.6-.3-1-.7-1-1.3 0-.7.7-1.4 1.4-1.2.3.1.7.2 1 .5.2.3.4.5.3.8z" fill="#dcdcdc"/><path d="M146.4 67.4c.8.2 1.7.4 2.4 1l.3.4c0 .2 0 .4-.2.5-.1.1-.3.2-.5 0-.6-.6-1.5-.8-2.3-1a.4.4 0 01-.3-.5c0-.3.3-.4.6-.4zM154.7 72c.7 0 1.4.2 1.9.7l.2.3c.3.4.3.7 0 .8-.2.2-.5.2-.8-.2-.2-.4-.6-.6-1-.6l-.4-.1c-.4-.1-.6-.3-.5-.6.1-.3.4-.4.6-.3z" fill="#444"/><path d="M170.4 135.6c-.6-.2-1.2-.3-1.6-1-.3-.6-.2-1.2.4-1.5.4-.3.8-.5 1.3-.6h.3c.6.2 1.2 1.1 1.1 1.9 0 .6-.7 1.2-1.5 1.2z" fill="#ddd"/><path d="M164.3 134.2c0 .7-.5 1-1 1.3-.5.3-1 .1-1.4-.2h-.1c-.4-.4-.9-.8-.6-1.4.2-.6.6-1 1.2-1.1.8-.2 1.3 0 1.7.7l.2.7z" fill="#dcdcdc"/><path d="M164.5 130.7c0 .2-.2.4-.4.5h-.7c-.6 0-1.2 0-1.7.3a.4.4 0 01-.7 0c-.1-.3 0-.6.2-.7l.8-.5h2a.5.5 0 01.5.4zM172.4 131a.4.4 0 01-.6.4l-.4-.2a2.3 2.3 0 00-1.6-.4c-.3 0-.5-.2-.5-.5 0-.2.1-.4.5-.5h1l1.3.6c.2.1.3.3.3.5z" fill="#444"/><path d="M202.4 115.5c0 .7-.7 1.5-1.3 1.5-.7 0-1.4-.8-1.4-1.4s.7-1.4 1.2-1.4c.8 0 1.5.6 1.5 1.3z" fill="#ddd"/><path d="M208.5 114c.4 0 .8 0 1 .4.2.6.3 1.2-.2 1.7-.3.4-.8.6-1.3.4-.3 0-.6-.2-.8-.5a1.2 1.2 0 01.8-2h.5z" fill="#dcdcdc"/><g fill="#444"><path d="M200.9 112.3h1a.5.5 0 01.3.6.4.4 0 01-.5.4H200a.4.4 0 01-.5-.2c0-.3.1-.5.3-.6a3 3 0 011.2-.2zM208.7 113.2h-.8a.5.5 0 01-.5-.4.4.4 0 01.4-.5h1.8a.5.5 0 01-.1 1h-.8zM180.5 57.5a.8.8 0 01-.9-.8c0-.7.4-1 1-1 .5 0 1 .4 1 .9a1 1 0 01-1.1 1zM187.9 52.4c0-.4.5-1 1-1.2.2 0 .6.1.8.4.2.3.2.7 0 1-.2.3-.5.5-.8.6a.8.8 0 01-1-.8zM146.4 70.5c.5 0 1 .4 1 .9a.9.9 0 01-1 1 1 1 0 01-.8-1 .8.8 0 01.8-1zM155.1 75.7a.8.8 0 11-1.7 0c0-.6.3-.8.8-.9a.8.8 0 011 .9zM170.6 133c.5 0 1 .6.9 1 0 .5-.5.8-1 .8-.3 0-.9-.7-.9-1.2 0-.4.5-.7 1-.7zM163.8 134.3c0 .5-.4.8-1 .8-.4 0-.7-.2-.7-.7 0-.5.4-1 .8-1 .5 0 .9.4.9.9zM201.1 116.4a.7.7 0 01-.7-.7c0-.5.3-.9.7-.9.4 0 .7.4.8.9 0 .4-.3.7-.8.7zM209.3 115.1a.8.8 0 01-.8 1 .7.7 0 01-.8-.8.9.9 0 01.9-1 .7.7 0 01.7.8zM321.3 132.3h-.8l-.3-.1-.5-.4-.4-.4a7 7 0 01-.3-1v-.4a1.5 1.5 0 01.2-.5c0-.4.2-.6.4-.9l.2-.1.4-.3h.1l.4-.1h.2a1.5 1.5 0 011.2 0l.6.4.3.3a2 2 0 01.3 2v.2c-.1.3-.3.6-.6.8-.4.3-.9.5-1.4.5zM337 87.3h-.5l-.2-.2-.4-.2a.9.9 0 01-.3-.3l-.2-.7v-.3l.1-.4c0-.3.2-.5.3-.6l.2-.1.2-.2h.2l.2-.1h.1a1 1 0 011 0l.4.3.2.2a1.5 1.5 0 01.2 1.5l-.4.7a1.6 1.6 0 01-1 .4zM14 68.8h-.5l-.2-.1-.3-.3a1 1 0 01-.3-.3l-.3-.7V67l.2-.4c0-.3.1-.5.3-.6l.1-.1.3-.2h.1l.2-.1h.2a1 1 0 01.9 0l.4.3.2.2a1.5 1.5 0 01.2 1.5v.1c0 .2-.2.4-.4.6a1.6 1.6 0 01-1 .4zM333.9 35.2h-.6-.2c-.1-.2-.3-.2-.4-.3a.9.9 0 01-.3-.4 5 5 0 01-.2-.7v-.2l.1-.4c0-.3.2-.5.4-.6v-.2l.3-.1h.2l.2-.1h.2a1 1 0 01.8 0c.2 0 .3.2.5.3l.2.2a1.5 1.5 0 01.2 1.4v.2l-.4.6a1.6 1.6 0 01-1 .3zM33.7 133.9H33l-.2-.1-.4-.3a1 1 0 01-.2-.3l-.3-.7v-.3l.1-.4c0-.2.2-.4.4-.6v-.1l.4-.2h.3l.2-.1c.3-.1.6-.1.8 0l.5.3.2.2a1.5 1.5 0 01.2 1.5v.1c0 .3-.2.5-.4.6l-.8.4h-.2zM258.7 27h-.6l-.2-.1-.3-.3a.9.9 0 01-.3-.3l-.2-.7v-.3-.4c.1-.2.2-.5.4-.6l.1-.1.3-.2h.1l.2-.1h1.1l.4.3.2.2a1.5 1.5 0 01.2 1.5v.1c0 .2-.2.4-.4.6a1.6 1.6 0 01-1 .4zM308.8 45.5l.4-.2c.5-.1 1 0 1.3.3.3.4.3.8 0 1.1-.7.6-1.6 1-2.6 1a1 1 0 01-.6-.1c-.3-.3-.4-.7-.1-1 .2-.2.2-.5.1-.8-.2-.7-.5-1.3-.9-2l-.7.4c-1 .5-2 .8-3.1 1.2-.8.3-1.5.4-2.3.5-.3 0-.4.2-.4.4V48l-.1 1.6v.6l.5-.1.8.1c.3.2.4.4.4.7 0 .3-.2.6-.5.7l-2.4.6-1-.1c-.7-.4-.8-1.2-.2-1.7l.4-.2c.1 0 .4 0 .5-.2v-.5c.1-1.1 0-2.2.2-3.3a.7.7 0 00-.5 0c-2 .2-4-.1-5.8-.7l-1.5-.5h-.3a978.7 978.7 0 01-1.5 2.8l.3.4c.2.3.3.7 0 1s-.5.5-.8.4l-1.7-.5c-.3 0-.6-.3-.7-.6a.9.9 0 011-1.2c.1 0 .2 0 .3-.2.5-.9 1.2-1.7 1.8-2.5.2-.4.3-.4-.1-.6-.5-.3-1-.7-1.3-1.1-.8-.8-1.4-1.7-2.3-2.4l-1-1.3c0-.2-.2-.5-.4-.6-.2-.1-.4.1-.7.2l-2.6 1.1-.9.5c-.2 0-.2.2-.1.4l.1.4c.1.3 0 .6-.3.8-.3.2-.6.2-.9 0a1 1 0 01-.5-.4l-.4-1-.2-.5c-.2-.2-.3-.6-.2-.9 0-.3.2-.5.5-.6.3-.1.6 0 .8.2l.2.2c0 .2.2.2.3 0l1.5-.6 2.3-1c.4-.1.4-.1.2-.5-.5-1.3-.9-2.6-1.1-4 0-.2-.1-.3-.4-.3h-1.4c-.3 0-.4.1-.4.4 0 .4-.2.7-.5.8a.8.8 0 01-.9-.6V33l-.1-1.6.1-.5a.7.7 0 011.4 0c.1.4.1.4.5.3h1c.5 0 .5 0 .5-.3v-2.5c.3-1.1.5-2.3 1-3.5.1-.4.4-.8.7-1.2l.4-.5c.2-.3 0-.4-.1-.5l-.4-.1c-.1-.1-.3-.1-.4 0l-.3.2a.8.8 0 01-1.1-.7c0-.3.1-.7.3-1l.7-.9c.2-.3.6-.5 1-.3.3.2.5.5.3 1 0 .2 0 .3.2.4l.7.4c.4-.7 1-1.3 1.6-2 .5-.8 1.2-1.4 2-1.9l2.4-1.2c.1 0 .2-.1.1-.3-.5-1-1-1.8-1.8-2.6-.1-.2-.3-.2-.5-.1-.3.2-.6.1-1 .1a.6.6 0 01-.5-.4v-.6l.2-.2c.8-.4 1.5-1 2.3-1.3.1-.1.3-.2.5-.1a.8.8 0 01.6 1.1 3 3 0 01-.4.5l.9 1.2 1 1.7c.2.4.2.4.7.3l1.5-.5a4 4 0 011-.2c1.3 0 2.6-.2 3.8-.1.3 0 .4 0 .5-.3.1-.6.3-1.1.2-1.8a3 3 0 01.2-1.6c.4-.9.3-1.8.4-2.8h-.7a.9.9 0 01-.5-.8c0-.4.2-.8.6-.9a4 4 0 011.6-.2l1.2.2c.2 0 .4.2.5.3.3.1.4.5.3.7-.1.3-.4.5-.7.6h-.5c-.2-.1-.3 0-.3.2v1c0 .8-.2 1.4-.4 2-.2.6-.3 1.2-.2 1.8l-.1.8-.3 1 .4.2c2.4.7 4.6 1.7 6.5 3.4.2.2.4.2.6 0 .2 0 .3 0 .4-.2l1.4-1.5 1.4-1.7c.3-.2.3-.2 0-.6v-.4a1 1 0 011.3-1.2l.3.2c.6.7 1.4 1.1 1.8 2 .3.6 0 1.2-.5 1.4l-.7-.1c-.3-.2-.6-.1-.9.1l-3.1 3.3c-.2.3-.2.3 0 .6a14.7 14.7 0 012.7 4.4l.3.8c0 .2.2.2.3.2l1.3-.6.2-.3c.1-.6.7-.7 1.2-.5 1 .4 1.3 2 .5 2.8-.3.3-.8.2-1.1-.2-.2-.1-.2-.4-.4-.4a14 14 0 01-1.2.5c-.2 0-.3.1-.2.3a17.8 17.8 0 010 5.7c0 .2.1.3.3.3l.8.2c1 .1 1.8.4 2.6.9.3.2.5.3.9.2.3-.1.6 0 .9.1.2.1.3.2.5-.1.1-.3.4-.4.7-.3.3 0 .5.3.5.6 0 .7 0 1.4-.2 2.2 0 .4-.4.6-.7.6-.4 0-.7-.3-.7-.8 0-.2.2-.4 0-.6l-.5-.1-.4-.1c-.6.1-1.1 0-1.6-.4-.9-.5-1.9-.8-2.9-1-.4 0-.4 0-.5.3-.2.9-.6 1.7-1 2.4l-.8 1.2v.3c.7.3 1.2.8 1.8 1.2h.4a.7.7 0 01.9 1c-.2.5-.5.9-.8 1.2a.7.7 0 01-1.1-.4c0-.4-.2-.6-.4-.8l-1.4-1c-.2-.2-.3-.2-.5 0A13 13 0 01308 43c-.2 0-.2.2-.1.3l1 2.2z"/></g><path d="M308.5 21.4a1.4 1.4 0 01-2.2 1.2 2 2 0 01-.5-.4.9.9 0 01-.1-1c.2-.4.4-.8.8-1 .5-.2 1.5.2 1.8.7l.2.5zM289 21.7c0 .5-.2.9-.7 1.1-.5.3-1 .3-1.4 0a.8.8 0 01-.4-1v-.5c.1-.4.3-.7.7-.9.1-.1.4-.2.6 0 .3 0 .6.2.8.4.3.2.4.5.4.9zM295.4 31.2c0 .6-.4 1.2-1 1.5-.4.1-.8 0-1.1-.3-.4-.4-.5-1-.3-1.4l.3-.5c.1-.3.5-.6 1-.5.6 0 1.1.6 1.1 1.2zM300.5 19.7c-.4 0-.7-.1-1-.4a1 1 0 01.1-1.7c.5-.2 1-.4 1.5-.2.4.1.7.5.8 1 0 .4-.2.8-.6 1-.2.2-.5.3-.8.3zM294.6 21c0 .7-.8 1.4-1.6 1-.3 0-.5-.1-.7-.3a1 1 0 01-.3-1c.1-.6.6-1 1.2-1s1 .3 1.3.8v.4zM302.7 28.2a1.4 1.4 0 01-1.8 1.3 1 1 0 01-.7-1.3l.5-1a1 1 0 011.1-.2c.5.2.9.7.9 1.2zM293.9 43.5c0-.5.3-1 .7-1.3.3-.2.6-.2.9 0 .4.2.8.4.9 1 0 .5-.3 1-.7 1.3-.4.2-.8.3-1.2.1s-.6-.6-.6-1.1zM286.7 28.8c0-.5.1-.8.4-1.1.1-.2.4-.3.6-.2.5 0 1 .4 1.1 1 0 .5-.3 1-.8 1.3a1 1 0 01-1.3-1zM290.3 37.7c0 .4-.2.8-.7 1-.4 0-.9 0-1.2-.4-.2-.4-.4-.8-.1-1.3a1 1 0 011.4-.4c.5.4.6.7.6 1.1zM297.7 41c0-.6.4-1 1-1s1 .5 1 1c0 .6-.4 1.1-1 1.1s-1-.4-1-1z" fill="#979797"/><path d="M305 42c-.3 0-.6 0-.7-.4-.2-.3-.1-.7.1-.9l.3-.3c.2-.4.7-.5 1-.3.5.2.7.6.6 1-.2.6-.6 1-1.2 1z" fill="#999"/><path d="M285.4 34.7c-.8 0-1.3-.9-.9-1.6.3-.6.8-.7 1.3-.3.5.3.6.9.4 1.4-.1.3-.5.5-.8.5z" fill="#989898"/><path d="M311.3 35c0 .4-.1.7-.3 1-.2.4-.6.5-1 .4a.9.9 0 01-.4-1c0-.3.2-.6.4-1 .1-.2.5-.3.8-.2.3 0 .5.3.5.8zM308.4 25.6l.2-.8c0-.3.5-.5.8-.4.6.2 1.1 1.3.4 2-.2.2-.6.3-.9.1-.3-.1-.5-.4-.5-.9zM303.8 35.2c0 .7-.7 1.2-1.3 1a.8.8 0 01-.5-1V35c.2-.6.5-.8 1-.8s.8.5.8 1z" fill="#979797"/><path d="M296.8 24c.4 0 .7.2.8.5.1.3 0 .7-.2 1h-.4c-.4.1-.8 0-1-.4-.2-.3-.1-.8.3-1l.5-.1z" fill="#969696"/><path d="M84.4 29.4l.3-.1c.3-.2.7 0 1 .2a.5.5 0 010 .8c-.6.5-1.3.7-2 .8l-.4-.1a.5.5 0 01-.1-.8c.1-.2.2-.4 0-.6l-.6-1.5-.6.3-2.3 1-1.7.3c-.2 0-.3.1-.3.3v1.2l-.1 1.2v.5h1c.2.1.3.3.3.6 0 .2-.2.4-.4.4l-1.9.5H76a.7.7 0 010-1.3l.2-.2.4-.1v-.4l.1-2.5h-.4c-1.5.1-3-.1-4.3-.6-.4 0-.8-.2-1.1-.3h-.3a181 181 0 01-1.1 2.1l.2.3c.2.2.2.5 0 .7 0 .3-.3.4-.6.4a7 7 0 01-1.3-.4 1 1 0 01-.5-.5.7.7 0 01.7-.9l.3-.1 1.3-2c.2-.2.2-.2 0-.4l-1-.8c-.6-.6-1-1.3-1.7-1.8l-.7-1c-.1-.2-.2-.4-.4-.4-.1-.1-.3 0-.5.1l-2 .9-.6.3c-.2 0-.2.2-.1.3v.3c.1.3 0 .5-.2.7h-.7a.7.7 0 01-.3-.4l-.3-.8-.2-.3a.9.9 0 01-.2-.7c0-.2.2-.4.4-.5.3 0 .5 0 .7.2v.2h.3a21 21 0 012.9-1.2c.3-.1.3-.1.2-.4-.5-1-.7-2-1-3 0-.2 0-.3-.2-.2h-1c-.2 0-.3 0-.3.2a.5.5 0 01-.5.6.6.6 0 01-.6-.4V20v-1.2-.4a.6.6 0 011 0c.1.3.1.3.4.2h.8c.3 0 .3 0 .3-.2l.1-1.9.6-2.6.6-.9.3-.4v-.3l-.4-.2H65l-.3.2a.6.6 0 01-.8-.5c0-.3 0-.5.2-.7l.6-.8c.1-.2.4-.3.7-.2a.5.5 0 01.2.8l.1.3.6.3c.3-.6.8-1 1.2-1.5.4-.6 1-1 1.5-1.4l1.8-1c.1 0 .2 0 .1-.2l-1.3-2c-.1 0-.2-.1-.4 0s-.5.1-.8 0a.5.5 0 01-.4-.2v-.5l.2-.1c.6-.4 1-.8 1.7-1l.4-.1a.6.6 0 01.4.9l-.3.3.7 1c.3.3.6.7.8 1.2.1.3.1.3.5.2l1.1-.3.8-.2c1 0 2-.2 2.9-.1.2 0 .3 0 .3-.2l.2-1.3.1-1.2c.3-.7.3-1.5.3-2.2a1 1 0 01-.5 0 .7.7 0 01-.4-.6c0-.3.2-.6.5-.6a3 3 0 011.2-.2l1 .2.3.1c.2.2.2.4.2.6 0 .2-.3.4-.5.4a3 3 0 01-.4 0c-.1 0-.2 0-.2.2 0 .3-.1.5 0 .8 0 .5-.2 1-.4 1.5-.1.4-.2.9-.1 1.3l-.1.6-.2.8.3.1c1.8.5 3.5 1.4 5 2.6 0 0 .2.1.4 0l.2-.1c.4-.4.8-.8 1-1.2l1.2-1.3c.1-.2.1-.2 0-.4V6a.7.7 0 011-1l.2.2c.4.5 1 .9 1.3 1.5.2.5 0 1-.4 1h-.5c-.2-.2-.4 0-.6 0l-2.4 2.6c-.2.2-.2.2 0 .4a11.2 11.2 0 012 3.3l.3.6c0 .1 0 .2.2.1l1-.4V14c.2-.5.6-.5 1-.4.7.3 1 1.5.4 2-.2.3-.6.3-.9 0 0-.1 0-.3-.3-.3l-.4.1-.5.2s-.2.1-.1.3c.3 1.4.2 2.7 0 4.1v.2c0 .1 0 .2.2.2l.7.1a5 5 0 011.9.7c.2.2.4.2.7.1.2 0 .4 0 .6.2.2 0 .3 0 .4-.2.1-.2.3-.3.6-.2.2 0 .3.3.3.5l-.1 1.6a.5.5 0 01-.6.5c-.3 0-.5-.3-.5-.6 0-.1.1-.3 0-.4l-.3-.2h-.4c-.4 0-.8 0-1.1-.3-.7-.4-1.5-.6-2.2-.7-.3 0-.3 0-.4.2-.2.6-.4 1.2-.8 1.8l-.6.9.1.2c.4.3.9.5 1.3.9h.3a.5.5 0 01.7.8 4 4 0 01-.6.9.5.5 0 01-.9-.4c0-.3 0-.4-.3-.5l-1-.8c-.2-.1-.2-.2-.4 0-.5.7-1.1 1.3-1.8 1.8-.1.1-.2.2 0 .3l.7 1.7z" fill="#444"/><path d="M84.1 11.3a1 1 0 01-1.6.9l-.4-.3a.7.7 0 010-.8c0-.3.2-.6.5-.7.4-.2 1.2 0 1.4.5l.1.4zM69.5 11.5c0 .3-.2.7-.5.8-.4.2-.7.3-1.1 0a.6.6 0 01-.3-.7v-.4c0-.3.2-.6.5-.7h.5l.6.3c.2.2.3.4.3.7zM74.3 18.6c0 .5-.3 1-.7 1.1-.3.2-.7 0-1-.2a.9.9 0 010-1l.1-.4c.1-.3.4-.4.7-.4.5 0 .9.4 1 1zM78.1 10a1 1 0 01-.7-.3.8.8 0 010-1.3c.4-.2.8-.3 1.2-.2.3.1.5.4.5.7.1.4 0 .7-.4.9a1 1 0 01-.6.2zM73.7 10.9c0 .6-.6 1.1-1.2.9a2 2 0 01-.5-.3.7.7 0 01-.3-.8 1 1 0 011-.7c.4 0 .7.2 1 .6v.3zM79.8 16.4a1 1 0 01-1.4 1 .8.8 0 01-.5-1c0-.3.2-.5.4-.7.2-.3.5-.3.8-.2.4.1.7.5.7.9zM73.2 27.9c0-.4.2-.8.5-1 .2-.1.5-.2.7 0 .3.1.6.3.6.7s-.2.8-.5 1c-.2.2-.6.3-.9.1-.3-.2-.4-.5-.4-.8zM67.7 16.8c0-.3.1-.6.3-.8l.5-.2c.4 0 .7.4.8.8 0 .4-.2.8-.6 1a.8.8 0 01-1-.8zM70.5 23.5c0 .4-.2.7-.6.7-.3.1-.6 0-.9-.2a1 1 0 010-1 .7.7 0 011-.3c.4.3.5.5.5.8zM76 26c0-.5.3-.7.8-.7.4 0 .8.3.8.7 0 .5-.4.9-.8.9-.5 0-.7-.3-.7-.9z" fill="#979797"/><path d="M81.6 26.8a.6.6 0 01-.6-.3v-.7c.2 0 .2-.2.3-.3.2-.2.5-.3.8-.2.3.1.5.5.4.8a1 1 0 01-1 .7z" fill="#999"/><path d="M66.7 21.3c-.5 0-.9-.7-.6-1.3a.6.6 0 011-.2c.3.2.4.7.2 1 0 .3-.3.5-.6.5z" fill="#989898"/><path d="M86.3 21.5c0 .3-.1.5-.3.8-.1.2-.4.3-.7.2a.6.6 0 01-.3-.7c0-.3.1-.5.3-.7.1-.2.4-.3.6-.2.2 0 .4.3.4.6zM84.1 14.4l.1-.6c0-.2.4-.4.6-.3.5.1.9 1 .4 1.5-.2.2-.5.2-.7.1-.3-.1-.4-.3-.4-.7zM80.6 21.6c0 .5-.5 1-1 .8a.6.6 0 01-.3-.7v-.2a.6.6 0 01.7-.6c.4 0 .6.4.6.7z" fill="#979797"/><path d="M75.3 13.2c.3 0 .6.1.7.4 0 .2 0 .5-.2.7h-.3a.9.9 0 01-.7-.3.5.5 0 01.2-.7h.3z" fill="#969696"/><path d="M23.8 48.3l.3-.1c.4-.1.8 0 1 .2a.5.5 0 010 .8c-.5.5-1.2.8-2 .8l-.4-.1a.5.5 0 01-.1-.8c.2-.1.2-.3.1-.5L22 47l-.5.2-2.4 1c-.5.1-1.1.3-1.7.3-.2 0-.3.1-.3.3v2.9h.9l.3.6c0 .2-.2.4-.4.5l-1.8.5-.7-.1a.7.7 0 01-.1-1.3l.2-.1c.1 0 .3 0 .4-.2v-.4c.1-.8 0-1.6.2-2.5h-.4c-1.5.2-3 0-4.4-.5l-1.1-.4-.2.1a181 181 0 01-1.2 2l.3.3a.7.7 0 01-.7 1.1 7 7 0 01-1.2-.4 1 1 0 01-.6-.5.7.7 0 01.7-.9h.4l1.3-2c.2-.3.2-.2-.1-.4a5 5 0 01-1-.9c-.5-.6-1-1.3-1.7-1.8l-.7-1-.3-.4-.5.2-2 .8-.7.3c-.1.1-.2.2 0 .3v.3c0 .3 0 .5-.2.7H1a.7.7 0 01-.4-.4l-.3-.7c0-.1 0-.3-.2-.3a.8.8 0 01-.1-.7c0-.3.2-.4.4-.5.3 0 .6 0 .7.3 0 .2.2.1.3 0a19.7 19.7 0 012.8-1.2c.3 0 .3 0 .2-.4l-.9-3c0-.1 0-.2-.2-.2H2.3c-.2 0-.3 0-.3.3a.5.5 0 01-.4.6.7.7 0 01-.7-.7v-1.2-.4a.6.6 0 011 0c.2.3.2.3.5.3h.8c.3 0 .3 0 .3-.3v-1.8c.2-.9.3-1.8.7-2.6.1-.4.3-.7.6-1l.3-.4-.1-.3-.3-.1h-.3l-.3.2a.6.6 0 01-.8-.6c0-.2.1-.5.3-.7l.5-.7c.2-.3.5-.4.7-.2a.5.5 0 01.3.7v.3l.7.3L7 28.8c.4-.6.9-1 1.5-1.4l1.8-1s.2 0 0-.2c-.3-.6-.7-1.3-1.3-2h-.3c-.3.1-.6.2-.8.1a.5.5 0 01-.4-.3c-.1-.2 0-.5.1-.6.6-.3 1.1-.8 1.7-1 .2 0 .3-.1.4 0a.6.6 0 01.5.8l-.3.4c.2.2.5.5.6.8l.8 1.3c.2.3.2.3.5.2.4 0 .8-.2 1.1-.3l.8-.2c1 0 2-.2 3 0 .1 0 .2-.1.2-.3.1-.4.3-.9.2-1.3 0-.4 0-.8.2-1.2.3-.7.2-1.4.3-2.2a1 1 0 01-.5 0 .7.7 0 01-.4-.6c0-.3.1-.5.4-.6a3 3 0 011.2-.1l1 .1s.2 0 .3.2c.2.1.3.3.2.6 0 .2-.2.3-.5.4H19l-.3.1v.9c0 .5-.1 1-.3 1.4-.2.5-.2.9-.2 1.3v.7l-.3.7.4.2c1.8.4 3.5 1.3 4.9 2.5.1.1.3.2.4 0l.3-.1 1-1.2 1.1-1.2c.2-.2.2-.2 0-.5v-.3a.7.7 0 011-1l.3.3c.4.5 1 .8 1.3 1.5.2.4 0 .9-.4 1h-.5c-.3-.3-.5-.2-.7 0l-2.4 2.5c-.1.2-.1.2 0 .4a11 11 0 012 3.3l.3.6c0 .2.1.2.3.2l1-.5V33c.1-.5.6-.5 1-.4.7.3 1 1.6.4 2.1-.3.3-.7.2-1 0 0-.2 0-.4-.2-.4s-.3 0-.4.2c-.2 0-.3 0-.5.2-.2 0-.2 0-.2.2.3 1.4.2 2.8.1 4.1v.2c0 .1 0 .2.2.2l.6.1a5 5 0 012 .7c.1.2.4.2.6.2h.7c.1.1.3.2.4 0 0-.2.3-.4.5-.3.2 0 .4.3.4.5 0 .6 0 1.1-.2 1.6a.5.5 0 01-.5.5c-.3 0-.5-.2-.5-.6v-.4l-.4-.1-.3-.1c-.4 0-.9 0-1.2-.2-.7-.5-1.4-.7-2.2-.8-.3 0-.3 0-.3.2l-.9 1.8-.5.9v.2l1.3.9h.3a.6.6 0 01.7.8 4 4 0 01-.6.9.5.5 0 01-.8-.3c0-.3-.2-.5-.3-.6l-1-.8c-.2-.1-.3-.1-.4 0L23 46.4s-.1.1 0 .2l.7 1.7z" fill="#444"/><path d="M23.6 30.2a1 1 0 01-1.6 1l-.4-.4a.7.7 0 01-.1-.8c.1-.3.3-.6.6-.7.4-.2 1.1.1 1.4.5v.4zM9 30.4c0 .3-.3.7-.6.8a1 1 0 01-1 0 .6.6 0 01-.4-.7l.1-.4c0-.3.2-.5.4-.7H8l.6.3c.2.2.3.4.3.7zM13.8 37.5c0 .5-.3 1-.8 1.2-.3 0-.6 0-.9-.3a.9.9 0 01-.1-1l.2-.4c0-.2.4-.4.6-.4.5 0 1 .4 1 1zM17.6 28.9a1 1 0 01-.8-.3.8.8 0 01.1-1.3c.4-.2.7-.3 1.1-.2.4.1.6.4.6.8 0 .3-.1.6-.4.8a1 1 0 01-.6.2zM19.2 35.3a1 1 0 01-1.3 1 .8.8 0 01-.5-1c0-.3.1-.5.3-.7.2-.3.6-.3.9-.2.3.1.6.5.6 1zM12.6 46.8c0-.4.3-.7.6-1h.6c.3.2.6.4.7.8s-.2.7-.5 1c-.3.2-.6.2-1 0-.3-.1-.4-.4-.4-.8zM10 42.4c0 .4-.3.7-.6.8-.3 0-.7 0-1-.3a1 1 0 010-1 .7.7 0 011-.3c.4.3.5.5.5.8z" fill="#979797"/><path d="M21 45.7a.6.6 0 01-.6-.3c-.1-.2 0-.5.1-.7l.2-.2c.2-.3.6-.4.9-.3.2.2.4.5.3.8a1 1 0 01-.9.7z" fill="#999"/><path d="M25.7 40.4c0 .3 0 .5-.2.8-.2.3-.5.4-.8.2a.6.6 0 01-.3-.7c0-.3.2-.5.3-.7.1-.2.4-.3.7-.2.2 0 .3.3.3.6z" fill="#979797"/><path d="M43.3 92.8h.7a.3.3 0 010 .5c-.3.2-.7.4-1 .4h-.3a.3.3 0 010-.5V93l-.3-.8-.4.2-1.2.5-.9.2-.1.1V94.7h.4c.1 0 .2.1.2.3 0 0 0 .2-.2.2l-1 .3H39a.4.4 0 01-.1-.7l.1-.1h.2v-.3l.1-1.3H39c-.8 0-1.6 0-2.3-.3l-.6-.2H36l-.6 1v.1l.1.2c.1 0 .1.2 0 .4 0 0-.2.2-.3.1-.2 0-.5 0-.7-.2a.5.5 0 01-.3-.2.3.3 0 01.4-.5h.2l.7-1v-.3l-.6-.4-.9-1-.3-.5-.2-.2h-.3l-1 .5-.4.2V91l-.1.3c-.1.1-.3.1-.4 0l-.2-.2-.1-.4-.1-.1-.1-.4c0-.1 0-.2.2-.2h.3v.1c.1.1.2.1.2 0l.6-.2 1-.4v-.2a7 7 0 01-.4-1.6l-.2-.1H32v.2l-.3.3-.4-.2v-.2-.6-.2l.3-.2c.2 0 .3 0 .3.2 0 .1 0 .2.2.1h.4l.2-.1a6.2 6.2 0 01.4-2.4c0-.2.1-.3.3-.5l.1-.2v-.1l-.2-.1h-.1-.2a.3.3 0 01-.4-.2l.1-.4.3-.3c0-.2.3-.2.4-.2a.3.3 0 01.1.4v.2c.2 0 .3 0 .4.2a6.1 6.1 0 011.4-1.6l1-.5v-.1l-.7-1s-.1-.1-.2 0h-.4a.3.3 0 01-.2-.4v-.1l1-.5h.2a.3.3 0 01.2.4l-.1.2.3.5.4.6c0 .2 0 .2.3.1l.6-.1.4-.1h1.5l.2-.2v-.7c0-.2 0-.4.2-.6V78h-.2a.4.4 0 01-.2-.3c0-.1.1-.3.3-.3H41c0 .2.1.3 0 .4 0 .1 0 .2-.2.2h-.2-.1v.5c0 .3 0 .5-.2.8v1l-.2.4h.2c1 .3 1.8.8 2.6 1.4H43.3l.6-.7.5-.6v-.3-.1a.4.4 0 01.6-.5h.1l.7.9c.1.2 0 .4-.2.5H45l-1.3 1.3v.2a5.8 5.8 0 011.1 1.8l.1.3s0 .1.1 0l.6-.2c0-.3.3-.3.5-.3.4.2.5.8.2 1.1a.3.3 0 01-.5 0l-.1-.2-.2.1-.3.1v.1a7 7 0 010 2.2v.2h.4l1 .4c.1.1.3.1.4 0 .1 0 .2 0 .3.2l.2-.1c0-.1.2-.2.3-.1l.2.2v.9a.3.3 0 01-.4.2.3.3 0 01-.2-.3v-.2h-.2l-.2-.1-.6-.1c-.4-.2-.7-.4-1.1-.4H45l-.5 1c0 .2-.2.3-.3.5v.1l.7.5h.2a.3.3 0 01.4.4l-.3.5a.3.3 0 01-.5-.2c0-.1 0-.2-.2-.3l-.5-.4h-.2a5 5 0 01-1 1v.1l.4.9z" fill="#444"/><path d="M43.1 83.3a.6.6 0 01-.8.5l-.2-.2a.4.4 0 010-.4c0-.2.1-.3.3-.4.2 0 .5 0 .7.3v.2zM38 87.1c0 .3-.2.5-.4.6l-.5-.1a.5.5 0 010-.5v-.2c.1-.2.3-.3.4-.2.3 0 .5.2.5.4zM40 82.6c-.1 0-.3 0-.4-.2a.4.4 0 010-.6c.2-.2.4-.2.6-.1.2 0 .3.2.3.4 0 .1 0 .3-.2.4H40zM37.7 83a.5.5 0 01-.7.5 1 1 0 01-.3-.1.4.4 0 010-.4c0-.2.2-.4.4-.4s.4.1.5.3v.2zM40.9 86a.5.5 0 01-.7.5.4.4 0 01-.3-.6s0-.2.2-.3c.1-.1.3-.2.4-.1.2 0 .4.3.4.5zM37.4 92c0-.2.1-.4.3-.5h.3c.2 0 .3.2.4.4 0 .2-.1.4-.3.5h-.5a.5.5 0 01-.2-.4zM36 89.7c0 .2-.1.4-.3.4l-.5-.1a.5.5 0 010-.6.4.4 0 01.5-.1c.2 0 .3.2.3.4z" fill="#979797"/><path d="M41.8 91.4l-.3-.1v-.4l.2-.1c0-.2.2-.2.4-.1l.2.4c0 .2-.3.3-.5.3z" fill="#999"/><path d="M44.3 88.7l-.1.4c-.1.1-.3.2-.5 0a.3.3 0 01-.1-.3l.1-.4c.1 0 .3-.1.4 0 .1 0 .2.1.2.3zM43.1 85v-.4l.4-.2c.3.1.5.6.2.8-.1.1-.2.1-.4 0a.3.3 0 01-.2-.3z" fill="#979797"/><path d="M15.5 127.5H16.1a.2.2 0 010 .4c-.2.2-.5.3-.8.3H15a.2.2 0 010-.3v-.3l-.3-.6-.2.1-1 .4-.7.2v.6l-.1.5v.2h.4l.1.2s0 .2-.2.2l-.7.2h-.3a.3.3 0 010-.6h.2v-.3-1c-.7 0-1.3 0-1.9-.2l-.4-.1h-.1a120.2 120.2 0 01-.4 1v.3s-.1.1-.2 0a3 3 0 01-.6 0 .4.4 0 01-.2-.3.3.3 0 01.3-.3H9l.6-.9v-.1a2 2 0 01-.5-.4l-.6-.7c-.2-.1-.3-.3-.3-.4l-.2-.2h-.2l-.8.4-.3.2v.5h-.3l-.2-.2-.1-.3-.1-.1v-.3a.2.2 0 01.4-.1h.1c.2 0 .3 0 .5-.2l.7-.2c.1 0 .1 0 0-.2l-.3-1.2-.1-.1h-.5a.2.2 0 01-.2.3l-.3-.1v-.1-.5-.2a.2.2 0 01.4 0l.2.1H7l.1-.1a5 5 0 01.3-1.8c0-.2.2-.3.3-.4v-.2c.1 0 .1 0 0-.1h-.2a.2.2 0 01-.4-.2v-.3l.3-.3a.2.2 0 01.4 0V120l.3.2a4.7 4.7 0 011-1.2l.8-.4c-.1-.4-.3-.6-.5-.9h-.2H9l-.1-.1v-.2l.7-.5h.2a.3.3 0 01.2.4l-.1.1.2.4c.1.1.3.3.3.5h.7l.3-.1h1.2l.1-.2.1-.5v-.5c.2-.3.2-.6.2-.9h-.2a.3.3 0 01-.2-.2l.2-.3h1l.1.3c0 .1 0 .2-.2.2h-.2v.4l-.2.6v.8l-.2.3h.2a5 5 0 012 1.2h.2v-.1l.5-.5.4-.5c.1-.1.1-.1 0-.2v-.1l.1-.4h.5l.5.7a.3.3 0 01-.2.4h-.2-.2l-1 1v.2a4.6 4.6 0 01.8 1.3l.1.3h.1l.4-.1v-.1c0-.2.3-.2.4-.2a.6.6 0 01.2.9.2.2 0 01-.4 0v-.2h-.2l-.3.2V124h.3c.3 0 .6.2.8.3h.3l.3.1h.1l.3-.1.1.2v.6c0 .2-.2.3-.3.2a.2.2 0 01-.2-.2v-.2h-.1-.2c-.1 0-.3 0-.4-.2l-1-.3v.1l-.4.7-.2.4v.1l.5.4h.1a.2.2 0 01.3.3l-.2.3-.2.1-.2-.2-.1-.2-.4-.3H16a4 4 0 01-.7.7s-.1 0 0 .1l.2.7z" fill="#444"/><path d="M15.5 120.1a.4.4 0 01-.7.4l-.2-.1v-.4l.2-.2c.3 0 .5 0 .6.2v.1zM9.5 120.2l-.2.3h-.5a.3.3 0 01-.1-.3v-.1l.2-.3h.2l.2.1.2.3zM11.4 123.1c0 .2 0 .4-.3.5l-.3-.1a.4.4 0 010-.4v-.2c0-.1.1-.2.3-.2.2 0 .3.2.3.4zM13 119.6l-.3-.1a.3.3 0 010-.6h.5c.1 0 .2.1.2.3l-.1.3H13zM13.7 122.2a.4.4 0 01-.6.4.3.3 0 01-.2-.4l.2-.3h.3c.2 0 .3.1.3.3zM11 126.9c0-.2 0-.3.2-.4h.3s.2.1.2.3c0 .2 0 .3-.2.4h-.3a.4.4 0 01-.2-.3z" fill="#979797"/><path d="M14.4 126.5s-.2 0-.2-.2v-.3l.4-.2.2.4c0 .1-.2.3-.4.3z" fill="#999"/><path d="M8.3 124.2a.3.3 0 01-.2-.5.3.3 0 01.4-.1c.1.1.2.3 0 .4 0 .1 0 .2-.2.2z" fill="#989898"/><path d="M14 124.3a.3.3 0 01-.4.3.2.2 0 01-.1-.2v-.1a.2.2 0 01.3-.2l.2.2z" fill="#979797"/><path d="M28.7 187.3l.4-.2c.4-.1.8 0 1.1.3a.6.6 0 010 1c-.6.5-1.4.9-2.3 1a1 1 0 01-.5-.2c-.4-.3-.5-.7-.2-1 .2-.1.3-.4.2-.6l-.8-1.8c-.3 0-.5.2-.7.3-1 .4-1.9.8-2.8 1l-2 .6c-.3 0-.4 0-.4.3v1.5l-.1 1.5v.5l.5-.1.6.1c.3.1.4.4.4.7 0 .2-.2.5-.5.5l-2.1.6-.9-.1c-.6-.3-.7-1-.2-1.5l.3-.1c.2-.1.4 0 .5-.2v-.5c.2-1 0-2 .2-3h-.5c-1.8.2-3.5-.1-5.2-.6l-1.3-.5-.3.1a327 327 0 01-1.4 2.5l.3.3a.8.8 0 01-.7 1.3l-1.5-.4c-.3-.1-.6-.3-.7-.6a.8.8 0 01.9-1.1c.1 0 .3 0 .4-.2.4-.8 1-1.5 1.5-2.2.3-.4.3-.3 0-.6a6 6 0 01-1.2-1l-2-2.2c-.4-.3-.6-.7-.9-1.1-.1-.2-.2-.5-.4-.6l-.6.3-2.4 1c-.3 0-.5.2-.8.4-.2 0-.2.1-.1.3l.1.4c0 .3 0 .6-.3.8-.2.1-.5.1-.8 0a.9.9 0 01-.4-.5l-.4-.9-.2-.4a1 1 0 01-.2-.8c0-.3.2-.5.5-.6.2 0 .5 0 .7.3l.1.1c.1.2.2.2.4.1l1.3-.7 2-.8c.4-.1.4-.1.3-.5-.5-1.1-.9-2.3-1-3.6 0-.2-.2-.3-.4-.2H3c-.2 0-.3 0-.3.3s-.2.6-.5.7a.7.7 0 01-.8-.5v-.3-1.4-.5a.7.7 0 011.3 0c.1.4.1.4.4.3h1c.4 0 .4 0 .4-.3v-2.2c.2-1 .4-2.1.8-3.1l.7-1.1.4-.5c.1-.2 0-.3-.2-.4l-.3-.2h-.3l-.4.3a.7.7 0 01-1-.7c0-.3.2-.6.4-.8l.6-1a.6.6 0 011.2.2v.5c-.1.2-.1.3.1.4l.7.4 1.4-1.9c.5-.7 1.1-1.2 1.9-1.6.7-.4 1.3-.9 2-1.2.2 0 .3 0 .2-.2-.5-.8-1-1.7-1.6-2.4-.2-.1-.3-.2-.5 0h-.9a.6.6 0 01-.5-.3l.1-.6.2-.1c.6-.4 1.2-1 2-1.2.1-.1.3-.2.5-.1a.7.7 0 01.5 1l-.4.5.8 1 1 1.5c.1.4.1.4.6.3l1.3-.4 1-.2c1 0 2.2-.2 3.4-.1.2 0 .3 0 .4-.3 0-.5.3-1 .2-1.6 0-.5 0-1 .2-1.4.3-.8.3-1.7.3-2.6a1 1 0 01-.6 0 .8.8 0 01-.5-.7c0-.4.3-.7.6-.8.5-.1 1-.2 1.4-.1.4 0 .8 0 1.2.2.1 0 .3 0 .4.2.2.1.3.4.2.7 0 .2-.3.4-.6.4a3 3 0 01-.4 0c-.2 0-.3 0-.3.2v1c0 .6-.2 1.2-.4 1.8-.2.5-.3 1-.2 1.5v.8l-.4.9.5.2c2.1.5 4.1 1.6 5.8 3 .2.2.4.2.6 0l.3-.1a8 8 0 001.2-1.4l1.3-1.5c.2-.3.3-.3.1-.6l-.1-.3a.9.9 0 011.2-1.1l.3.1c.5.7 1.2 1 1.6 1.8.2.6 0 1.2-.5 1.3l-.6-.1c-.3-.2-.5 0-.8.1l-2.8 3c-.2.2-.2.3 0 .5a13 13 0 012.4 4l.3.7c0 .1.2.2.3.1l1.2-.5v-.2c.2-.6.7-.6 1.2-.5.8.4 1.1 1.8.5 2.5-.3.3-.8.2-1-.1-.2-.1-.2-.4-.4-.4l-.5.2-.6.2c-.2 0-.2.2-.2.3a16 16 0 010 5.2c0 .1.1.2.3.2l.8.2a6 6 0 012.3.8c.2.2.5.2.8.2.2-.1.5 0 .8 0 .1.2.3.2.4 0 .1-.3.4-.4.7-.3.2 0 .4.3.4.6 0 .6 0 1.3-.2 1.9 0 .4-.3.6-.6.6-.4 0-.6-.3-.6-.8 0-.1.1-.3 0-.4-.1-.2-.3-.2-.5-.2-.1 0-.2-.1-.4 0-.5 0-1 0-1.4-.4-.8-.5-1.7-.7-2.6-.9-.3 0-.3 0-.4.3-.2.7-.6 1.4-1 2l-.6 1.2c-.1 0-.1.2 0 .2l1.5 1.1c.2 0 .3.1.4 0a.7.7 0 01.8 1l-.7 1c-.1.2-.4.3-.6.2a.5.5 0 01-.4-.5c0-.4-.1-.6-.4-.7l-1.2-1c-.2-.1-.3-.1-.4 0-.7.9-1.4 1.6-2.3 2.2 0 .1-.1.2 0 .4.4.6.6 1.3.9 2z" fill="#444"/><path d="M28.4 165.6a1.3 1.3 0 01-2 1l-.4-.3a.8.8 0 01-.1-1c.1-.3.3-.6.7-.8.5-.2 1.4.1 1.7.6v.5zM10.9 165.8c0 .5-.3.9-.7 1-.4.3-.8.3-1.3 0a.8.8 0 01-.3-.9v-.4c.1-.4.3-.7.6-.8.2-.1.4-.2.6-.1l.7.4c.2.2.4.5.4.8zM16.7 174.4c0 .5-.4 1-1 1.3a1 1 0 01-1-.3c-.3-.3-.4-.8-.2-1.1l.2-.5c.2-.3.5-.5.9-.5.5 0 1 .5 1 1zM21.2 164c-.3 0-.6 0-.9-.3a1 1 0 01.1-1.5c.5-.3.9-.4 1.4-.3.3.2.6.5.6 1 0 .3-.1.7-.5 1l-.7.1zM15.9 165.1c0 .7-.7 1.4-1.5 1l-.6-.2a.9.9 0 01-.3-1c.2-.5.6-.9 1.1-.9.5 0 1 .3 1.2.7v.4zM23.2 171.7a1.2 1.2 0 01-1.6 1.2 1 1 0 01-.6-1.2c0-.3.2-.6.4-.9.3-.2.6-.3 1-.2.5.2.8.6.8 1.1zM15.3 185.4c0-.4.3-.8.6-1.1.2-.2.5-.2.8 0 .4.2.8.4.8.9s-.2.9-.6 1.1a1 1 0 01-1 .2c-.5-.2-.6-.6-.6-1zM8.7 172.2c0-.4.2-.7.4-1l.6-.2c.5 0 .9.4 1 1 0 .4-.3 1-.8 1.1a1 1 0 01-1.2-1zM12 180.3c0 .4-.2.7-.6.8a1 1 0 01-1-.3c-.3-.3-.4-.8-.2-1.2a.8.8 0 011.3-.3c.4.3.6.6.6 1zM18.7 183.2c0-.5.3-.9.9-.9.5 0 1 .4 1 1 0 .5-.5 1-1 1-.6 0-.9-.4-.9-1z" fill="#979797"/><path d="M25.4 184.2a.7.7 0 01-.8-.4c-.1-.3 0-.6.2-.8l.2-.3c.2-.4.6-.5 1-.3.3.2.5.5.4 1-.1.4-.5.8-1 .8z" fill="#999"/><path d="M7.6 177.6c-.7 0-1.1-.8-.8-1.5.3-.5.8-.6 1.2-.3.4.3.5.8.3 1.3-.1.3-.4.5-.7.5z" fill="#989898"/><path d="M31 177.8l-.3 1c-.2.3-.6.4-1 .3a.8.8 0 01-.3-1l.3-.7c.2-.3.5-.4.8-.3.3 0 .5.3.5.7zM28.4 169.4v-.7c.1-.4.5-.6.8-.5.6.2 1 1.3.4 1.8-.2.2-.5.3-.8.2-.3-.2-.4-.4-.4-.8zM24.2 178c0 .6-.6 1-1.2.9a.7.7 0 01-.4-.9v-.2c.1-.5.4-.7.9-.7.4 0 .7.4.7.9z" fill="#979797"/><path d="M17.9 168c.3-.1.6 0 .7.4.1.3 0 .6-.2.8l-.3.1a1 1 0 01-1-.4c-.2-.3 0-.7.3-.9h.5z" fill="#969696"/><path d="M319 91h.3c.2-.1.5 0 .7.2a.4.4 0 010 .6c-.4.3-1 .6-1.5.6l-.3-.1a.4.4 0 01-.1-.6c.1-.1.1-.3 0-.4 0-.4-.2-.8-.4-1.2l-.5.2-1.8.7c-.4.2-.9.3-1.3.3-.2 0-.2.1-.2.3v1l-.1.9v.3h.7c.2.1.3.3.3.4 0 .2-.2.4-.3.4l-1.4.4a1 1 0 01-.6 0 .5.5 0 01-.1-1l.2-.2h.3v-.4l.1-2h-.3a8 8 0 01-3.4-.4l-.8-.2h-.2a202.3 202.3 0 01-1 1.6c.2 0 .2.2.3.2a.5.5 0 01-.5.9l-1-.3a.7.7 0 01-.4-.4.5.5 0 01.5-.7h.3l1-1.6c.1-.2.2-.2 0-.3l-.8-.7-1.3-1.4-.6-.7c0-.2-.1-.3-.3-.4l-.4.2-1.5.6c-.2 0-.3.2-.5.3-.1 0-.1 0 0 .2v.2c0 .2 0 .4-.2.5-.1.1-.4.2-.5 0a.6.6 0 01-.3-.2l-.2-.6-.2-.3a.7.7 0 01-.1-.5c0-.2.1-.3.3-.4.2 0 .4 0 .5.2.1.2.2.2.3.1a15.4 15.4 0 012.2-1c.2 0 .2 0 .1-.3l-.7-2.3-.1-.2h-1l-.1.2a.4.4 0 01-.3.5c-.3 0-.5 0-.5-.3v-.2l-.1-1v-.3a.4.4 0 01.9 0c0 .3 0 .3.3.3h.6c.2 0 .2 0 .2-.3V81c.2-.7.3-1.4.6-2 0-.3.2-.5.4-.7l.3-.4-.1-.2-.3-.1h-.1l-.3.1a.4.4 0 01-.6-.4c0-.2 0-.4.2-.5l.4-.6a.4.4 0 01.8 0V76.9l.5.3 1-1.2c.2-.5.6-.8 1.1-1l1.4-.8s.1 0 0-.2c-.2-.5-.5-1-1-1.5h-.3a1 1 0 01-.6 0c-.1 0-.2 0-.3-.2v-.4l.2-.1 1.3-.8h.3a.5.5 0 01.3.6l-.2.3.5.7.6 1c.1.2.1.2.4.2l.9-.3.6-.1c.7 0 1.5-.2 2.2-.1.2 0 .2 0 .3-.2 0-.3.2-.6 0-1l.2-1c.3-.5.2-1 .2-1.6h-.3a.5.5 0 01-.4-.5c0-.2.2-.4.4-.5h1.7l.2.2c.2 0 .2.3.2.4 0 .2-.2.3-.4.3a2 2 0 01-.3 0c-.1 0-.2 0-.2.2v.6c0 .4 0 .8-.2 1.2-.1.3-.2.6-.1 1v.4l-.3.6.3.1c1.4.4 2.7 1 3.8 2 .1.1.3.1.4 0h.2l.8-1 .8-1c.2-.1.2-.1 0-.3v-.2a.6.6 0 01.8-.8l.2.2c.3.4.8.6 1 1.1.2.4 0 .8-.3.9l-.4-.1h-.5l-1.8 2c-.2.2-.2.2 0 .3a8.6 8.6 0 011.6 2.6c0 .2 0 .3.2.5 0 0 0 .1.1 0l.8-.3v-.1c.1-.4.5-.4.8-.3.5.2.7 1.2.3 1.6-.2.2-.5.2-.7 0 0-.2 0-.3-.2-.3l-.3.1-.4.2c-.1 0-.2 0-.1.2.1 1 .2 2.1 0 3.2v.1l.1.2h.5c.6.1 1 .3 1.5.6h.6l.5.2.3-.1c0-.2.2-.3.4-.2.2 0 .3.2.3.4l-.1 1.2a.4.4 0 01-.5.4.4.4 0 01-.3-.4v-.4h-.3l-.3-.1c-.3 0-.6 0-.9-.2-.5-.3-1-.5-1.7-.6-.2 0-.2 0-.3.2-.1.5-.3 1-.6 1.3l-.4.7v.2l1 .7h.3a.4.4 0 01.5.6l-.5.7a.4.4 0 01-.6-.2c0-.3-.1-.4-.3-.5l-.8-.6h-.3c-.4.6-.9 1-1.4 1.5 0 0-.1 0 0 .2l.5 1.3z" fill="#444"/><path d="M318.8 77a.8.8 0 01-1.2.7 1 1 0 01-.3-.2.5.5 0 010-.7c0-.2.2-.4.4-.5.3-.1.9 0 1 .4l.1.3zM307.5 77.2c0 .2-.2.5-.4.6-.3.2-.6.2-.9 0a.5.5 0 01-.2-.6V77c0-.2.2-.4.4-.5h.4l.4.2.3.6zM311.2 82.7c0 .4-.2.7-.5.9-.3 0-.6 0-.7-.2a.7.7 0 01-.2-.8l.2-.3c0-.2.3-.3.5-.3.4 0 .7.3.7.7zM314.2 76c-.2 0-.4 0-.6-.2a.6.6 0 010-1c.3-.2.6-.3 1-.2.2.1.4.3.4.6s-.1.5-.3.7h-.5zM310.7 76.7a.7.7 0 01-1 .7l-.3-.2a.5.5 0 01-.2-.6c0-.4.4-.6.7-.6.3 0 .6.2.8.5v.2zM315.5 81a.8.8 0 01-1 .7.6.6 0 01-.5-.8c0-.2.2-.3.3-.5.2-.2.4-.2.6-.1.3 0 .5.4.6.7zM310.3 89.9c0-.3.2-.6.4-.8h.5c.3.1.6.3.6.6s-.2.6-.4.8c-.2.1-.5.2-.7 0a.7.7 0 01-.4-.6zM306 81.3l.3-.6.4-.2c.3 0 .6.3.6.6s-.1.7-.4.8a.6.6 0 01-.8-.6zM308.2 86.5c0 .3-.1.5-.4.6-.2 0-.5 0-.7-.2a.7.7 0 010-.8.5.5 0 01.8-.2c.3.2.3.4.3.6z" fill="#979797"/><path d="M316.9 89c-.2 0-.4 0-.5-.2v-.5l.2-.2c.2-.2.4-.3.7-.2.2.1.3.4.3.6-.1.3-.4.5-.7.6z" fill="#999"/><path d="M305.3 84.8c-.4 0-.7-.6-.5-1a.5.5 0 01.8-.2c.3.2.3.6.2.8 0 .3-.3.4-.5.4z" fill="#989898"/><path d="M316.1 85a.6.6 0 01-.7.6.4.4 0 01-.3-.5v-.2a.5.5 0 01.5-.4c.3 0 .5.3.5.5z" fill="#979797"/><path d="M349.4 157.8h.2c.1-.1.3 0 .4 0a.3.3 0 010 .5c-.2.2-.6.3-1 .4l-.1-.1a.2.2 0 01-.1-.4v-.3c0-.2-.1-.5-.3-.7l-.3.1-1.1.5-.9.2-.1.1v1.4h.4l.2.3-.2.3a9 9 0 01-1 .2h-.3a.3.3 0 010-.7l.3-.1v-.2-1.2h-.2a5 5 0 01-2.1-.3l-.6-.2h-.1l-.6 1 .1.2a.3.3 0 01-.3.5l-.6-.1a.5.5 0 01-.3-.3.3.3 0 01.4-.4l.1-.1.7-1s.1 0 0-.2c-.2 0-.4-.2-.5-.4a11 11 0 00-.9-.9l-.3-.5-.2-.2h-.3l-1 .5-.3.2V156.5h-.4l-.2-.2-.2-.4v-.1c-.1-.1-.2-.3-.1-.4 0 0 0-.2.2-.2h.3v.1c0 .1.1.1.2 0a14.8 14.8 0 011.4-.5c.1-.1.1-.1 0-.2l-.4-1.5v-.2h-.6c-.1 0-.2 0-.2.2 0 .1 0 .3-.2.3-.1 0-.3 0-.3-.2v-.1-.7-.1a.3.3 0 01.5 0c0 .1 0 .1.2 0h.4c.2.1.1 0 .2 0a5.8 5.8 0 01.3-2.3l.3-.4.2-.2v-.2h-.2-.2-.1a.3.3 0 01-.4-.2l.1-.3.3-.4c0-.1.2-.2.3-.1a.3.3 0 01.2.3v.2l.3.2a5.6 5.6 0 011.4-1.5l.9-.5c-.2-.4-.4-.8-.7-1 0-.1 0-.1-.2 0h-.4l-.2-.2v-.2l.1-.1.9-.5h.2a.3.3 0 01.2.4l-.1.2.3.4.4.7c0 .1 0 .1.2 0l.6-.1h.4l1.4-.1.2-.1v-.7l.1-.6.2-1h-.3a.3.3 0 01-.2-.4c0-.1.1-.3.3-.3h1.2l.1.4-.2.2h-.4v.5l-.1.7v.7l-.1.3-.1.4h.1a6 6 0 012.5 1.3H349.4l.6-.7.5-.6v-.2-.1a.4.4 0 01.5-.5h.1l.7.8c0 .3 0 .5-.2.5h-.3-.3l-1.2 1.3v.2a5.6 5.6 0 011 1.6l.2.4.6-.2v-.1c0-.3.3-.3.5-.2.3.1.4.8.2 1a.3.3 0 01-.5 0l-.1-.2-.2.1-.3.1V153.3l.4.1c.3 0 .7.2 1 .4h.3l.3.1h.2c0-.2.2-.2.3-.2l.2.3v.8a.3.3 0 01-.4.2.3.3 0 01-.2-.3v-.2h-.2-.2c-.2 0-.4 0-.6-.2a3 3 0 00-1-.4l-.2.1-.4 1-.3.4.7.5h.1a.3.3 0 01.4.4l-.3.5a.2.2 0 01-.5-.2l-.1-.3-.5-.4h-.2l-1 1v.1l.4.8z" fill="#444"/><path d="M349.3 148.8a.5.5 0 01-.8.4l-.2-.1a.3.3 0 010-.4c0-.1 0-.3.2-.3.3-.1.6 0 .7.2v.2zM344.4 152.4c0 .3-.2.5-.4.6l-.4-.1a.4.4 0 01-.1-.5v-.2l.4-.2c.3 0 .5.2.5.4zM346.3 148.1l-.4-.1a.4.4 0 010-.6c.2-.1.4-.2.6-.1.2 0 .3.2.3.3 0 .2 0 .4-.2.4l-.3.1zM344 148.6a.5.5 0 01-.5.4l-.3-.1a.4.4 0 01-.1-.4c0-.2.2-.4.4-.4.3 0 .4.2.5.3v.2zM347.1 151.3a.5.5 0 01-.7.5.4.4 0 01-.2-.5c0-.1 0-.2.2-.3 0-.1.2-.2.4-.1.2 0 .3.2.3.4zM343.8 157l.3-.4h.3c.2 0 .3.1.3.3 0 .2 0 .4-.2.5-.1.1-.3.2-.5 0a.5.5 0 01-.2-.3zM342.5 154.9c0 .2-.1.3-.3.4-.2 0-.3 0-.4-.2a.5.5 0 01-.1-.5.3.3 0 01.5-.1c.2 0 .3.2.3.4z" fill="#979797"/><path d="M348 156.5l-.3-.1v-.4l.2-.1c0-.1.2-.2.4-.1l.2.4c-.1.2-.3.3-.5.3z" fill="#999"/><path d="M350.3 153.9v.4c-.2.1-.3.2-.5.1a.3.3 0 01-.1-.4l.1-.3c.1-.1.2-.2.4-.1 0 0 .2.1.1.3zM347.5 154a.4.4 0 01-.5.3.3.3 0 01-.2-.3v-.1a.3.3 0 01.4-.3c.2 0 .3.2.3.3z" fill="#979797"/><path d="M319.8 187.4h.2c.1-.2.3-.1.5 0a.3.3 0 010 .4c-.3.3-.6.4-1 .4h-.2a.2.2 0 010-.4v-.3a4 4 0 00-.4-.8l-.2.2-1.2.4a4 4 0 01-.9.2v.2l-.1.6v.8h.4l.2.3-.2.2a9 9 0 01-1 .3h-.3a.3.3 0 010-.7l.3-.1v-.3-1.2h-.1a5 5 0 01-2.2-.2l-.6-.2-.7 1 .2.2v.4l-.3.1c-.3 0-.5 0-.7-.2a.5.5 0 01-.2-.2.3.3 0 01.3-.4l.2-.1.6-1c.1-.1.1 0 0-.2l-.5-.4-.8-1c-.2 0-.3-.2-.4-.4 0 0 0-.2-.2-.2h-.2l-1 .5-.3.2c-.1 0-.1 0 0 .1v.2s0 .2-.2.3h-.3l-.2-.2-.1-.4-.1-.1-.1-.4a.3.3 0 01.5-.1c0 .1.1 0 .2 0l.6-.2.8-.4c.2 0 .2 0 .1-.2l-.4-1.5H309l-.2.4c-.2 0-.3 0-.4-.2v-.2-.6-.2a.3.3 0 01.5 0l.2.2h.4c.2 0 .2 0 .2-.2a5.6 5.6 0 01.3-2.2l.3-.4.2-.2v-.2h-.2c0-.1-.1-.1-.2 0a.3.3 0 01-.5-.2l.1-.4.3-.4a.3.3 0 01.5 0v.5l.3.1a5.9 5.9 0 011.4-1.4l.9-.5v-.1l-.7-1h-.2-.3l-.3-.1v-.3h.1l.9-.6h.2a.3.3 0 01.2.4l-.1.2c0 .2.2.3.3.5l.4.6c0 .2 0 .2.2.1l.6-.2H316.2l.2-.2v-.7c0-.2 0-.4.2-.6l.1-1h-.2a.3.3 0 01-.3-.3c0-.2.1-.3.3-.4h1l.2.1c.1.1.2.2.1.3l-.2.2h-.2l-.1.1v.4l-.2.8v.6l-.1.3-.1.4h.2a6 6 0 012.4 1.3s.2.1.2 0h.1l.6-.6.5-.6v-.3-.1a.4.4 0 01.5-.5l.1.1c.2.3.5.4.7.8 0 .2 0 .4-.2.5h-.6l-1.2 1.2v.2a5.6 5.6 0 011 1.7l.2.3.6-.2c0-.3.3-.3.5-.3.3.2.5.8.2 1a.3.3 0 01-.5 0l-.1-.1h-.2l-.3.1V183h.4l1 .4h.3l.3.1c.1 0 .2.1.2 0s.2-.2.3-.1l.2.2v.8a.3.3 0 01-.4.3.3.3 0 01-.2-.3v-.2l-.2-.1h-.2c-.2 0-.4 0-.5-.2-.4-.2-.7-.3-1.1-.3h-.2l-.4 1-.3.4v.1l.7.4s0 .1.1 0a.3.3 0 01.4.5l-.3.4h-.3a.2.2 0 01-.1-.2l-.2-.3c-.2 0-.3-.2-.5-.3 0 0-.1-.1-.2 0l-1 .9v.1l.4.9z" fill="#444"/><path d="M319.7 178.3a.5.5 0 01-.8.5l-.2-.2a.3.3 0 010-.3l.2-.4c.3 0 .6 0 .7.3v.1zM312.4 178.4c0 .2 0 .4-.3.5h-.5a.3.3 0 01-.2-.4v-.2l.3-.3s.2-.1.2 0l.4.1.1.3zM314.8 182c0 .2-.1.5-.3.6l-.5-.1a.4.4 0 010-.5v-.2c0-.2.2-.3.4-.2.2 0 .4.2.4.4zM316.7 177.7l-.4-.1a.4.4 0 010-.7h.6c.2 0 .3.1.3.3 0 .2 0 .3-.2.4h-.3zM317.5 180.9a.5.5 0 01-.6.5.4.4 0 01-.3-.5l.2-.4s.3-.1.4 0c.2 0 .3.2.3.4zM314.2 186.6c0-.2.2-.3.3-.5h.3l.4.4c0 .2-.1.4-.3.5-.1 0-.3.1-.4 0a.5.5 0 01-.3-.4zM312.9 184.4c0 .2-.1.4-.3.4l-.4-.1a.5.5 0 010-.5.3.3 0 01.5-.1l.2.3zM320.8 183.4c0 .2 0 .3-.2.4 0 .2-.2.2-.3.2a.3.3 0 01-.2-.4c0-.1 0-.2.2-.3 0-.2.2-.2.3-.2l.2.3zM318 183.5a.4.4 0 01-.5.4.3.3 0 01-.2-.4.3.3 0 01.3-.4c.2 0 .4.2.4.4z" fill="#979797"/><path d="M60 196.3a1.3 1.3 0 001.1-1.9l-1.5-3.3c-3.3-7.8-5.3-16-7.3-24.2a92.6 92.6 0 01-2-26.8c1-19.8 7.2-38 16-55.5 8.7-17.5 21.5-31 37.6-41.3 7.7-5 15.6-9.7 24-13.2a99.2 99.2 0 0150.8-8c6.2.6 12.4 1.7 18.6 2.5 12.8 1.6 24.1 7 35 13.7 9.1 5.5 18 11.1 26 18.3 6.2 5.9 12 12.3 17 19.3 3.5 4.8 5.7 10.3 8.5 15.6 6.7 12.9 11.1 26.9 13.1 41.3 2 14.3 1 28.4-2.8 42.5-1.7 6.6-4 13-6.8 19.2a1.3 1.3 0 001.2 1.8h.2c.5 0 1-.3 1.2-.8 2.7-5.8 5-11.9 6.6-18.3 2.3-9.8 5-19.5 4.3-29.8-.3-6.1-.5-12.3-1.5-18.3-2.4-14.4-7-28-13.8-40.7-3-5.7-5.7-11.7-9.8-16.8-10.3-13-22.2-24-36.5-32.5-8-4.8-16-9.9-24.9-13.1-5.6-2-11.4-3.3-17.3-4.3-12.1-2.1-24.2-4-36.6-2.4-5.4.7-10.9.8-16.2 2.2-10.8 2.9-21 7.2-30.8 12.8a125.3 125.3 0 00-31.8 23.9C75.9 64.5 70 70.8 66.3 78.6l-3.6 7.1a126.7 126.7 0 00-15 53c-.4 6.5-.9 13 .2 19.5 2.3 13 5.5 25.5 11 37.3.1.5.6.8 1 .8z" fill="#444"/><path d="M92.8 60c-1.3 1.1-2.6 2.2-3.7 3.5-1 1.3-2.3 2.4-3.4 3.6-.5.6-.8 1.2-1.4 1.7-.7.6-1.1 1.2-1.6 2l-1.4 2c-.4.7-.8 1.4-1.3 1.9-1.2 1.2-2 2.7-3 4.1-.6.7-1.3 1.5-1.7 2.3-.5.7-.8 1.4-1.2 2.2L73 85.6l-1 2.2c-.3.8-.5 1.7-1 2.5l-.6 1.2c-.1.3-.1.7-.3 1-1 1.6 1.5 3 2.5 1.5.3-.4.3-.7.5-1.1 0-.4.3-.7.5-1l1-2.7a34.3 34.3 0 014.6-8.6c1-1.4 1.9-2.9 3-4 .6-.6 1-1.3 1.4-2l1.5-2c.4-.6.6-1.2 1.1-1.6.7-.5 1-1.1 1.6-1.8l1.8-1.9 1.6-1.8 1.6-1.5 2-1.9c1.5-1.2-.6-3.3-2-2zM62.4 126.8c.7-1.8-2.2-2.5-2.8-.8a31.1 31.1 0 00-1.1 15.4v3.2c0 1 .1 2.2.3 3.2l.5 3.3c.1.8.6 1.4 1.5 1.4.7 0 1.6-.6 1.5-1.4l-.5-3-.2-1.6V145c-.4-2 0-4-.4-6.1a29.6 29.6 0 011.2-12z" fill="#ddd"/><path d="M303 194.5H46.7c-1.9 0-1.9 3 0 3H303c2 0 2-3 0-3z" fill="#444"/></g></svg>